<svg width="1920" height="2697" viewBox="0 0 1920 2697" fill="none" xmlns="http://www.w3.org/2000/svg">
<g opacity="0.6" filter="url(#filter0_f_99_71)">
<path d="M34.7251 1868.5C-234.075 1992.5 -182.942 1786.83 -123.775 1668.5C-131.942 1668.5 -176.575 1690 -289.775 1776C-431.275 1883.5 -123.775 2299 -123.775 2148C-123.775 1997 210.725 2023.5 684.225 1970.5C1157.73 1917.5 771.225 1891 437.225 1868.5C103.225 1846 461.725 1774 554.225 1647.5C646.725 1521 370.725 1713.5 34.7251 1868.5Z" fill="#5EA7D5"/>
<path d="M1110.32 1328.51C1051.41 1333.64 989.079 1329.81 941.917 1323.14L1110.32 1328.51C1218.55 1319.08 1315.21 1279.37 1284.96 1171.31C1226.57 962.724 1097.06 787.217 1502.49 877.736C1826.84 950.151 2105.74 835.777 2204.65 769.538L2001.72 1356.93L1110.32 1328.51Z" fill="#DF7D7D"/>
<path d="M47.1969 533.731C-106.819 401.877 -135.008 316.873 -74.81 303.73L-178.567 320.348C-178.567 320.348 157.718 657.724 23.121 828.018C-183.327 1089.22 864.985 962.484 864.985 962.484C692.742 909.459 351.416 908.723 433.5 828.018C536.104 727.136 293.696 744.761 47.1969 533.731Z" fill="#EB9C5C"/>
<path d="M1886.93 1841.38C2060.08 1835.54 2066.71 1663.36 2048.38 1578C2054.53 1606.56 2089.7 1738.58 2181.15 2038.22C2295.46 2412.78 2097.48 2337.14 1694.84 2522.14C1292.21 2707.14 1083.62 2341.7 1177.5 2289.75C1271.39 2237.8 1265.49 2235.07 1721.55 2244.64C2177.62 2254.21 1899.11 2130.72 1745.91 2052.35C1592.71 1973.97 1670.49 1848.67 1886.93 1841.38Z" fill="#B487EE"/>
<path d="M822.775 691.979C858.678 742.378 868.875 803.038 872.099 827.066C876.444 904.416 903.455 870.03 926.354 879.527C954.978 891.398 896.039 795.876 927.922 753.136C959.804 710.396 932.742 699.153 889.425 679.703C846.107 660.254 869.273 604.495 881.401 520.987C893.53 437.478 839.233 428.648 834.814 475.893C830.395 523.139 837.16 522.373 780.988 536.028C724.815 549.684 777.895 628.98 822.775 691.979Z" fill="#F9F9F9"/>
<path d="M39.8261 163.574C-73.9748 203.202 -126.006 -19.2316 -137.796 -135.402C193.315 -112.286 812.19 -65.7319 638.804 -64.4368C422.071 -62.8179 433.334 89.2818 278.648 69.3275C123.962 49.3732 182.077 114.039 39.8261 163.574Z" fill="#B487EE" stroke="black"/>
<path d="M941.917 1323.14C1075.73 1342.06 1331.68 1338.18 1284.96 1171.31C1226.57 962.724 1097.06 787.217 1502.49 877.736C1826.84 950.151 2105.74 835.777 2204.65 769.538L2001.72 1356.93L2064.48 1383.79C2183.47 1400.33 2292.3 1439.33 2382.73 1520L2064.48 1383.79C1707.78 1334.22 1259.71 1486.5 941.917 1323.14Z" fill="#DF7D7D"/>
<path d="M82.1744 514.234C-131.805 331.044 -170.969 212.946 -87.3333 194.686L-231.486 217.773C-231.486 217.773 235.725 686.5 48.7251 923.095C-238.099 1285.99 1218.35 1109.91 1218.35 1109.91C979.049 1036.24 504.835 1035.22 618.876 923.095C761.428 782.937 424.643 807.423 82.1744 514.234Z" fill="#EB9C5C"/>
<path d="M1001.43 -95.9802C905.459 -215.896 1259.43 -204.724 1441.43 -204.724L2027.46 -204.724L2115.43 631.432C1811.93 553.02 1425.16 720.013 1556.43 592.02C1656.43 494.52 1710.05 355.573 1331.17 366.409C952.281 377.244 1397.43 165.02 1417.43 104.52C1463.13 -33.7124 1121.39 53.914 1001.43 -95.9802Z" fill="#5EA7D5"/>
<path d="M368.236 2755.63C92.9599 2782.21 -65.1041 2612.12 -109.727 2523.75C-130.072 2763.68 -146.337 3224.37 -48.6365 3147.72C73.4885 3051.91 344.496 3069.83 213.742 3010.78C82.9881 2951.73 532.474 2936.78 856.699 2878.28C1180.92 2819.79 712.331 2722.4 368.236 2755.63Z" fill="#DF7D7D" stroke="black"/>
</g>
<defs>
<filter id="filter0_f_99_71" x="-627" y="-505" width="3309.73" height="3961.72" filterUnits="userSpaceOnUse" color-interpolation-filters="sRGB">
<feFlood flood-opacity="0" result="BackgroundImageFix"/>
<feBlend mode="normal" in="SourceGraphic" in2="BackgroundImageFix" result="shape"/>
<feGaussianBlur stdDeviation="150" result="effect1_foregroundBlur_99_71"/>
</filter>
</defs>
</svg>
