<svg width="1920" height="1001" viewBox="0 0 1920 1001" fill="none" xmlns="http://www.w3.org/2000/svg">
<path d="M181.137 -164C98.4698 -95.3333 -13.2635 53.6 201.137 100C469.137 158 939.137 130 939.137 344C939.137 510.012 529.636 826 1323.14 868C1957.94 901.6 2219.3 1155 2270.64 1277.5" stroke="#F9F9F9" stroke-width="3"/>
<ellipse rx="2.43074" ry="2.4302" transform="matrix(0.666296 -0.745688 0.740588 0.671959 83.4325 85.7736)" fill="#F9F9F9" fill-opacity="0.25"/>
<ellipse rx="1.93589" ry="1.9258" transform="matrix(0.354717 -0.934974 0.933008 0.359855 117.6 90.4861)" fill="#F9F9F9" fill-opacity="0.25"/>
<ellipse rx="2.42739" ry="2.43354" transform="matrix(0.836252 0.548345 -0.542324 0.840169 926.476 277.746)" fill="#F9F9F9" fill-opacity="0.25"/>
<ellipse rx="2.42398" ry="2.43693" transform="matrix(-0.936401 -0.350931 0.34587 -0.938283 1631.32 892.628)" fill="#F9F9F9" fill-opacity="0.25"/>
<ellipse rx="2.4275" ry="2.43342" transform="matrix(0.788492 -0.615046 0.609339 0.79291 1718.89 908.191)" fill="#F9F9F9" fill-opacity="0.25"/>
<ellipse rx="1.94459" ry="1.94416" transform="matrix(0.666296 -0.745688 0.740588 0.671959 99.4506 90.4606)" fill="#F9F9F9" fill-opacity="0.25"/>
<ellipse rx="1.94191" ry="1.94683" transform="matrix(0.836252 0.548345 -0.542324 0.840169 933.455 294.074)" fill="#F9F9F9" fill-opacity="0.25"/>
<ellipse rx="1.93918" ry="1.94955" transform="matrix(-0.936401 -0.350931 0.34587 -0.938283 1598.14 877.854)" fill="#F9F9F9" fill-opacity="0.25"/>
<ellipse rx="1.9408" ry="1.94794" transform="matrix(0.840533 -0.54176 0.536148 0.844124 1740.21 915.355)" fill="#F9F9F9" fill-opacity="0.25"/>
<ellipse rx="1.94812" ry="1.94062" transform="matrix(0.524276 0.851548 -0.848093 0.529847 1173.02 858.574)" fill="#F9F9F9" fill-opacity="0.25"/>
<ellipse rx="1.942" ry="1.94674" transform="matrix(0.788492 -0.615046 0.609339 0.79291 1705.67 900.643)" fill="#F9F9F9" fill-opacity="0.25"/>
<ellipse rx="1.45844" ry="1.45812" transform="matrix(0.666296 -0.745688 0.740588 0.671959 111.22 79.477)" fill="#F9F9F9" fill-opacity="0.25"/>
<ellipse rx="1.45643" ry="1.46012" transform="matrix(0.836252 0.548345 -0.542324 0.840169 937.71 307.213)" fill="#F9F9F9" fill-opacity="0.25"/>
<ellipse rx="1.45439" ry="1.46216" transform="matrix(-0.936401 -0.350931 0.34587 -0.938283 1585.42 865.734)" fill="#F9F9F9" fill-opacity="0.25"/>
<ellipse rx="1.4556" ry="1.46095" transform="matrix(0.840533 -0.54176 0.536148 0.844124 1753.75 906.364)" fill="#F9F9F9" fill-opacity="0.25"/>
<ellipse rx="1.45547" ry="1.46109" transform="matrix(-0.848093 0.529847 -0.524276 -0.851548 1144.53 854.98)" fill="#F9F9F9" fill-opacity="0.25"/>
<ellipse rx="1.4565" ry="1.46005" transform="matrix(0.788492 -0.615046 0.609339 0.79291 1737.04 899.218)" fill="#F9F9F9" fill-opacity="0.25"/>
<ellipse rx="1.4531" ry="1.46344" transform="matrix(-0.990353 -0.138567 0.135972 -0.990713 1085.05 857.222)" fill="#F9F9F9" fill-opacity="0.25"/>
<ellipse rx="0.972702" ry="0.972486" transform="matrix(0.666296 -0.745688 0.740588 0.671959 97.4347 78.1279)" fill="#F9F9F9" fill-opacity="0.25"/>
<ellipse rx="0.971362" ry="0.973824" transform="matrix(0.836252 0.548345 -0.542324 0.840169 936.158 290.497)" fill="#F9F9F9" fill-opacity="0.25"/>
<ellipse rx="0.969998" ry="0.975182" transform="matrix(-0.936401 -0.350931 0.34587 -0.938283 1596.28 881.942)" fill="#F9F9F9" fill-opacity="0.25"/>
<ellipse rx="0.970717" ry="0.974466" transform="matrix(-0.848093 0.529847 -0.524276 -0.851548 1157.39 860.149)" fill="#F9F9F9" fill-opacity="0.25"/>
<ellipse rx="0.971409" ry="0.973777" transform="matrix(0.788492 -0.615046 0.609339 0.79291 1716.64 896.671)" fill="#F9F9F9" fill-opacity="0.25"/>
<ellipse rx="0.972683" ry="0.972505" transform="matrix(-0.668218 0.743965 -0.738851 -0.673869 1004.95 830.415)" fill="#F9F9F9" fill-opacity="0.25"/>
<ellipse rx="0.972683" ry="0.972505" transform="matrix(-0.668218 0.743965 -0.738851 -0.673869 988.44 803.692)" fill="#F9F9F9" fill-opacity="0.25"/>
<ellipse rx="0.972683" ry="0.972505" transform="matrix(-0.668218 0.743965 -0.738851 -0.673869 981.542 826.414)" fill="#F9F9F9" fill-opacity="0.25"/>
<ellipse rx="0.972683" ry="0.972505" transform="matrix(-0.668218 0.743965 -0.738851 -0.673869 953.892 812.806)" fill="#F9F9F9" fill-opacity="0.25"/>
<ellipse rx="0.486073" ry="0.485947" transform="matrix(0.666296 -0.745688 0.740588 0.671959 81.2736 96.9434)" fill="#F9F9F9" fill-opacity="0.25"/>
<ellipse rx="0.486955" ry="0.485638" transform="matrix(-0.531883 0.846818 -0.843011 -0.537896 549.362 189.962)" fill="#F9F9F9" fill-opacity="0.25"/>
<ellipse rx="0.486073" ry="0.485947" transform="matrix(0.666296 -0.745688 0.740588 0.671959 111.984 67.4108)" fill="#F9F9F9" fill-opacity="0.25"/>
<ellipse rx="0.487566" ry="0.485024" transform="matrix(0.354717 -0.934974 0.933008 0.359855 120.214 101.404)" fill="#F9F9F9" fill-opacity="0.25"/>
<ellipse rx="0.487932" ry="0.484656" transform="matrix(-0.193742 0.981053 -0.98038 -0.197119 510.235 192.15)" fill="#F9F9F9" fill-opacity="0.25"/>
<ellipse rx="0.487932" ry="0.484656" transform="matrix(-0.193742 0.981053 -0.98038 -0.197119 388.596 179.152)" fill="#F9F9F9" fill-opacity="0.25"/>
<ellipse rx="0.485681" ry="0.486912" transform="matrix(0.836252 0.548345 -0.542324 0.840169 915.188 277.329)" fill="#F9F9F9" fill-opacity="0.25"/>
<ellipse rx="0.484999" ry="0.487591" transform="matrix(-0.936401 -0.350931 0.34587 -0.938283 1619.6 890.161)" fill="#F9F9F9" fill-opacity="0.25"/>
<ellipse rx="0.487881" ry="0.484708" transform="matrix(0.294815 0.955555 -0.954417 0.298477 955.065 321.1)" fill="#F9F9F9" fill-opacity="0.25"/>
<ellipse rx="0.485704" ry="0.486889" transform="matrix(0.788492 -0.615046 0.609339 0.79291 1697.41 912.286)" fill="#F9F9F9" fill-opacity="0.25"/>
<ellipse rx="0.48457" ry="0.488018" transform="matrix(-0.990353 -0.138567 0.135972 -0.990713 1121.88 864.375)" fill="#F9F9F9" fill-opacity="0.25"/>
<ellipse rx="0.487867" ry="0.484721" transform="matrix(-0.229257 0.973366 -0.972457 -0.233082 1015.51 821.436)" fill="#F9F9F9" fill-opacity="0.25"/>
<ellipse rx="0.487867" ry="0.484721" transform="matrix(-0.229257 0.973366 -0.972457 -0.233082 1018.93 835.946)" fill="#F9F9F9" fill-opacity="0.25"/>
<ellipse rx="0.487867" ry="0.484721" transform="matrix(-0.229257 0.973366 -0.972457 -0.233082 989.451 825.336)" fill="#F9F9F9" fill-opacity="0.25"/>
<ellipse rx="0.487867" ry="0.484721" transform="matrix(-0.229257 0.973366 -0.972457 -0.233082 994.67 809.514)" fill="#F9F9F9" fill-opacity="0.25"/>
<ellipse rx="2.43074" ry="2.4302" transform="matrix(0.666296 -0.745688 0.740588 0.671959 95.5256 67.8628)" fill="#F9F9F9" fill-opacity="0.25"/>
<ellipse rx="2.42739" ry="2.43354" transform="matrix(0.836252 0.548345 -0.542324 0.840169 945.923 287.005)" fill="#F9F9F9" fill-opacity="0.25"/>
<ellipse rx="2.42398" ry="2.43693" transform="matrix(-0.936401 -0.350931 0.34587 -0.938283 1594.36 889.136)" fill="#F9F9F9" fill-opacity="0.25"/>
<ellipse rx="2.42578" ry="2.43515" transform="matrix(-0.848093 0.529847 -0.524276 -0.851548 1156.39 870.542)" fill="#F9F9F9" fill-opacity="0.25"/>
<ellipse rx="2.43838" ry="2.42252" transform="matrix(0.294815 0.955555 -0.954417 0.298477 934.64 361.994)" fill="#F9F9F9" fill-opacity="0.25"/>
<ellipse rx="2.4275" ry="2.43342" transform="matrix(0.788492 -0.615046 0.609339 0.79291 1803.05 917.627)" fill="#F9F9F9" fill-opacity="0.25"/>
<ellipse cx="976.496" cy="818.874" rx="2.43962" ry="2.42127" transform="rotate(87.8435 976.496 818.874)" fill="#F9F9F9" fill-opacity="0.25"/>
<ellipse rx="0.972702" ry="0.972486" transform="matrix(0.666296 -0.745688 0.740588 0.671959 93.6212 110.116)" fill="#F9F9F9" fill-opacity="0.25"/>
<ellipse rx="0.973909" ry="0.971276" transform="matrix(-0.531883 0.846818 -0.843011 -0.537896 534.997 179.064)" fill="#F9F9F9" fill-opacity="0.25"/>
<ellipse rx="0.975133" ry="0.970048" transform="matrix(0.354717 -0.934974 0.933008 0.359855 124.364 123.202)" fill="#F9F9F9" fill-opacity="0.25"/>
<ellipse rx="0.975864" ry="0.969312" transform="matrix(-0.193742 0.981053 -0.98038 -0.197119 485.778 174.922)" fill="#F9F9F9" fill-opacity="0.25"/>
<ellipse rx="0.971362" ry="0.973824" transform="matrix(0.836252 0.548345 -0.542324 0.840169 904.204 291.661)" fill="#F9F9F9" fill-opacity="0.25"/>
<ellipse rx="0.969998" ry="0.975182" transform="matrix(-0.936401 -0.350931 0.34587 -0.938283 1638.62 879.694)" fill="#F9F9F9" fill-opacity="0.25"/>
<ellipse rx="0.974466" ry="0.970717" transform="matrix(0.524276 0.851548 -0.848093 0.529847 1154.83 844.374)" fill="#F9F9F9" fill-opacity="0.25"/>
<ellipse rx="0.975762" ry="0.969415" transform="matrix(0.294815 0.955555 -0.954417 0.298477 937.124 319.087)" fill="#F9F9F9" fill-opacity="0.25"/>
<ellipse rx="0.97467" ry="0.970513" transform="matrix(-0.495983 -0.868332 0.865198 -0.50143 1565.27 861.014)" fill="#F9F9F9" fill-opacity="0.25"/>
<ellipse rx="0.974457" ry="0.970727" transform="matrix(-0.460027 0.887905 -0.884865 -0.465848 941.74 377.839)" fill="#F9F9F9" fill-opacity="0.25"/>
<ellipse rx="0.969105" ry="0.97607" transform="matrix(0.992216 0.124533 -0.122134 0.992514 1758.48 926.787)" fill="#F9F9F9" fill-opacity="0.25"/>
<ellipse rx="0.969139" ry="0.976036" transform="matrix(-0.990353 -0.138567 0.135972 -0.990713 1125.77 846.694)" fill="#F9F9F9" fill-opacity="0.25"/>
<ellipse rx="0.975734" ry="0.969443" transform="matrix(-0.229257 0.973366 -0.972457 -0.233082 996.06 830.572)" fill="#F9F9F9" fill-opacity="0.25"/>
<ellipse rx="1.45844" ry="1.45812" transform="matrix(0.666296 -0.745688 0.740588 0.671959 107.02 105.113)" fill="#F9F9F9" fill-opacity="0.25"/>
<ellipse rx="1.46025" ry="1.4563" transform="matrix(-0.531883 0.846818 -0.843011 -0.537896 524.922 187.98)" fill="#F9F9F9" fill-opacity="0.25"/>
<ellipse rx="1.46025" ry="1.4563" transform="matrix(-0.531883 0.846818 -0.843011 -0.537896 406.003 169.996)" fill="#F9F9F9" fill-opacity="0.25"/>
<ellipse rx="1.46209" ry="1.45446" transform="matrix(0.354717 -0.934974 0.933008 0.359855 131.173 106.984)" fill="#F9F9F9" fill-opacity="0.25"/>
<ellipse rx="1.46318" ry="1.45336" transform="matrix(-0.193742 0.981053 -0.98038 -0.197119 499.369 185.741)" fill="#F9F9F9" fill-opacity="0.25"/>
<ellipse rx="1.46318" ry="1.45336" transform="matrix(-0.193742 0.981053 -0.98038 -0.197119 371.066 175.923)" fill="#F9F9F9" fill-opacity="0.25"/>
<ellipse rx="1.45643" ry="1.46012" transform="matrix(0.836252 0.548345 -0.542324 0.840169 916.121 288.416)" fill="#F9F9F9" fill-opacity="0.25"/>
<ellipse rx="1.45439" ry="1.46216" transform="matrix(-0.936401 -0.350931 0.34587 -0.938283 1616.28 879.548)" fill="#F9F9F9" fill-opacity="0.25"/>
<ellipse rx="1.46109" ry="1.45547" transform="matrix(0.524276 0.851548 -0.848093 0.529847 1166.99 846.54)" fill="#F9F9F9" fill-opacity="0.25"/>
<ellipse rx="1.46303" ry="1.45351" transform="matrix(0.294815 0.955555 -0.954417 0.298477 938.177 330.389)" fill="#F9F9F9" fill-opacity="0.25"/>
<ellipse rx="1.4565" ry="1.46005" transform="matrix(0.788492 -0.615046 0.609339 0.79291 1839.64 947.115)" fill="#F9F9F9" fill-opacity="0.25"/>
<ellipse rx="1.46107" ry="1.45548" transform="matrix(-0.460027 0.887905 -0.884865 -0.465848 934.58 386.598)" fill="#F9F9F9" fill-opacity="0.25"/>
<ellipse rx="1.45305" ry="1.46349" transform="matrix(0.992216 0.124533 -0.122134 0.992514 1769.14 930.483)" fill="#F9F9F9" fill-opacity="0.25"/>
<ellipse rx="1.45841" ry="1.45815" transform="matrix(-0.668218 0.743965 -0.738851 -0.673869 1003.14 815.548)" fill="#F9F9F9" fill-opacity="0.25"/>
</svg>
