<svg width="101" height="175" viewBox="0 0 101 175" fill="none" xmlns="http://www.w3.org/2000/svg">
<g clip-path="url(#clip0_99_170)">
<path d="M5.76524 68.1025C5.76524 67.4386 7.17948 67.1512 8.12316 67.1512H92.6344C93.5781 67.1512 93.7714 67.4411 93.7714 68.1025V158.222C93.7714 158.886 93.3746 159.677 92.5378 159.983L52.0995 174.774C51.2602 175.079 49.9604 175.081 49.1184 174.781L7.57629 159.975C6.73435 159.672 5.7627 158.884 5.7627 158.222V68.1025H5.76524Z" fill="#1D539F"/>
<path d="M90.7496 99.3735V89.0312H8.93457L90.7496 99.3735Z" fill="#163E77"/>
<path d="M96.1369 84.5774C96.1369 84.5774 55.4977 98.0127 4.22119 84.5774V58.4342C51.5221 70.7478 96.1369 58.4342 96.1369 58.4342V84.5774Z" fill="white"/>
<path d="M96.1369 58.4342V84.5774C96.1369 84.5774 78.0723 90.5472 50.8404 90.5472C37.222 90.5472 21.3143 89.0542 4.22124 84.5774V58.4342C19.9865 62.5396 35.4567 63.9081 49.0726 63.9081C76.307 63.9081 96.1344 58.4342 96.1344 58.4342M100.097 53.23L95.0813 54.6137C94.8677 54.6722 75.376 59.9451 49.0726 59.9451C33.5973 59.9451 18.8419 58.1468 5.21833 54.601L0.258301 53.3063V87.6348L3.21651 88.4106C18.6664 92.4575 34.6885 94.5102 50.8404 94.5102C78.3927 94.5102 96.6177 88.5912 97.3808 88.3394L100.1 87.4415V53.2275L100.097 53.23Z" fill="#1D539F"/>
<path d="M19.4142 68.6545C19.6889 68.7053 19.9408 68.8096 20.1671 68.9622C20.3935 69.1148 20.5818 69.2954 20.7267 69.504C20.8743 69.7126 20.9811 69.9466 21.0472 70.2111C21.1134 70.4757 21.1235 70.7428 21.0752 71.0149C20.6072 73.6603 20.1392 76.3056 19.6711 78.951C19.6228 79.2231 19.5185 79.4724 19.3608 79.6962C19.2006 79.9201 19.0098 80.1058 18.7885 80.2533C18.5647 80.4008 18.3129 80.5026 18.0305 80.5534C17.7482 80.6069 17.4582 80.6068 17.1631 80.5509C14.9909 80.1388 12.8238 79.6886 10.6617 79.1977C10.3692 79.1316 10.1021 79.0171 9.86555 78.8543C9.62645 78.6915 9.43059 78.4982 9.28052 78.2718C9.1279 78.0454 9.02616 77.7987 8.97528 77.5316C8.92441 77.2646 8.93204 76.9975 8.99563 76.7279C9.6239 74.1156 10.2496 71.5033 10.8779 68.891C10.9415 68.6214 11.056 68.3797 11.2162 68.1635C11.3764 67.9473 11.5698 67.7744 11.7936 67.6421C12.0174 67.5098 12.2642 67.4208 12.5338 67.3725C12.8034 67.3216 13.0756 67.3292 13.3477 67.3903C15.3648 67.8481 17.387 68.2704 19.4168 68.6545H19.4142ZM17.8194 71.3405C16.4509 71.0734 15.085 70.7885 13.7217 70.4858C13.274 72.5131 12.8263 74.5404 12.3786 76.5651C13.7903 76.8779 15.2071 77.173 16.6239 77.4502C17.0232 75.4128 17.4201 73.3754 17.8194 71.3405Z" fill="#1D539F"/>
<path d="M33.2848 70.786C33.3407 70.8547 33.3661 70.9361 33.356 71.0276C33.2771 71.7856 33.1983 72.5411 33.1194 73.2991C33.1092 73.3906 33.0685 73.4644 32.9973 73.5204C32.9261 73.5763 32.8422 73.5992 32.7481 73.589C30.7768 73.3805 28.8106 73.1363 26.8469 72.859C26.7884 72.8514 26.7553 72.8692 26.7502 72.915C26.6612 73.5382 26.5747 74.1588 26.4857 74.782C26.4781 74.8405 26.5035 74.871 26.562 74.8812C28.0678 75.0949 29.5787 75.2856 31.0871 75.4611C31.1812 75.4713 31.255 75.512 31.3084 75.5832C31.3618 75.6544 31.3821 75.7333 31.372 75.8249C31.2906 76.5422 31.2092 77.2569 31.1303 77.9742C31.1201 78.0658 31.082 78.1396 31.0133 78.1955C30.9446 78.2515 30.8632 78.2744 30.7666 78.2642C29.2328 78.0887 27.699 77.8928 26.1677 77.6766C26.1067 77.669 26.0736 77.6919 26.066 77.7504C25.8829 79.0349 25.7023 80.3194 25.5191 81.6039C25.4886 81.8202 25.3563 81.9117 25.1223 81.8786C24.2702 81.7566 23.4207 81.6268 22.5685 81.492C22.3345 81.4539 22.2353 81.3292 22.2684 81.1105C22.8712 77.3409 23.4766 73.5738 24.0794 69.8042C24.1151 69.588 24.2397 69.4964 24.4584 69.532C27.3175 69.9848 30.1841 70.3637 33.0584 70.669C33.1499 70.6792 33.2263 70.7199 33.2822 70.7885L33.2848 70.786Z" fill="#1D539F"/>
<path d="M44.3261 71.5821C44.3872 71.6483 44.4177 71.7271 44.4126 71.8187C44.3821 72.5792 44.3541 73.3398 44.3236 74.1003C44.321 74.1919 44.2854 74.2682 44.2167 74.3292C44.1481 74.3903 44.0692 74.4183 43.9751 74.4157C41.9987 74.3343 40.0223 74.2199 38.046 74.0723C37.9875 74.0672 37.9569 74.0876 37.9518 74.1334C37.9035 74.7591 37.8577 75.3874 37.8094 76.0131C37.8043 76.0716 37.8323 76.1021 37.8933 76.1072C39.4068 76.2217 40.9228 76.3158 42.4413 76.3896C42.538 76.3946 42.6117 76.4303 42.6702 76.4964C42.7262 76.5625 42.7542 76.6414 42.7491 76.7329C42.716 77.4528 42.6804 78.1726 42.6473 78.8925C42.6422 78.984 42.6092 79.0603 42.5456 79.1214C42.482 79.1824 42.4006 79.2104 42.3039 79.2053C40.7625 79.129 39.2236 79.0349 37.6848 78.9179C37.6237 78.9128 37.5907 78.9408 37.5881 78.9968C37.4889 80.2914 37.3922 81.5836 37.293 82.8783C37.2778 83.097 37.1506 83.1962 36.9141 83.1784C36.0569 83.1123 35.2022 83.0385 34.345 82.9597C34.1085 82.9393 34.0016 82.8172 34.022 82.5985C34.3781 78.7984 34.7367 74.9982 35.0928 71.1981C35.1132 70.9793 35.2327 70.8801 35.454 70.9005C38.3308 71.165 41.2127 71.3558 44.0946 71.4728C44.1862 71.4753 44.2651 71.5109 44.3261 71.5771V71.5821Z" fill="#1D539F"/>
<path d="M49.1085 83.387C49.1085 83.6057 48.9864 83.7151 48.7498 83.7126C47.8926 83.7024 47.0329 83.6846 46.1757 83.6617C45.9391 83.6541 45.8247 83.5422 45.8298 83.3234C45.9391 79.508 46.0485 75.6926 46.1553 71.8772C46.1604 71.6584 46.2749 71.5516 46.4962 71.5567C47.2974 71.577 48.0986 71.5923 48.8999 71.6025C49.1212 71.605 49.2306 71.7169 49.228 71.9357C49.1873 75.7511 49.1492 79.569 49.1085 83.3845V83.387Z" fill="#1D539F"/>
<path d="M55.1469 74.5963C55.0833 74.6548 55.0527 74.7311 55.0553 74.8227C55.0985 76.6897 55.1418 78.5567 55.185 80.4263C55.185 80.5178 55.2232 80.5916 55.2918 80.6476C55.3605 80.7035 55.4445 80.7315 55.5411 80.729C57.5048 80.6781 59.4684 80.5967 61.4296 80.4822C61.5288 80.4771 61.6127 80.5026 61.6839 80.5636C61.7551 80.6221 61.7933 80.6984 61.7984 80.79C61.8442 81.5505 61.89 82.3085 61.9357 83.0691C61.9408 83.1606 61.9103 83.242 61.8467 83.3082C61.7831 83.3768 61.6992 83.4125 61.6 83.4175C60.3027 83.4939 59.003 83.5549 57.7032 83.6032C56.6349 83.6439 55.564 83.6719 54.4957 83.6923C54.3838 83.6923 54.2719 83.6973 54.1599 83.6973C53.8623 83.7024 53.5775 83.6541 53.3104 83.5549C53.0408 83.4531 52.8067 83.3133 52.6083 83.1301C52.4074 82.947 52.2522 82.7333 52.1403 82.484C52.0284 82.2373 51.9699 81.9753 51.9699 81.6981V81.3877C51.9648 80.9681 51.9648 80.5458 51.9623 80.1261C51.9546 78.7831 51.947 77.4401 51.9419 76.0971C51.9419 75.7231 51.9368 75.3467 51.9368 74.9728C51.9368 74.5276 51.9317 74.0851 51.9292 73.6399C51.9292 73.3627 51.9801 73.1007 52.0818 72.8514C52.1861 72.6021 52.3285 72.3885 52.5142 72.2079C52.6999 72.0273 52.9161 71.8823 53.1654 71.7678C53.4147 71.6559 53.6767 71.5949 53.9565 71.5923C54.0607 71.5923 54.165 71.5898 54.2693 71.5872C56.4823 71.544 58.6926 71.4601 60.9005 71.3303C60.9946 71.3252 61.0735 71.3532 61.1421 71.4117C61.2108 71.4702 61.2464 71.5465 61.2515 71.6381C61.2973 72.3987 61.3431 73.1566 61.3889 73.9172C61.394 74.0087 61.366 74.0901 61.3049 74.1563C61.2439 74.225 61.165 74.2606 61.0709 74.2657C59.1785 74.375 57.2835 74.4564 55.386 74.5022C55.2918 74.5022 55.213 74.5353 55.1494 74.5938L55.1469 74.5963Z" fill="#1D539F"/>
<path d="M68.1626 82.5858C68.183 82.8045 68.0761 82.9241 67.8396 82.947C66.9849 83.0258 66.1277 83.0996 65.2731 83.1683C65.0365 83.1861 64.9119 83.0869 64.8941 82.8681C64.6016 79.0629 64.3116 75.2577 64.0191 71.4524C64.0013 71.2337 64.103 71.1167 64.3243 71.0989C65.123 71.0353 65.9217 70.9666 66.7204 70.8928C66.9391 70.8725 67.0612 70.9717 67.0816 71.1879C67.4428 74.988 67.8014 78.7882 68.1626 82.5858V82.5858Z" fill="#1D539F"/>
<path d="M77.9017 69.476C78.1764 69.4328 78.4486 69.443 78.7131 69.5116C78.9776 69.5803 79.2142 69.6846 79.4228 69.8321C79.6313 69.9771 79.8119 70.1628 79.9645 70.3892C80.1172 70.6156 80.2164 70.8623 80.2647 71.137C80.8192 74.3419 81.3712 77.5469 81.9257 80.7493C81.9409 80.8409 81.9206 80.9222 81.8646 80.996C81.8087 81.0698 81.7298 81.1156 81.6306 81.1334C80.776 81.2784 79.9188 81.4182 79.0641 81.5531C78.9649 81.5683 78.8759 81.5505 78.7996 81.4971C78.7207 81.4462 78.6749 81.3725 78.6622 81.2809L78.1916 78.2209C78.1764 78.1294 78.1357 78.0582 78.0645 78.0047C77.9958 77.9513 77.9119 77.931 77.8152 77.9462C76.6197 78.1294 75.4217 78.2972 74.2236 78.455C74.127 78.4677 74.0481 78.5109 73.9896 78.5821C73.9311 78.6534 73.9082 78.7347 73.9184 78.8263C74.0507 79.8488 74.1829 80.8739 74.3152 81.8964C74.3432 82.1127 74.2389 82.2373 74.0049 82.2678C73.1528 82.3772 72.2981 82.4789 71.4435 82.5756C71.2069 82.601 71.0797 82.5069 71.0543 82.2882C70.6956 79.0552 70.337 75.8249 69.9784 72.5919C69.9478 72.3172 69.9707 72.0502 70.0496 71.7933C70.1259 71.5363 70.248 71.3074 70.4133 71.109C70.5786 70.9106 70.7796 70.7427 71.0136 70.6028C71.2502 70.4655 71.5045 70.379 71.7818 70.3434C73.8243 70.0916 75.8643 69.8016 77.9017 69.476V69.476ZM77.744 75.3314C77.5888 74.3292 77.4362 73.3245 77.281 72.3223C75.9075 72.5334 74.5314 72.7293 73.1528 72.9074C73.2825 73.9146 73.4122 74.9193 73.5445 75.9266C74.946 75.746 76.3475 75.5476 77.744 75.3314V75.3314Z" fill="#1D539F"/>
<path d="M92.4871 75.9139C92.5838 75.891 92.6677 75.9037 92.744 75.9495C92.8178 75.9978 92.8661 76.0665 92.889 76.1555C93.067 76.8957 93.2451 77.6359 93.4232 78.3761C93.4435 78.4651 93.4333 78.5491 93.3875 78.6254C93.3418 78.7017 93.2705 78.7526 93.1713 78.7755C90.5387 79.4012 87.8985 79.9684 85.248 80.4771C85.014 80.5204 84.8767 80.4364 84.836 80.2202C84.1263 76.471 83.4141 72.7191 82.7044 68.9699C82.6637 68.7537 82.7527 68.6265 82.9689 68.5858C83.76 68.4332 84.5485 68.278 85.337 68.1152C85.5532 68.0694 85.6855 68.1559 85.7288 68.3696C86.3087 71.1523 86.8886 73.935 87.4686 76.7177C87.4864 76.8093 87.5347 76.8754 87.6136 76.9161C87.6924 76.9593 87.7789 76.9695 87.8756 76.9491C89.417 76.6261 90.9533 76.2802 92.4897 75.9139H92.4871Z" fill="#1D539F"/>
<path d="M100.163 53.2224L95.0991 50.7118L95.0432 0H4.74777L4.84443 51.1163L0.197266 53.4208L4.84443 56.6486V56.7198H4.94872L5.2336 56.9182L5.25395 56.7198H6.82081C6.82081 56.7198 50.1689 69.7355 94.4429 56.9182H95.1042V56.73C95.1042 56.73 95.1246 56.7249 95.1322 56.7224L100.166 53.2249L100.163 53.2224Z" fill="#1D539F"/>
<path d="M22.5936 142.806C22.8403 142.91 23.0515 143.052 23.2295 143.235C23.4076 143.419 23.55 143.63 23.6594 143.871C23.7687 144.11 23.8222 144.37 23.8222 144.645V147.872C23.8222 148.147 23.7687 148.407 23.6594 148.653C23.55 148.9 23.4076 149.114 23.2295 149.297C23.0515 149.48 22.8403 149.622 22.5936 149.727C22.3469 149.831 22.0874 149.882 21.8127 149.882H14.9628C14.744 149.882 14.6372 149.773 14.6372 149.556V147.478C14.6372 147.387 14.6677 147.31 14.7313 147.247C14.7949 147.183 14.8712 147.153 14.9628 147.153H20.8004C20.8919 147.153 20.9682 147.125 21.0318 147.066C21.0954 147.01 21.1259 146.934 21.1259 146.842V145.418C21.1259 145.326 21.0954 145.25 21.0318 145.186C20.9682 145.123 20.8919 145.092 20.8004 145.092H16.6467C16.3719 145.092 16.1125 145.041 15.8658 144.937C15.619 144.833 15.4054 144.69 15.2222 144.507C15.0391 144.324 14.8967 144.113 14.7924 143.871C14.6881 143.63 14.6372 143.373 14.6372 143.098V139.87C14.6372 139.596 14.6881 139.336 14.7924 139.089C14.8941 138.843 15.0391 138.632 15.2222 138.454C15.4054 138.275 15.619 138.133 15.8658 138.024C16.1125 137.914 16.3719 137.861 16.6467 137.861H23.1176C23.3338 137.861 23.4432 137.97 23.4432 138.186V140.298C23.4432 140.389 23.4126 140.463 23.3491 140.521C23.2855 140.58 23.2092 140.608 23.1176 140.608H17.6412C17.5496 140.608 17.4759 140.638 17.4174 140.702C17.3589 140.766 17.3309 140.842 17.3309 140.934V142.325C17.3309 142.416 17.3589 142.493 17.4174 142.556C17.4733 142.62 17.5496 142.65 17.6412 142.65H21.8127C22.0874 142.65 22.3469 142.701 22.5936 142.806Z" fill="white"/>
<path d="M35.5204 137.958C35.584 138.021 35.6145 138.097 35.6145 138.189V140.351C35.6145 140.443 35.584 140.516 35.5204 140.575C35.4568 140.633 35.3805 140.661 35.289 140.661H29.5379C29.4794 140.661 29.4514 140.689 29.4514 140.748V142.62C29.4514 142.666 29.4794 142.689 29.5379 142.689H34.447C34.5386 142.689 34.6124 142.719 34.6709 142.783C34.7268 142.846 34.7573 142.923 34.7573 143.014V144.731C34.7573 144.823 34.7294 144.902 34.6709 144.963C34.6124 145.026 34.5386 145.057 34.447 145.057H29.5379C29.4794 145.057 29.4514 145.085 29.4514 145.143V146.997C29.4514 147.056 29.4794 147.084 29.5379 147.084H35.289C35.3805 147.084 35.4568 147.114 35.5204 147.178C35.584 147.242 35.6145 147.318 35.6145 147.41V149.556C35.6145 149.648 35.584 149.724 35.5204 149.788C35.4568 149.851 35.3805 149.882 35.289 149.882H26.7577C26.539 149.882 26.4321 149.773 26.4321 149.556V138.192C26.4321 138.1 26.4627 138.024 26.5262 137.96C26.5898 137.896 26.6661 137.866 26.7577 137.866H35.289C35.3805 137.866 35.4568 137.896 35.5204 137.96V137.958Z" fill="white"/>
<path d="M46.4121 137.863C46.6868 137.863 46.9462 137.917 47.193 138.026C47.4397 138.136 47.6508 138.278 47.8289 138.456C48.0069 138.634 48.1494 138.845 48.2587 139.092C48.3681 139.339 48.4215 139.598 48.4215 139.873V149.554C48.4215 149.645 48.391 149.722 48.3274 149.785C48.2638 149.849 48.1875 149.879 48.096 149.879H45.7101C45.6185 149.879 45.5422 149.849 45.4786 149.785C45.415 149.722 45.3845 149.645 45.3845 149.554V146.481C45.3845 146.39 45.3565 146.313 45.298 146.25C45.2395 146.186 45.1657 146.156 45.0742 146.156H41.6759C41.5843 146.156 41.508 146.186 41.4444 146.25C41.3808 146.313 41.3503 146.39 41.3503 146.481V149.554C41.3503 149.773 41.2409 149.879 41.0247 149.879H38.6566C38.4404 149.879 38.3311 149.77 38.3311 149.554V139.873C38.3311 139.598 38.3819 139.339 38.4862 139.092C38.5905 138.845 38.7329 138.634 38.9161 138.456C39.0992 138.278 39.3129 138.136 39.5596 138.026C39.8063 137.917 40.0658 137.863 40.3405 137.863H46.4172H46.4121ZM45.3819 143.579V140.557H41.3478V143.579H45.3819V143.579Z" fill="white"/>
<path d="M59.0384 142.806C59.2852 142.91 59.4963 143.052 59.6743 143.235C59.8524 143.419 59.9948 143.63 60.1042 143.871C60.2136 144.11 60.267 144.37 60.267 144.645V147.872C60.267 148.147 60.2136 148.407 60.1042 148.653C59.9948 148.9 59.8524 149.114 59.6743 149.297C59.4963 149.48 59.2852 149.622 59.0384 149.727C58.7917 149.831 58.5322 149.882 58.2575 149.882H51.4076C51.1889 149.882 51.082 149.773 51.082 149.556V147.478C51.082 147.387 51.1126 147.31 51.1761 147.247C51.2397 147.183 51.316 147.153 51.4076 147.153H57.2452C57.3368 147.153 57.4131 147.125 57.4767 147.066C57.5402 147.01 57.5708 146.934 57.5708 146.842V145.418C57.5708 145.326 57.5402 145.25 57.4767 145.186C57.4131 145.123 57.3368 145.092 57.2452 145.092H53.0915C52.8168 145.092 52.5573 145.041 52.3106 144.937C52.0639 144.833 51.8502 144.69 51.6671 144.507C51.4839 144.324 51.3415 144.113 51.2372 143.871C51.1329 143.63 51.082 143.373 51.082 143.098V139.87C51.082 139.596 51.1329 139.336 51.2372 139.089C51.3389 138.843 51.4839 138.632 51.6671 138.454C51.8502 138.275 52.0639 138.133 52.3106 138.024C52.5573 137.914 52.8168 137.861 53.0915 137.861H59.5624C59.7812 137.861 59.888 137.97 59.888 138.186V140.298C59.888 140.389 59.8575 140.463 59.7939 140.521C59.7303 140.58 59.654 140.608 59.5624 140.608H54.086C53.9945 140.608 53.9207 140.638 53.8622 140.702C53.8062 140.766 53.7757 140.842 53.7757 140.934V142.325C53.7757 142.416 53.8037 142.493 53.8622 142.556C53.9181 142.62 53.9945 142.65 54.086 142.65H58.2575C58.5322 142.65 58.7917 142.701 59.0384 142.806V142.806Z" fill="white"/>
<path d="M70.9245 137.863C71.1992 137.863 71.4587 137.917 71.7054 138.026C71.9521 138.136 72.1632 138.278 72.3413 138.456C72.5193 138.634 72.6618 138.845 72.7712 139.092C72.8805 139.339 72.9339 139.598 72.9339 139.873V147.872C72.9339 148.147 72.8805 148.407 72.7712 148.653C72.6618 148.9 72.5193 149.114 72.3413 149.297C72.1632 149.48 71.9521 149.622 71.7054 149.727C71.4587 149.831 71.1992 149.882 70.9245 149.882H64.8478C64.5731 149.882 64.3137 149.831 64.0669 149.727C63.8202 149.622 63.6065 149.48 63.4234 149.297C63.2403 149.114 63.0978 148.9 62.9935 148.653C62.8918 148.407 62.8384 148.147 62.8384 147.872V139.873C62.8384 139.598 62.8893 139.339 62.9935 139.092C63.0978 138.845 63.2403 138.634 63.4234 138.456C63.6065 138.278 63.8202 138.136 64.0669 138.026C64.3137 137.917 64.5731 137.863 64.8478 137.863H70.9245ZM69.8943 140.781H65.8602V146.962H69.8943V140.781Z" fill="white"/>
<path d="M85.6293 137.957C85.6929 138.021 85.7234 138.097 85.7234 138.189V149.554C85.7234 149.645 85.6929 149.722 85.6293 149.785C85.5657 149.849 85.4894 149.879 85.3978 149.879H82.9254C82.8339 149.879 82.7423 149.854 82.6507 149.803C82.5591 149.752 82.4905 149.686 82.4447 149.605L78.6496 142.6V149.551C78.6496 149.77 78.5403 149.877 78.324 149.877H75.956C75.7372 149.877 75.6304 149.767 75.6304 149.551V138.186C75.6304 137.97 75.7397 137.861 75.956 137.861H78.3927C78.4843 137.861 78.5759 137.886 78.6674 137.937C78.759 137.988 78.8277 138.054 78.8735 138.136L82.6838 145.156V138.186C82.6838 138.095 82.7143 138.019 82.7779 137.955C82.8415 137.891 82.9178 137.861 83.0094 137.861H85.3953C85.4868 137.861 85.5631 137.891 85.6267 137.955L85.6293 137.957Z" fill="white"/>
<path d="M20.7365 40.0618C20.8077 40.0923 20.8687 40.1356 20.9196 40.1864C20.9705 40.2373 21.0112 40.2983 21.0442 40.3696C21.0773 40.4408 21.09 40.5145 21.09 40.5934V43.3786C21.09 43.4041 21.0798 43.427 21.062 43.4448C21.0442 43.4626 21.0213 43.4728 20.9959 43.4728H20.3091C20.2837 43.4728 20.2608 43.4626 20.2455 43.4448C20.2303 43.427 20.2201 43.4041 20.2201 43.3786V40.8554H19.6681V43.3786C19.6681 43.4041 19.6605 43.427 19.6427 43.4448C19.6249 43.4626 19.6045 43.4728 19.5791 43.4728H18.9559C18.9305 43.4728 18.9076 43.4626 18.8898 43.4448C18.872 43.427 18.8618 43.4041 18.8618 43.3786V40.8554H18.3099V43.3786C18.3099 43.4422 18.2793 43.4728 18.2157 43.4728H17.5341C17.4705 43.4728 17.4399 43.4422 17.4399 43.3786V40.1076C17.4399 40.044 17.4705 40.0135 17.5341 40.0135H20.5126C20.5915 40.0135 20.6678 40.0287 20.7365 40.0592V40.0618Z" fill="white"/>
<path d="M24.1931 40.016C24.272 40.016 24.3483 40.0313 24.4195 40.0618C24.4907 40.0923 24.5518 40.1355 24.6026 40.1864C24.6535 40.2373 24.6942 40.2983 24.7273 40.3696C24.7603 40.4408 24.7731 40.5145 24.7731 40.5934V43.3786C24.7731 43.4041 24.7629 43.427 24.7451 43.4448C24.7273 43.4626 24.7044 43.4727 24.6789 43.4727H23.9922C23.9667 43.4727 23.9438 43.4626 23.926 43.4448C23.9082 43.427 23.8981 43.4041 23.8981 43.3786V42.4935C23.8981 42.468 23.8904 42.4451 23.8726 42.4273C23.8548 42.4095 23.8345 42.3993 23.809 42.3993H22.8297C22.8043 42.3993 22.7814 42.4095 22.7636 42.4273C22.7458 42.4451 22.7356 42.468 22.7356 42.4935V43.3786C22.7356 43.4422 22.7051 43.4727 22.6415 43.4727H21.9598C21.8988 43.4727 21.8657 43.4422 21.8657 43.3786V40.5934C21.8657 40.5145 21.881 40.4382 21.909 40.3696C21.9395 40.2983 21.9802 40.2373 22.0336 40.1864C22.087 40.1355 22.1481 40.0948 22.2193 40.0618C22.2905 40.0313 22.3643 40.016 22.4431 40.016H24.1931V40.016ZM23.8981 41.6617V40.7918H22.7382V41.6617H23.8981Z" fill="white"/>
<path d="M27.8815 40.044C27.8993 40.0618 27.9095 40.0847 27.9095 40.1101V42.8954C27.9095 42.9742 27.8942 43.0505 27.8637 43.1192C27.8332 43.1904 27.79 43.2515 27.7391 43.3049C27.6882 43.3583 27.6272 43.399 27.5559 43.4295C27.4847 43.46 27.411 43.4728 27.3321 43.4728H25.8441C25.7652 43.4728 25.6889 43.4575 25.6203 43.4295C25.549 43.399 25.488 43.3583 25.4346 43.3049C25.3812 43.2515 25.3405 43.1904 25.3099 43.1192C25.2794 43.048 25.2642 42.9742 25.2642 42.8954V41.8372C25.2642 41.7736 25.2947 41.7431 25.3583 41.7431H26.04C26.101 41.7431 26.1341 41.7736 26.1341 41.8372V42.5443C26.1341 42.5698 26.1417 42.5927 26.1621 42.6079C26.1799 42.6232 26.2028 42.6334 26.2282 42.6334H26.9455C26.9709 42.6334 26.9938 42.6257 27.0116 42.6079C27.0294 42.5901 27.0396 42.5698 27.0396 42.5443V40.1076C27.0396 40.0821 27.0472 40.0592 27.065 40.0414C27.0828 40.0236 27.1032 40.0135 27.1286 40.0135H27.8154C27.8408 40.0135 27.8637 40.0236 27.8815 40.0414V40.044Z" fill="white"/>
<path d="M31.0047 40.016C31.0836 40.016 31.1599 40.0313 31.2286 40.0618C31.2998 40.0923 31.3609 40.1355 31.4117 40.1864C31.4626 40.2373 31.5033 40.2983 31.5364 40.3696C31.5694 40.4408 31.5821 40.5145 31.5821 40.5934V42.8953C31.5821 42.9742 31.5669 43.0505 31.5364 43.1192C31.5058 43.1879 31.4651 43.2515 31.4117 43.3049C31.3609 43.3583 31.2998 43.399 31.2286 43.4295C31.1574 43.46 31.0836 43.4727 31.0047 43.4727H29.2547C29.1759 43.4727 29.0996 43.4575 29.0309 43.4295C28.9597 43.399 28.8986 43.3583 28.8452 43.3049C28.7918 43.2515 28.7511 43.1904 28.7206 43.1192C28.6901 43.048 28.6748 42.9742 28.6748 42.8953V40.5934C28.6748 40.5145 28.6901 40.4382 28.7206 40.3696C28.7511 40.3009 28.7918 40.2373 28.8452 40.1864C28.8986 40.1355 28.9597 40.0948 29.0309 40.0618C29.1021 40.0313 29.1759 40.016 29.2547 40.016H31.0047ZM30.7097 40.8554H29.5498V42.6334H30.7097V40.8554Z" fill="white"/>
<path d="M35.3726 43.3939C35.3853 43.4168 35.3878 43.4372 35.3777 43.4499C35.3675 43.4651 35.3497 43.4728 35.3242 43.4728H34.5383C34.5128 43.4728 34.4849 43.4651 34.4594 43.4499C34.434 43.4346 34.4136 43.4168 34.4009 43.3939L33.8769 42.4553C33.8693 42.4426 33.8591 42.435 33.8413 42.435H33.2537C33.2385 42.435 33.2283 42.4426 33.2283 42.4604V43.3786C33.2283 43.4422 33.1978 43.4728 33.1342 43.4728H32.4525C32.3889 43.4728 32.3584 43.4422 32.3584 43.3786V40.1076C32.3584 40.044 32.3889 40.0135 32.4525 40.0135H34.6858C34.7646 40.0135 34.841 40.0287 34.9096 40.0592C34.9809 40.0898 35.0419 40.133 35.0928 40.1839C35.1436 40.2348 35.1843 40.2958 35.2174 40.367C35.2479 40.4382 35.2632 40.512 35.2632 40.5909V41.8906C35.2632 42.0153 35.225 42.1297 35.1513 42.2289C35.0775 42.3307 34.9834 42.3968 34.8664 42.435L34.8511 42.4401C34.8282 42.4477 34.8232 42.4553 34.8359 42.4706L34.841 42.4808L35.37 43.3939H35.3726ZM34.3882 40.8198H33.1978V41.6592H34.3882V40.8198Z" fill="white"/>
<path d="M40.0324 42.6334C40.0578 42.6334 40.0807 42.6435 40.096 42.6614C40.1112 42.6792 40.1214 42.702 40.1214 42.7275V43.3786C40.1214 43.4041 40.1138 43.427 40.096 43.4448C40.0782 43.4626 40.0578 43.4728 40.0324 43.4728H37.8983C37.8347 43.4728 37.8042 43.4422 37.8042 43.3786V40.1076C37.8042 40.044 37.8347 40.0135 37.8983 40.0135H38.58C38.6436 40.0135 38.6741 40.044 38.6741 40.1076V42.5443C38.6741 42.5698 38.6817 42.5927 38.7021 42.6079C38.7224 42.6232 38.7428 42.6334 38.7682 42.6334H40.0324V42.6334Z" fill="white"/>
<path d="M43.2218 40.044C43.2396 40.0618 43.2497 40.0847 43.2497 40.1101V40.7333C43.2497 40.7587 43.2396 40.7816 43.2218 40.7969C43.204 40.8121 43.1811 40.8223 43.1556 40.8223H41.4997C41.4845 40.8223 41.4743 40.83 41.4743 40.8478V41.387C41.4743 41.3997 41.4819 41.4074 41.4997 41.4074H42.914C42.9394 41.4074 42.9623 41.4175 42.9776 41.4353C42.9928 41.4531 43.003 41.476 43.003 41.5015V41.9949C43.003 42.0204 42.9954 42.0433 42.9776 42.0611C42.9598 42.0789 42.9394 42.089 42.914 42.089H41.4997C41.4845 42.089 41.4743 42.0967 41.4743 42.1145V42.6486C41.4743 42.6639 41.4819 42.6741 41.4997 42.6741H43.1556C43.1811 42.6741 43.204 42.6842 43.2218 42.702C43.2396 42.7199 43.2497 42.7427 43.2497 42.7682V43.3863C43.2497 43.4117 43.2396 43.4346 43.2218 43.4524C43.204 43.4702 43.1811 43.4804 43.1556 43.4804H40.701C40.6375 43.4804 40.6069 43.4499 40.6069 43.3863V40.1152C40.6069 40.0898 40.6171 40.0669 40.6349 40.0491C40.6527 40.0313 40.6756 40.0211 40.701 40.0211H43.1556C43.1811 40.0211 43.204 40.0313 43.2218 40.0491V40.044Z" fill="white"/>
<path d="M46.3557 40.016C46.4346 40.016 46.5109 40.0313 46.5821 40.0618C46.6533 40.0923 46.7144 40.1355 46.7652 40.1864C46.8161 40.2373 46.8568 40.2983 46.8899 40.3696C46.9229 40.4408 46.9357 40.5145 46.9357 40.5934V43.3786C46.9357 43.4041 46.9255 43.427 46.9077 43.4448C46.8899 43.4626 46.867 43.4727 46.8415 43.4727H46.1548C46.1293 43.4727 46.1064 43.4626 46.0886 43.4448C46.0708 43.427 46.0607 43.4041 46.0607 43.3786V42.4935C46.0607 42.468 46.053 42.4451 46.0352 42.4273C46.0174 42.4095 45.9971 42.3993 45.9716 42.3993H44.9923C44.9669 42.3993 44.944 42.4095 44.9262 42.4273C44.9084 42.4451 44.8982 42.468 44.8982 42.4935V43.3786C44.8982 43.4422 44.8677 43.4727 44.8041 43.4727H44.1224C44.0614 43.4727 44.0283 43.4422 44.0283 43.3786V40.5934C44.0283 40.5145 44.0436 40.4382 44.0716 40.3696C44.1021 40.2983 44.1428 40.2373 44.1962 40.1864C44.2496 40.1355 44.3107 40.0948 44.3819 40.0618C44.4531 40.0313 44.5269 40.016 44.6057 40.016H46.3557V40.016ZM46.0607 41.6617V40.7918H44.9008V41.6617H46.0607Z" fill="white"/>
<path d="M50.583 41.6134C50.6008 41.6312 50.611 41.6541 50.611 41.6795V42.8953C50.611 42.9742 50.5957 43.0505 50.5652 43.1192C50.5346 43.1879 50.4939 43.2515 50.4405 43.3049C50.3897 43.3583 50.3286 43.399 50.2574 43.4295C50.1862 43.46 50.1124 43.4727 50.0336 43.4727H48.2836C48.2047 43.4727 48.1284 43.4575 48.0597 43.4295C47.9885 43.399 47.9275 43.3583 47.874 43.3049C47.8206 43.2515 47.7799 43.1904 47.7494 43.1192C47.7189 43.048 47.7036 42.9742 47.7036 42.8953V40.5934C47.7036 40.5145 47.7189 40.4382 47.7494 40.3696C47.7799 40.3009 47.8206 40.2373 47.874 40.1864C47.9275 40.1355 47.9885 40.0948 48.0597 40.0618C48.1309 40.0313 48.2047 40.016 48.2836 40.016H50.3235C50.349 40.016 50.3719 40.0262 50.3897 40.044C50.4075 40.0618 50.4176 40.0847 50.4176 40.1101V40.7613C50.4176 40.7867 50.4075 40.8096 50.3897 40.8274C50.3719 40.8452 50.349 40.8554 50.3235 40.8554H48.6676C48.6422 40.8554 48.6193 40.863 48.6015 40.8808C48.5837 40.8986 48.5735 40.919 48.5735 40.9444V42.5443C48.5735 42.5698 48.5837 42.5927 48.6015 42.6079C48.6193 42.6232 48.6422 42.6334 48.6676 42.6334H49.6469C49.6724 42.6334 49.6953 42.6257 49.7105 42.6079C49.7258 42.5901 49.736 42.5698 49.736 42.5443V41.6795C49.736 41.6541 49.7436 41.6312 49.7639 41.6134C49.7843 41.5956 49.8046 41.5854 49.8301 41.5854H50.5168C50.5423 41.5854 50.5652 41.5956 50.583 41.6134V41.6134Z" fill="white"/>
<path d="M54.228 40.044C54.2458 40.0618 54.256 40.0847 54.256 40.1101V42.8953C54.256 42.9742 54.2407 43.0505 54.2102 43.1192C54.1797 43.1879 54.139 43.2515 54.0856 43.3049C54.0347 43.3583 53.9736 43.399 53.9024 43.4295C53.8312 43.46 53.7574 43.4727 53.676 43.4727H51.926C51.8472 43.4727 51.7709 43.4575 51.7022 43.4295C51.631 43.399 51.5699 43.3583 51.5165 43.3049C51.4631 43.2515 51.4224 43.1904 51.3919 43.1192C51.3614 43.048 51.3486 42.9742 51.3486 42.8953V40.1101C51.3486 40.0465 51.3792 40.016 51.4427 40.016H52.1244C52.1855 40.016 52.2185 40.0465 52.2185 40.1101V42.5469C52.2185 42.5723 52.2287 42.5952 52.2465 42.6105C52.2643 42.6257 52.2872 42.6359 52.3127 42.6359H53.2919C53.3174 42.6359 53.3403 42.6283 53.3555 42.6105C53.3708 42.5927 53.381 42.5723 53.381 42.5469V40.1101C53.381 40.0847 53.3911 40.0618 53.409 40.044C53.4268 40.0262 53.4497 40.016 53.4751 40.016H54.1619C54.1873 40.016 54.2102 40.0262 54.228 40.044V40.044Z" fill="white"/>
<path d="M57.6519 40.044C57.6697 40.0618 57.6799 40.0847 57.6799 40.1101V40.7333C57.6799 40.7587 57.6697 40.7816 57.6519 40.7969C57.6341 40.8121 57.6112 40.8223 57.5858 40.8223H55.9299C55.9147 40.8223 55.9045 40.83 55.9045 40.8478V41.387C55.9045 41.3997 55.9121 41.4074 55.9299 41.4074H57.3442C57.3696 41.4074 57.3925 41.4175 57.4077 41.4353C57.423 41.4531 57.4332 41.476 57.4332 41.5015V41.9949C57.4332 42.0204 57.4256 42.0433 57.4077 42.0611C57.3899 42.0789 57.3696 42.089 57.3442 42.089H55.9299C55.9147 42.089 55.9045 42.0967 55.9045 42.1145V42.6486C55.9045 42.6639 55.9121 42.6741 55.9299 42.6741H57.5858C57.6112 42.6741 57.6341 42.6842 57.6519 42.702C57.6697 42.7199 57.6799 42.7427 57.6799 42.7682V43.3863C57.6799 43.4117 57.6697 43.4346 57.6519 43.4524C57.6341 43.4702 57.6112 43.4804 57.5858 43.4804H55.1312C55.0676 43.4804 55.0371 43.4499 55.0371 43.3863V40.1152C55.0371 40.0898 55.0473 40.0669 55.0651 40.0491C55.0829 40.0313 55.1058 40.0211 55.1312 40.0211H57.5858C57.6112 40.0211 57.6341 40.0313 57.6519 40.0491V40.044Z" fill="white"/>
<path d="M62.9553 40.016C62.9808 40.016 63.0036 40.0262 63.0215 40.044C63.0393 40.0618 63.0494 40.0847 63.0494 40.1101V43.3812C63.0494 43.4066 63.0418 43.4295 63.0215 43.4473C63.0011 43.4651 62.9808 43.4753 62.9553 43.4753H62.2685C62.2431 43.4753 62.2202 43.4651 62.2024 43.4473C62.1846 43.4295 62.1744 43.4066 62.1744 43.3812V42.2391C62.1744 42.2137 62.1668 42.1908 62.149 42.1755C62.1312 42.1602 62.1108 42.1501 62.0854 42.1501H61.1061C61.0807 42.1501 61.0578 42.1577 61.04 42.1755C61.0222 42.1933 61.012 42.2137 61.012 42.2391V43.3812C61.012 43.4448 60.9815 43.4753 60.9179 43.4753H60.2362C60.1726 43.4753 60.1421 43.4448 60.1421 43.3812V40.1101C60.1421 40.0465 60.1726 40.016 60.2362 40.016H60.9179C60.9815 40.016 61.012 40.0465 61.012 40.1101V41.2166C61.012 41.2802 61.0425 41.3107 61.1061 41.3107H62.0854C62.1108 41.3107 62.1337 41.3005 62.149 41.2827C62.1643 41.2649 62.1744 41.242 62.1744 41.2166V40.1101C62.1744 40.0847 62.1846 40.0618 62.2024 40.044C62.2202 40.0262 62.2431 40.016 62.2685 40.016H62.9553Z" fill="white"/>
<path d="M66.155 40.016C66.2339 40.016 66.3102 40.0313 66.3814 40.0618C66.4526 40.0923 66.5137 40.1355 66.5646 40.1864C66.6154 40.2373 66.6561 40.2983 66.6892 40.3696C66.7223 40.4408 66.735 40.5145 66.735 40.5934V43.3786C66.735 43.4041 66.7248 43.427 66.707 43.4448C66.6892 43.4626 66.6663 43.4727 66.6409 43.4727H65.9541C65.9287 43.4727 65.9058 43.4626 65.888 43.4448C65.8701 43.427 65.86 43.4041 65.86 43.3786V42.4935C65.86 42.468 65.8523 42.4451 65.8345 42.4273C65.8167 42.4095 65.7964 42.3993 65.771 42.3993H64.7917C64.7662 42.3993 64.7433 42.4095 64.7255 42.4273C64.7077 42.4451 64.6975 42.468 64.6975 42.4935V43.3786C64.6975 43.4422 64.667 43.4727 64.6034 43.4727H63.9217C63.8607 43.4727 63.8276 43.4422 63.8276 43.3786V40.5934C63.8276 40.5145 63.8429 40.4382 63.8709 40.3696C63.9014 40.2983 63.9421 40.2373 63.9955 40.1864C64.0489 40.1355 64.11 40.0948 64.1812 40.0618C64.2524 40.0313 64.3262 40.016 64.405 40.016H66.155ZM65.86 41.6617V40.7918H64.7001V41.6617H65.86Z" fill="white"/>
<path d="M68.3959 40.8808C68.3781 40.8961 68.368 40.919 68.368 40.9444V42.5443C68.368 42.5698 68.3756 42.5927 68.3959 42.6079C68.4163 42.6232 68.4366 42.6334 68.4621 42.6334H70.0493C70.0747 42.6334 70.0976 42.6435 70.1154 42.6613C70.1332 42.6791 70.1434 42.702 70.1434 42.7275V43.3786C70.1434 43.4041 70.1358 43.427 70.1154 43.4448C70.0951 43.4626 70.0747 43.4727 70.0493 43.4727H68.078C67.9991 43.4727 67.9228 43.4575 67.8541 43.4295C67.7829 43.399 67.7219 43.3583 67.6685 43.3049C67.615 43.2515 67.5744 43.1904 67.5438 43.1192C67.5133 43.048 67.498 42.9742 67.498 42.8953V40.5934C67.498 40.5145 67.5133 40.4382 67.5438 40.3696C67.5744 40.2983 67.615 40.2373 67.6685 40.1864C67.7219 40.1355 67.7829 40.0948 67.8541 40.0618C67.9254 40.0313 67.9991 40.016 68.078 40.016H70.0493C70.0747 40.016 70.0976 40.0262 70.1154 40.044C70.1332 40.0618 70.1434 40.0847 70.1434 40.1101V40.7613C70.1434 40.7867 70.1358 40.8096 70.1154 40.8274C70.0951 40.8452 70.0747 40.8554 70.0493 40.8554H68.4621C68.4366 40.8554 68.4137 40.863 68.3959 40.8808Z" fill="white"/>
<path d="M72.8957 41.4735C72.8957 41.4735 72.883 41.4938 72.8906 41.5091L74.0479 43.3964C74.0607 43.4193 74.0632 43.4397 74.053 43.4524C74.0429 43.4677 74.0251 43.4753 73.9996 43.4753H73.1806C73.1551 43.4753 73.1272 43.4677 73.1017 43.4524C73.0763 43.4371 73.0559 43.4193 73.0432 43.3964L72.2979 42.0483C72.2878 42.0331 72.2801 42.0305 72.2725 42.0432L71.863 42.4935C71.8477 42.5113 71.8325 42.5342 71.8223 42.5647C71.8096 42.5952 71.8045 42.6257 71.8045 42.6512V43.3812C71.8045 43.4448 71.774 43.4753 71.7104 43.4753H71.0287C70.9651 43.4753 70.9346 43.4448 70.9346 43.3812V40.1101C70.9346 40.0465 70.9651 40.016 71.0287 40.016H71.7104C71.774 40.016 71.8045 40.0465 71.8045 40.1101V41.5778L73.0788 40.0847C73.0941 40.0643 73.117 40.0491 73.1475 40.0363C73.178 40.0236 73.206 40.016 73.2314 40.016H74.0505C74.0759 40.016 74.0912 40.0236 74.0963 40.0363C74.1014 40.0491 74.0963 40.0669 74.0785 40.0847L72.8982 41.4735H72.8957Z" fill="white"/>
<path d="M75.5589 43.3812C75.5589 43.4448 75.5284 43.4753 75.4648 43.4753H74.7831C74.7195 43.4753 74.689 43.4448 74.689 43.3812V40.1101C74.689 40.0465 74.7195 40.016 74.7831 40.016H75.4648C75.5284 40.016 75.5589 40.0465 75.5589 40.1101V43.3812Z" fill="white"/>
<path d="M78.8858 40.0618C78.957 40.0923 79.0181 40.1356 79.069 40.1864C79.1198 40.2373 79.1605 40.2983 79.1936 40.3696C79.2241 40.4408 79.2394 40.5145 79.2394 40.5934V43.3786C79.2394 43.4041 79.2317 43.427 79.2114 43.4448C79.191 43.4626 79.1707 43.4728 79.1453 43.4728H78.4585C78.4331 43.4728 78.4102 43.4626 78.3949 43.4448C78.3796 43.427 78.3695 43.4041 78.3695 43.3786V40.9419C78.3695 40.9164 78.3593 40.8935 78.3415 40.8783C78.3237 40.863 78.3008 40.8528 78.2753 40.8528H77.2961C77.2706 40.8528 77.2477 40.8605 77.2299 40.8783C77.2121 40.8961 77.2019 40.9164 77.2019 40.9419V43.3786C77.2019 43.4422 77.1714 43.4728 77.1078 43.4728H76.4261C76.3626 43.4728 76.332 43.4422 76.332 43.3786V40.1076C76.332 40.044 76.3626 40.0135 76.4261 40.0135H78.6594C78.7383 40.0135 78.8146 40.0287 78.8833 40.0592L78.8858 40.0618Z" fill="white"/>
<path d="M82.8867 41.6134C82.9045 41.6312 82.9147 41.6541 82.9147 41.6795V42.8953C82.9147 42.9742 82.8994 43.0505 82.8689 43.1192C82.8384 43.1879 82.7977 43.2515 82.7442 43.3049C82.6934 43.3583 82.6323 43.399 82.5611 43.4295C82.4899 43.46 82.4161 43.4727 82.3373 43.4727H80.5873C80.5084 43.4727 80.4321 43.4575 80.3634 43.4295C80.2922 43.399 80.2312 43.3583 80.1777 43.3049C80.1243 43.2515 80.0836 43.1904 80.0531 43.1192C80.0226 43.048 80.0073 42.9742 80.0073 42.8953V40.5934C80.0073 40.5145 80.0226 40.4382 80.0531 40.3696C80.0836 40.3009 80.1243 40.2373 80.1777 40.1864C80.2312 40.1355 80.2922 40.0948 80.3634 40.0618C80.4346 40.0313 80.5084 40.016 80.5873 40.016H82.6272C82.6527 40.016 82.6756 40.0262 82.6934 40.044C82.7112 40.0618 82.7213 40.0847 82.7213 40.1101V40.7613C82.7213 40.7867 82.7112 40.8096 82.6934 40.8274C82.6756 40.8452 82.6527 40.8554 82.6272 40.8554H80.9714C80.9459 40.8554 80.923 40.863 80.9052 40.8808C80.8874 40.8986 80.8772 40.919 80.8772 40.9444V42.5443C80.8772 42.5698 80.8874 42.5927 80.9052 42.6079C80.923 42.6232 80.9459 42.6334 80.9714 42.6334H81.9506C81.9761 42.6334 81.999 42.6257 82.0142 42.6079C82.0295 42.5901 82.0397 42.5698 82.0397 42.5443V41.6795C82.0397 41.6541 82.0473 41.6312 82.0676 41.6134C82.088 41.5956 82.1083 41.5854 82.1338 41.5854H82.8206C82.846 41.5854 82.8689 41.5956 82.8867 41.6134V41.6134Z" fill="white"/>
<path d="M38.2799 16.2078C38.7276 16.4062 39.1117 16.6657 39.4347 16.9862C39.7577 17.3092 40.0172 17.6933 40.2156 18.1384C40.414 18.5861 40.5132 19.0567 40.5132 19.5552V37.6988C40.5132 37.8641 40.4547 38.0065 40.3402 38.1185C40.2258 38.2304 40.0859 38.2889 39.918 38.2889H35.5786C35.4107 38.2889 35.2759 38.2329 35.1716 38.1185C35.0673 38.004 35.0165 37.8641 35.0165 37.6988V21.2086H31.519V37.7013C31.519 37.8666 31.4656 38.0091 31.3638 38.121C31.2595 38.2355 31.1247 38.2914 30.9569 38.2914H27.0219C26.854 38.2914 26.7141 38.2355 26.5997 38.121C26.4852 38.0065 26.4267 37.8666 26.4267 37.7013V21.2086H22.9292V37.7013C22.9292 38.0956 22.7308 38.294 22.3366 38.294H18.0277C17.6309 38.294 17.4351 38.0956 17.4351 37.7013V16.5054C17.4351 16.1112 17.6335 15.9128 18.0277 15.9128H36.8555C37.354 15.9128 37.8271 16.012 38.2748 16.2078H38.2799Z" fill="white"/>
<path d="M38.2801 16.2079C38.7278 16.4063 39.1118 16.6657 39.4349 16.9862C39.7579 17.3092 40.0174 17.6933 40.2158 18.1384C40.4142 18.5861 40.5134 19.0567 40.5134 19.5552V21.173L35.0192 21.206H22.9371L17.4429 21.173V16.5029C17.4429 16.1086 17.6413 15.9102 18.0355 15.9102H36.8633C37.3618 15.9102 37.8349 16.0094 38.2826 16.2053L38.2801 16.2079Z" fill="white"/>
<path d="M59.435 32.8608C59.6105 32.8608 59.7555 32.9193 59.8649 33.0363C59.9742 33.1533 60.0302 33.2983 60.0302 33.4687V37.6886C60.0302 37.859 59.9742 38.004 59.8649 38.121C59.7555 38.238 59.6105 38.2965 59.435 38.2965H44.5702C44.1505 38.2965 43.9419 38.093 43.9419 37.6886V16.5207C43.9419 16.1163 44.1505 15.9128 44.5702 15.9128H49.1334C49.5531 15.9128 49.7617 16.1163 49.7617 16.5207V32.286C49.7617 32.4564 49.8227 32.5963 49.9448 32.7006C50.0669 32.8074 50.2144 32.8608 50.3925 32.8608H59.435V32.8608Z" fill="white"/>
<path d="M49.7158 38.2965H44.5701C44.1529 38.2965 43.9443 38.093 43.9443 37.6886V16.5207C43.9443 16.1163 44.1529 15.9128 44.5701 15.9128H49.1231C49.5403 15.9128 49.7488 16.1163 49.7488 16.5207V32.286C49.7488 32.4564 49.7158 38.2965 49.7158 38.2965V38.2965Z" fill="white"/>
<path d="M82.2819 15.9128C82.4599 15.9128 82.61 15.9713 82.7321 16.0883C82.8542 16.2053 82.9152 16.3503 82.9152 16.5207V37.7496C82.9152 37.92 82.8542 38.065 82.7321 38.182C82.61 38.299 82.4599 38.3575 82.2819 38.3575H77.6576C77.4795 38.3575 77.3295 38.299 77.2074 38.182C77.0853 38.065 77.0242 37.92 77.0242 37.7496V30.3426C77.0242 30.1722 76.9683 30.0323 76.8589 29.9255C76.747 29.8187 76.6045 29.7653 76.4265 29.7653H69.9403C69.7622 29.7653 69.6122 29.8187 69.4901 29.9255C69.368 30.0323 69.3069 30.1722 69.3069 30.3426V37.7496C69.3069 38.1566 69.0958 38.3601 68.6761 38.3601H64.0849C63.6627 38.3601 63.4541 38.1566 63.4541 37.7496V16.5232C63.4541 16.1163 63.6652 15.9128 64.0849 15.9128H68.6761C69.0958 15.9128 69.3069 16.1163 69.3069 16.5232V23.7064C69.3069 24.1134 69.5181 24.3168 69.9378 24.3168H76.4239C76.602 24.3168 76.7444 24.2583 76.8563 24.1413C76.9683 24.0243 77.0217 23.8794 77.0217 23.7089V16.5258C77.0217 16.3554 77.0827 16.2104 77.2048 16.0934C77.3269 15.9764 77.477 15.9179 77.655 15.9179H82.2793L82.2819 15.9128Z" fill="white"/>
<path d="M69.3118 30.3426V37.7496C69.3118 38.1566 69.1007 38.3601 68.681 38.3601H64.0898C63.6676 38.3601 63.459 38.1566 63.459 37.7496V16.5232C63.459 16.1163 63.6701 15.9128 64.0898 15.9128H68.681C69.1007 15.9128 69.3118 16.1163 69.3118 16.5232V30.3452V30.3426Z" fill="white"/>
<path d="M82.282 15.9128C82.4601 15.9128 82.6102 15.9713 82.7323 16.0883C82.8544 16.2053 82.9154 16.3503 82.9154 16.5207V37.7496C82.9154 37.92 82.8544 38.065 82.7323 38.182C82.6102 38.299 82.4601 38.3575 82.282 38.3575H77.6578C77.4797 38.3575 77.3296 38.299 77.2076 38.182C77.0855 38.065 77.0244 37.92 77.0244 37.7496V16.5232C77.0244 16.3528 77.0855 16.2078 77.2076 16.0908C77.3296 15.9738 77.4797 15.9153 77.6578 15.9153H82.282V15.9128Z" fill="white"/>
<path d="M19.5639 124.085V126.666C19.6224 126.956 19.7954 127.101 20.0853 127.101H29.8273C29.9825 127.101 30.1071 127.155 30.2038 127.262C30.3005 127.368 30.3488 127.498 30.3488 127.653V131.161C30.3488 131.316 30.3005 131.446 30.2038 131.553C30.1071 131.66 29.9825 131.713 29.8273 131.713H15.5603C15.194 131.713 15.0083 131.53 15.0083 131.161V122.869C15.0083 122.406 15.0948 121.968 15.2703 121.564C15.4433 121.157 15.6849 120.801 15.9952 120.491C16.303 120.183 16.6667 119.939 17.0839 119.766C17.4985 119.593 17.9385 119.504 18.404 119.504H25.2768C25.432 119.504 25.5617 119.45 25.6685 119.343C25.7754 119.237 25.8288 119.107 25.8288 118.952V116.604C25.8288 116.449 25.7754 116.319 25.6685 116.212C25.5617 116.105 25.432 116.052 25.2768 116.052H16.1707C16.0156 116.052 15.8909 116.004 15.7943 115.907C15.6976 115.81 15.6493 115.686 15.6493 115.531V111.964C15.6493 111.809 15.6976 111.679 15.7943 111.573C15.8909 111.466 16.0156 111.412 16.1707 111.412H26.9861C27.4491 111.412 27.884 111.504 28.291 111.687C28.698 111.87 29.0541 112.112 29.3644 112.412C29.6722 112.712 29.9164 113.068 30.0893 113.485C30.2623 113.9 30.3513 114.34 30.3513 114.806V115.617C30.3691 115.637 30.3793 115.665 30.3793 115.703V123.098C30.3793 123.253 30.3259 123.378 30.2191 123.474C30.1122 123.571 29.9825 123.619 29.8273 123.619H20.0853C19.8132 123.619 19.6402 123.774 19.5639 124.082V124.085Z" fill="white"/>
<path d="M45.5164 111.412C45.9793 111.412 46.4194 111.504 46.8365 111.687C47.2511 111.87 47.6098 112.112 47.9099 112.412C48.2101 112.712 48.4517 113.068 48.6348 113.485C48.818 113.9 48.9095 114.34 48.9095 114.806V128.317C48.9095 128.78 48.818 129.22 48.6348 129.637C48.4517 130.052 48.2101 130.416 47.9099 130.723C47.6098 131.034 47.2537 131.275 46.8365 131.448C46.4194 131.621 45.9819 131.71 45.5164 131.71H36.7893C36.3263 131.71 35.8863 131.624 35.4691 131.448C35.052 131.275 34.6908 131.034 34.3805 130.723C34.0702 130.416 33.8285 130.052 33.6555 129.637C33.4826 129.223 33.3936 128.783 33.3936 128.317V114.806C33.3936 114.343 33.48 113.903 33.6555 113.485C33.8285 113.071 34.0702 112.712 34.3805 112.412C34.6883 112.112 35.052 111.87 35.4691 111.687C35.8837 111.504 36.3238 111.412 36.7893 111.412H45.5164ZM43.98 116.342H38.3256V126.781H43.98V116.342Z" fill="white"/>
<path d="M56.4184 124.085V126.666C56.4769 126.956 56.6499 127.101 56.9398 127.101H66.6818C66.837 127.101 66.9616 127.155 67.0583 127.262C67.1549 127.368 67.2033 127.498 67.2033 127.653V131.161C67.2033 131.316 67.1549 131.446 67.0583 131.553C66.9616 131.66 66.837 131.713 66.6818 131.713H52.4148C52.0485 131.713 51.8628 131.53 51.8628 131.161V122.869C51.8628 122.406 51.9493 121.968 52.1248 121.564C52.3003 121.16 52.5394 120.801 52.8497 120.491C53.16 120.18 53.5212 119.939 53.9384 119.766C54.353 119.593 54.793 119.504 55.2585 119.504H62.1313C62.2865 119.504 62.4162 119.45 62.523 119.343C62.6299 119.237 62.6833 119.107 62.6833 118.952V116.604C62.6833 116.449 62.6299 116.319 62.523 116.212C62.4162 116.105 62.2865 116.052 62.1313 116.052H53.0252C52.8701 116.052 52.7454 116.004 52.6488 115.907C52.5521 115.81 52.5038 115.686 52.5038 115.531V111.964C52.5038 111.809 52.5521 111.679 52.6488 111.573C52.7454 111.466 52.8701 111.412 53.0252 111.412H63.8406C64.3036 111.412 64.7385 111.504 65.1455 111.687C65.5525 111.87 65.9086 112.112 66.2189 112.412C66.5267 112.712 66.7709 113.068 66.9438 113.485C67.1168 113.9 67.2058 114.34 67.2058 114.806V115.617C67.2262 115.637 67.2363 115.665 67.2363 115.703V123.098C67.2363 123.253 67.1829 123.378 67.0761 123.474C66.9693 123.571 66.8395 123.619 66.6844 123.619H56.9424C56.6702 123.619 56.4972 123.774 56.4209 124.082L56.4184 124.085Z" fill="white"/>
<path d="M84.632 120.719C84.5353 120.816 84.4387 120.936 84.342 121.081C84.2453 121.226 84.197 121.376 84.197 121.531C84.2174 121.686 84.2733 121.841 84.37 121.994C84.4666 122.149 84.5633 122.284 84.66 122.401L84.9219 122.691L85.1534 123.009L85.5019 123.416C85.5985 123.533 85.685 123.68 85.7639 123.866C85.8402 124.049 85.8809 124.219 85.8809 124.375V128.317C85.8809 128.78 85.7893 129.22 85.6062 129.637C85.423 130.052 85.1814 130.416 84.8812 130.723C84.5811 131.034 84.225 131.275 83.8078 131.448C83.3907 131.621 82.9532 131.71 82.4877 131.71H70.8889C70.5226 131.71 70.3369 131.527 70.3369 131.158V127.796C70.3369 127.641 70.3903 127.516 70.4972 127.419C70.604 127.323 70.7337 127.274 70.8889 127.274H80.5164C80.6716 127.274 80.7962 127.221 80.8929 127.114C80.9895 127.007 81.0379 126.878 81.0379 126.722V124.23C81.0379 124.074 80.9895 123.945 80.8929 123.838C80.7962 123.731 80.669 123.678 80.5164 123.678H72.7457C72.5905 123.678 72.4659 123.629 72.3693 123.533C72.2726 123.436 72.2243 123.311 72.2243 123.156V119.967C72.2243 119.811 72.2726 119.687 72.3693 119.59C72.4659 119.493 72.5905 119.445 72.7457 119.445H80.5164C80.6716 119.445 80.7962 119.392 80.8929 119.285C80.9895 119.178 81.0379 119.048 81.0379 118.893V116.37C81.0379 116.215 80.9895 116.085 80.8929 115.978C80.7962 115.871 80.669 115.818 80.5164 115.818H70.8889C70.7337 115.818 70.604 115.77 70.4972 115.673C70.3903 115.576 70.3369 115.452 70.3369 115.297V111.962C70.3369 111.596 70.52 111.41 70.8889 111.41H82.4877C82.9506 111.41 83.3907 111.501 83.8078 111.685C84.2225 111.868 84.5811 112.109 84.8812 112.41C85.1814 112.71 85.423 113.066 85.6062 113.483C85.7893 113.898 85.8809 114.338 85.8809 114.803V118.573C85.8809 118.728 85.8478 118.896 85.7791 119.081C85.7105 119.265 85.6291 119.415 85.5324 119.532L84.9245 120.343L84.6345 120.719H84.632Z" fill="white"/>
<path d="M19.5639 124.085V126.666C19.6224 126.956 19.7954 127.101 20.0853 127.101H29.8273C29.9825 127.101 30.1071 127.155 30.2038 127.262C30.3005 127.368 30.3488 127.498 30.3488 127.653V131.161C30.3488 131.316 30.3005 131.446 30.2038 131.553C30.1071 131.66 29.9825 131.713 29.8273 131.713H15.5603C15.194 131.713 15.0083 131.53 15.0083 131.161V122.869C15.0083 122.406 15.0948 121.968 15.2703 121.564C15.4433 121.157 15.6849 120.801 15.9952 120.491C16.303 120.183 16.6667 119.939 17.0839 119.766C17.4985 119.593 17.9385 119.504 18.404 119.504H25.2768C25.432 119.504 25.5617 119.45 25.6685 119.343C25.7754 119.237 25.8288 119.107 25.8288 118.952V116.604C25.8288 116.449 25.7754 116.319 25.6685 116.212C25.5617 116.105 25.432 116.052 25.2768 116.052H16.1707C16.0156 116.052 15.8909 116.004 15.7943 115.907C15.6976 115.81 15.6493 115.686 15.6493 115.531V111.964C15.6493 111.809 15.6976 111.679 15.7943 111.573C15.8909 111.466 16.0156 111.412 16.1707 111.412H26.9861C27.4491 111.412 27.884 111.504 28.291 111.687C28.698 111.87 29.0541 112.112 29.3644 112.412C29.6722 112.712 29.9164 113.068 30.0893 113.485C30.2623 113.9 30.3513 114.34 30.3513 114.806V115.617C30.3691 115.637 30.3793 115.665 30.3793 115.703V123.098C30.3793 123.253 30.3259 123.378 30.2191 123.474C30.1122 123.571 29.9825 123.619 29.8273 123.619H20.0853C19.8132 123.619 19.6402 123.774 19.5639 124.082V124.085Z" fill="white"/>
<path d="M45.5164 111.412C45.9793 111.412 46.4194 111.504 46.8365 111.687C47.2511 111.87 47.6098 112.112 47.9099 112.412C48.2101 112.712 48.4517 113.068 48.6348 113.485C48.818 113.9 48.9095 114.34 48.9095 114.806V128.317C48.9095 128.78 48.818 129.22 48.6348 129.637C48.4517 130.052 48.2101 130.416 47.9099 130.723C47.6098 131.034 47.2537 131.275 46.8365 131.448C46.4194 131.621 45.9819 131.71 45.5164 131.71H36.7893C36.3263 131.71 35.8863 131.624 35.4691 131.448C35.052 131.275 34.6908 131.034 34.3805 130.723C34.0702 130.416 33.8285 130.052 33.6555 129.637C33.4826 129.223 33.3936 128.783 33.3936 128.317V114.806C33.3936 114.343 33.48 113.903 33.6555 113.485C33.8285 113.071 34.0702 112.712 34.3805 112.412C34.6883 112.112 35.052 111.87 35.4691 111.687C35.8837 111.504 36.3238 111.412 36.7893 111.412H45.5164V111.412ZM43.98 116.342H38.3256V126.781H43.98V116.342Z" fill="white"/>
<path d="M56.4184 124.085V126.666C56.4769 126.956 56.6499 127.101 56.9398 127.101H66.6818C66.837 127.101 66.9616 127.155 67.0583 127.262C67.1549 127.368 67.2033 127.498 67.2033 127.653V131.161C67.2033 131.316 67.1549 131.446 67.0583 131.553C66.9616 131.66 66.837 131.713 66.6818 131.713H52.4148C52.0485 131.713 51.8628 131.53 51.8628 131.161V122.869C51.8628 122.406 51.9493 121.968 52.1248 121.564C52.3003 121.16 52.5394 120.801 52.8497 120.491C53.16 120.18 53.5212 119.939 53.9384 119.766C54.353 119.593 54.793 119.504 55.2585 119.504H62.1313C62.2865 119.504 62.4162 119.45 62.523 119.343C62.6299 119.237 62.6833 119.107 62.6833 118.952V116.604C62.6833 116.449 62.6299 116.319 62.523 116.212C62.4162 116.105 62.2865 116.052 62.1313 116.052H53.0252C52.8701 116.052 52.7454 116.004 52.6488 115.907C52.5521 115.81 52.5038 115.686 52.5038 115.531V111.964C52.5038 111.809 52.5521 111.679 52.6488 111.573C52.7454 111.466 52.8701 111.412 53.0252 111.412H63.8406C64.3036 111.412 64.7385 111.504 65.1455 111.687C65.5525 111.87 65.9086 112.112 66.2189 112.412C66.5267 112.712 66.7709 113.068 66.9438 113.485C67.1168 113.9 67.2058 114.34 67.2058 114.806V115.617C67.2262 115.637 67.2363 115.665 67.2363 115.703V123.098C67.2363 123.253 67.1829 123.378 67.0761 123.474C66.9693 123.571 66.8395 123.619 66.6844 123.619H56.9424C56.6702 123.619 56.4972 123.774 56.4209 124.082L56.4184 124.085Z" fill="white"/>
<path d="M84.632 120.719C84.5353 120.816 84.4387 120.936 84.342 121.081C84.2453 121.226 84.197 121.376 84.197 121.531C84.2174 121.686 84.2733 121.841 84.37 121.994C84.4666 122.149 84.5633 122.284 84.66 122.401L84.9219 122.691L85.1534 123.009L85.5019 123.416C85.5985 123.533 85.685 123.68 85.7639 123.866C85.8402 124.049 85.8809 124.219 85.8809 124.375V128.317C85.8809 128.78 85.7893 129.22 85.6062 129.637C85.423 130.052 85.1814 130.416 84.8812 130.723C84.5811 131.034 84.225 131.275 83.8078 131.448C83.3907 131.621 82.9532 131.71 82.4877 131.71H70.8889C70.5226 131.71 70.3369 131.527 70.3369 131.158V127.796C70.3369 127.641 70.3903 127.516 70.4972 127.419C70.604 127.323 70.7337 127.274 70.8889 127.274H80.5164C80.6716 127.274 80.7962 127.221 80.8929 127.114C80.9895 127.007 81.0379 126.878 81.0379 126.722V124.23C81.0379 124.074 80.9895 123.945 80.8929 123.838C80.7962 123.731 80.669 123.678 80.5164 123.678H72.7457C72.5905 123.678 72.4659 123.629 72.3693 123.533C72.2726 123.436 72.2243 123.311 72.2243 123.156V119.967C72.2243 119.811 72.2726 119.687 72.3693 119.59C72.4659 119.493 72.5905 119.445 72.7457 119.445H80.5164C80.6716 119.445 80.7962 119.392 80.8929 119.285C80.9895 119.178 81.0379 119.048 81.0379 118.893V116.37C81.0379 116.215 80.9895 116.085 80.8929 115.978C80.7962 115.871 80.669 115.818 80.5164 115.818H70.8889C70.7337 115.818 70.604 115.77 70.4972 115.673C70.3903 115.576 70.3369 115.452 70.3369 115.297V111.962C70.3369 111.596 70.52 111.41 70.8889 111.41H82.4877C82.9506 111.41 83.3907 111.501 83.8078 111.685C84.2224 111.868 84.5811 112.109 84.8812 112.41C85.1814 112.71 85.423 113.066 85.6062 113.483C85.7893 113.898 85.8809 114.338 85.8809 114.803V118.573C85.8809 118.728 85.8478 118.896 85.7791 119.081C85.7105 119.265 85.6291 119.415 85.5324 119.532L84.9245 120.343L84.6345 120.719H84.632Z" fill="white"/>
</g>
<defs>
<clipPath id="clip0_99_170">
<rect width="99.9102" height="175" fill="white" transform="translate(0.225098)"/>
</clipPath>
</defs>
</svg>
