<svg width="80" height="80" viewBox="0 0 80 80" fill="none" xmlns="http://www.w3.org/2000/svg">
<g clip-path="url(#clip0_560_272)">
<path d="M0.110092 18.1843C0.153809 18.0178 0.208992 17.8545 0.27523 17.6956C0.320267 17.5922 0.3703 17.4888 0.423676 17.3903C0.477051 17.2903 0.537094 17.1952 0.598816 17.1018C0.906067 16.6457 1.31641 16.2684 1.79662 16.0003C2.27683 15.7323 2.81341 15.5812 3.3629 15.5591C3.91239 15.5371 4.45937 15.6447 4.95951 15.8734C5.45966 16.102 5.89893 16.4453 6.24174 16.8753C6.58456 17.3053 6.8213 17.81 6.93279 18.3485C7.04428 18.887 7.02737 19.4442 6.88345 19.975C6.73952 20.5057 6.47264 20.9952 6.10439 21.4036C5.73613 21.812 5.27686 22.128 4.76378 22.3259C5.38427 25.5134 8.99712 29.0379 12.57 31.0612C13.1207 31.3717 13.6979 31.633 14.2947 31.8418C13.5566 29.6483 13.1567 27.3552 13.1087 25.0414C12.3294 24.7671 11.6721 24.2261 11.253 23.514C10.834 22.802 10.6802 21.9647 10.8187 21.1502C10.9573 20.3357 11.3793 19.5964 12.0103 19.063C12.6412 18.5295 13.4404 18.2363 14.2666 18.2351C15.0928 18.234 15.8928 18.5249 16.5253 19.0565C17.1577 19.5882 17.5819 20.3262 17.7228 21.1404C17.8637 21.9545 17.7122 22.7922 17.2952 23.5054C16.8782 24.2187 16.2225 24.7615 15.4439 25.0381C15.4933 27.5523 16.0121 30.0352 16.9734 32.3589C18.4796 35.9984 21.0116 39.0375 24.1691 40.7405L24.3593 40.8439C25.8938 41.6729 26.6828 42.0982 28.0739 42.2183C28.0139 41.6646 27.8954 41.0191 27.6919 40.0032C27.6335 39.7113 27.5151 39.2009 27.375 38.6105C26.7729 36.0484 26.3759 34.1353 26.1657 32.6925C25.3946 32.4005 24.7511 31.8458 24.3488 31.1261C23.9464 30.4063 23.811 29.5677 23.9662 28.7579C24.1215 27.948 24.5575 27.2189 25.1975 26.699C25.8375 26.1791 26.6404 25.9017 27.4649 25.9156C28.2893 25.9295 29.0824 26.2339 29.7045 26.7752C30.3266 27.3165 30.7377 28.0598 30.8655 28.8745C30.9933 29.6891 30.8295 30.5227 30.4031 31.2284C29.9766 31.9341 29.3148 32.4668 28.5343 32.7325C28.8462 34.6557 29.4016 37.0209 29.6485 38.0751C29.7986 38.7122 29.917 39.216 29.9821 39.5445C30.1858 40.4658 30.3356 41.3981 30.4308 42.3368C32.1171 42.5403 33.4281 43.1341 34.4173 44.1332C36.2587 45.9947 36.5139 48.8202 36.5239 51.7242C36.5273 52.2529 36.5223 52.7834 36.5156 53.3121C36.5106 53.7508 36.5072 54.1878 36.5072 54.6198V61.3652C36.5073 61.4137 36.5106 61.4622 36.5172 61.5103C36.5219 61.5582 36.5309 61.6057 36.5439 61.6521C36.6055 61.9113 36.7628 62.1377 36.9843 62.2859C36.986 62.2876 36.9893 62.2892 36.991 62.2909C36.9926 62.2909 36.9926 62.2926 36.9943 62.2926C37.0126 62.3042 37.0293 62.3159 37.0477 62.3276C37.0595 62.3349 37.0718 62.3416 37.0844 62.3476C37.1901 62.4106 37.3012 62.4642 37.4163 62.5077C37.4819 62.5323 37.5487 62.5535 37.6165 62.5711C37.6915 62.5928 37.7682 62.6095 37.8483 62.6245C37.9284 62.6412 38.0118 62.6528 38.0985 62.6628C38.1075 62.663 38.1164 62.6642 38.1252 62.6662C38.4133 62.6959 38.7029 62.7104 38.9925 62.7095V62.7079H38.9975V59.2635C38.9978 59.2223 38.9893 59.1815 38.9727 59.1438C38.9561 59.106 38.9318 59.0722 38.9012 59.0445C38.8707 59.0168 38.8347 58.9959 38.7955 58.983C38.7564 58.9702 38.715 58.9657 38.674 58.9699C38.4471 58.9916 38.1936 59.02 37.9 59.0517C37.8699 59.0552 37.8393 59.0528 37.8101 59.0444C37.7809 59.0361 37.7537 59.0221 37.73 59.0031C37.7062 58.9842 37.6865 58.9608 37.6719 58.9342C37.6573 58.9076 37.6481 58.8783 37.6448 58.8482L37.5597 58.0792L37.473 57.3086C37.4716 57.3009 37.4711 57.2931 37.4713 57.2853V57.2836C37.4716 57.2691 37.4727 57.2546 37.4747 57.2402C37.481 57.2131 37.4917 57.1872 37.5064 57.1635C37.5136 57.1516 37.522 57.1404 37.5314 57.1301C37.5401 57.1194 37.5502 57.1099 37.5614 57.1018C37.596 57.0758 37.6369 57.0597 37.6798 57.0551C38.7857 56.9417 39.4079 56.8816 40 56.8799C40.5921 56.8816 41.2143 56.9417 42.3202 57.0551C42.3775 57.0601 42.4306 57.087 42.4686 57.1301C42.478 57.1404 42.4864 57.1516 42.4936 57.1635C42.5083 57.1872 42.519 57.2131 42.5253 57.2402C42.5273 57.2552 42.5284 57.2702 42.5287 57.2853C42.5289 57.2931 42.5283 57.3009 42.527 57.3086L42.4403 58.0792L42.3552 58.8482C42.352 58.8783 42.3428 58.9076 42.3281 58.9342C42.3135 58.9608 42.2938 58.9842 42.2701 59.0031C42.2463 59.0221 42.2191 59.0361 42.1899 59.0444C42.1607 59.0528 42.1301 59.0552 42.1 59.0517C41.8064 59.02 41.5529 58.9916 41.3261 58.9699C41.2851 58.9657 41.2436 58.9702 41.2045 58.983C41.1653 58.9959 41.1293 59.0168 41.0988 59.0445C41.0683 59.0722 41.0439 59.106 41.0273 59.1438C41.0107 59.1815 41.0023 59.2223 41.0025 59.2635V62.7079H41.0075V62.7095C41.2972 62.7104 41.5867 62.6959 41.8748 62.6662C41.8838 62.6659 41.8927 62.6648 41.9015 62.6628C41.9882 62.6528 42.0716 62.6412 42.1517 62.6245C42.2318 62.6095 42.3085 62.5928 42.3836 62.5711C42.4513 62.5535 42.5182 62.5324 42.5837 62.5077C42.6991 62.4649 42.8103 62.4113 42.9156 62.3476C42.9282 62.3416 42.9405 62.3349 42.9523 62.3276C42.9707 62.3159 42.9874 62.3042 43.0057 62.2926C43.0091 62.2909 43.0124 62.2876 43.0157 62.2859C43.2372 62.1377 43.3945 61.9113 43.4561 61.6521C43.4691 61.6057 43.4781 61.5582 43.4828 61.5103C43.4895 61.4616 43.4928 61.4126 43.4928 61.3635V54.6198C43.4928 54.1878 43.4894 53.7508 43.4844 53.3121C43.4778 52.7834 43.4728 52.2529 43.4761 51.7242C43.4861 48.8202 43.7413 45.9947 45.5828 44.1332C46.5719 43.1341 47.8829 42.5403 49.5692 42.3368C49.6644 41.3981 49.8142 40.4658 50.0179 39.5445C50.083 39.216 50.2014 38.7139 50.3515 38.0767C50.5984 37.0226 51.1538 34.6557 51.4657 32.7325C50.6848 32.4668 50.0226 31.934 49.5959 31.228C49.1692 30.522 49.0053 29.688 49.1331 28.8731C49.2609 28.0581 49.6722 27.3143 50.2945 26.7728C50.9168 26.2313 51.7103 25.9268 52.5351 25.9128C53.3599 25.8989 54.1632 26.1764 54.8035 26.6966C55.4437 27.2168 55.8799 27.9462 56.0352 28.7564C56.1904 29.5666 56.0548 30.4056 55.6522 31.1256C55.2496 31.8456 54.6058 32.4005 53.8343 32.6925C53.6241 34.1353 53.2271 36.0484 52.625 38.6105C52.4849 39.2026 52.3665 39.7113 52.3081 40.0032C52.1046 41.0191 51.9862 41.6646 51.9261 42.2183C53.3172 42.0982 54.1062 41.6729 55.6407 40.8439L55.8309 40.7405C58.9884 39.0375 61.5204 35.9984 63.0266 32.3589C63.988 30.0352 64.5067 27.5523 64.5561 25.0381C63.7774 24.7615 63.1215 24.2186 62.7044 23.5052C62.2873 22.7919 62.1358 21.954 62.2767 21.1397C62.4175 20.3255 62.8418 19.5872 63.4743 19.0555C64.1069 18.5238 64.9071 18.2328 65.7334 18.2339C66.5598 18.2351 67.3591 18.5284 67.9902 19.0619C68.6212 19.5955 69.0433 20.3349 69.1819 21.1496C69.3204 21.9643 69.1665 22.8017 68.7474 23.5139C68.3282 24.226 67.6708 24.7671 66.8913 25.0414C66.8433 27.3552 66.4434 29.6483 65.7054 31.8418C66.3022 31.633 66.8793 31.3717 67.4301 31.0612C71.0029 29.0379 74.6157 25.5134 75.2362 22.3259C74.723 22.1281 74.2636 21.8121 73.8952 21.4037C73.5268 20.9952 73.2598 20.5058 73.1158 19.9749C72.9718 19.444 72.9548 18.8867 73.0663 18.3481C73.1778 17.8095 73.4145 17.3047 73.7574 16.8746C74.1003 16.4445 74.5397 16.1012 75.0399 15.8726C75.5402 15.6439 76.0873 15.5363 76.6369 15.5584C77.1865 15.5805 77.7231 15.7318 78.2034 15.9999C78.6836 16.268 79.094 16.6455 79.4012 17.1018C79.4629 17.1952 79.523 17.2903 79.5763 17.3903C79.6297 17.4888 79.6798 17.5922 79.7248 17.6956C79.791 17.8545 79.8462 18.0178 79.8899 18.1843C80.111 19.0458 79.9965 19.9591 79.5694 20.7393C79.1423 21.5194 78.4346 22.1081 77.5898 22.386C76.9759 26.5776 72.6358 30.796 68.581 33.0928C68.1968 33.3102 67.8015 33.5072 67.3967 33.6832C67.0714 33.8267 66.7395 33.9551 66.4026 34.0719C66.1741 34.1503 65.9439 34.2237 65.7104 34.2887C65.3434 34.3938 64.9698 34.4839 64.5945 34.5573H64.5928C64.5494 34.649 64.5027 34.7391 64.4577 34.8308C64.4127 34.9209 64.366 35.0093 64.3193 35.0994C62.5345 38.4937 59.9825 41.1542 56.9384 42.7971L56.7499 42.8989C55.0402 43.8229 53.9244 44.4251 51.9078 44.5619C51.9128 44.6619 51.9178 44.7687 51.9228 44.8788C51.9378 45.2207 51.9545 45.6027 51.9711 46.0397C52.0295 47.5025 52.0896 49.5908 52.0896 52.8868V54.031C52.0896 56.3378 49.8094 57.8824 47.9763 59.125C47.4175 59.5037 46.8888 59.8623 46.4785 60.1992C46.3719 60.5391 46.2855 60.885 46.2199 61.2351C46.1486 61.6089 46.0573 61.9786 45.9464 62.3426C45.8653 62.6174 45.731 62.8736 45.5511 63.0965C45.4026 63.2717 45.2542 63.4301 45.1057 63.5752C45.0573 63.6236 45.0073 63.6703 44.9589 63.7153C44.6883 63.9675 44.3908 64.189 44.0716 64.3759C43.9898 64.4242 43.9081 64.4676 43.8247 64.5093C43.7108 64.5672 43.5938 64.619 43.4744 64.6644C43.4344 64.6811 43.3944 64.6961 43.3543 64.7095C43.0754 64.8095 42.7878 64.8838 42.4953 64.9313C42.4586 64.938 42.4219 64.9447 42.3852 64.9497C42.3319 64.958 42.2801 64.9663 42.2268 64.9713C42.1267 64.9847 42.0266 64.9947 41.9249 65.0047C41.7914 65.0164 41.6563 65.0247 41.5212 65.0297C41.4845 65.0314 41.4478 65.0331 41.4128 65.0347C41.1426 65.0447 40.8657 65.0464 40.5805 65.0464H40.3086L40.0884 65.0447H39.9116L39.6914 65.0464C39.3095 65.0464 38.9425 65.0481 38.5872 65.0347C38.5522 65.0331 38.5155 65.0314 38.4788 65.0297C38.342 65.0247 38.2069 65.0147 38.0751 65.0047C37.9734 64.9947 37.8733 64.9847 37.7732 64.9713C37.7199 64.9647 37.6665 64.958 37.6148 64.9497C37.5781 64.9447 37.5414 64.938 37.5047 64.9313C37.2122 64.8838 36.9246 64.8095 36.6457 64.7095C36.6057 64.6961 36.5656 64.6811 36.5256 64.6644C36.4063 64.6186 36.2894 64.5669 36.1753 64.5093C36.0919 64.4676 36.0102 64.4242 35.9284 64.3759C35.6093 64.189 35.3117 63.9675 35.0411 63.7153C34.9927 63.6703 34.9427 63.6236 34.8943 63.5752C34.7442 63.4301 34.5974 63.2717 34.4489 63.0965C34.269 62.8736 34.1347 62.6174 34.0536 62.3426C33.9427 61.9786 33.8514 61.6089 33.7801 61.2351C33.7145 60.885 33.6281 60.5391 33.5215 60.1992C33.1112 59.8623 32.5825 59.5037 32.0237 59.125C30.1906 57.8824 27.9104 56.3378 27.9104 54.031V52.8868C27.9104 49.5908 27.9705 47.5025 28.0289 46.0397C28.0455 45.6027 28.0622 45.2207 28.0772 44.8788C28.0822 44.7687 28.0872 44.6619 28.0922 44.5619C26.0757 44.4251 24.9598 43.8229 23.2484 42.8989L23.0616 42.7971C20.0175 41.1542 17.4655 38.4937 15.6808 35.0994C15.634 35.0093 15.5873 34.9209 15.5423 34.8308C15.4973 34.7391 15.4506 34.649 15.4072 34.5573H15.4055C15.0302 34.4839 14.6583 34.3955 14.2896 34.2887C14.0561 34.2237 13.826 34.1503 13.5974 34.0719C13.2605 33.9551 12.9286 33.8267 12.6033 33.6832C12.1988 33.5066 11.8036 33.3095 11.4191 33.0928C7.36417 30.796 3.02406 26.5776 2.41025 22.386C1.56537 22.1081 0.857704 21.5194 0.430618 20.7393C0.00353241 19.9591 -0.111053 19.0458 0.110092 18.1843ZM76.4972 20.2259C76.7282 20.2259 76.9539 20.1574 77.1459 20.0291C77.3379 19.9009 77.4876 19.7185 77.5759 19.5051C77.6643 19.2918 77.6874 19.057 77.6424 18.8305C77.5973 18.6041 77.4861 18.396 77.3228 18.2327C77.1596 18.0694 76.9515 17.9582 76.725 17.9132C76.4985 17.8681 76.2638 17.8912 76.0504 17.9796C75.8371 18.068 75.6547 18.2176 75.5264 18.4097C75.3981 18.6017 75.3296 18.8274 75.3296 19.0583C75.33 19.3679 75.4531 19.6647 75.672 19.8836C75.8909 20.1025 76.1877 20.2256 76.4972 20.2259ZM65.7287 22.9047C65.9596 22.9047 66.1854 22.8362 66.3774 22.7079C66.5694 22.5796 66.7191 22.3973 66.8074 22.1839C66.8958 21.9706 66.9189 21.7358 66.8739 21.5093C66.8288 21.2828 66.7176 21.0748 66.5543 20.9115C66.391 20.7482 66.183 20.637 65.9565 20.592C65.73 20.5469 65.4952 20.57 65.2819 20.6584C65.0685 20.7468 64.8862 20.8964 64.7579 21.0884C64.6296 21.2804 64.5611 21.5062 64.5611 21.7371C64.5615 22.0467 64.6846 22.3435 64.9035 22.5624C65.1224 22.7812 65.4191 22.9044 65.7287 22.9047ZM52.595 30.5858C52.9045 30.5854 53.2013 30.4623 53.4202 30.2434C53.6391 30.0245 53.7622 29.7278 53.7626 29.4182C53.7613 29.1089 53.6379 28.8127 53.4192 28.594C53.2005 28.3753 52.9043 28.2519 52.595 28.2506C52.2853 28.2506 51.9883 28.3736 51.7694 28.5926C51.5504 28.8116 51.4274 29.1085 51.4274 29.4182C51.4274 29.7279 51.5504 30.0248 51.7694 30.2438C51.9883 30.4628 52.2853 30.5858 52.595 30.5858ZM48.7553 44.8888C48.1856 45.0554 47.6659 45.3602 47.2424 45.7761C46.6736 46.3499 46.3267 47.1522 46.1182 48.0863C46.0798 48.2564 46.0465 48.4299 46.0164 48.6084C45.9714 48.8753 45.9364 49.1505 45.908 49.434H45.9097C46.7463 49.4114 47.5411 49.0631 48.1248 48.4633C48.2316 48.3545 48.3303 48.238 48.42 48.1147C48.4801 48.0329 48.5368 47.9479 48.5885 47.8611C48.6152 47.8161 48.6402 47.7727 48.6635 47.7277C48.7119 47.6376 48.7553 47.5442 48.7953 47.4491C48.9637 47.0422 49.047 46.6051 49.0401 46.1648C49.0332 45.7245 48.9363 45.2902 48.7553 44.8888ZM45.8179 53.2871C45.8229 53.7341 45.828 54.1795 45.828 54.6198V57.7673C46.0965 57.5772 46.3767 57.387 46.6653 57.1919C48.0414 56.2594 49.7544 55.0985 49.7544 54.031V52.8868C49.7544 51.9594 49.7494 51.1271 49.7411 50.3815C49.6777 50.4415 49.6109 50.5016 49.5442 50.5583C49.4108 50.6717 49.2723 50.7801 49.1289 50.8835C48.9849 50.9867 48.8357 51.0824 48.6819 51.1704C48.5301 51.2588 48.3716 51.3406 48.2098 51.4156C47.4607 51.762 46.645 51.9407 45.8196 51.9394H45.8079C45.8079 52.3864 45.8129 52.8384 45.8179 53.2871ZM33.9836 48.6084C33.9536 48.4299 33.9202 48.2564 33.8818 48.0863C33.6733 47.1522 33.3264 46.3516 32.7576 45.7761C32.3341 45.3602 31.8144 45.0554 31.2447 44.8888C31.0637 45.2902 30.9668 45.7245 30.9599 46.1648C30.953 46.6051 31.0363 47.0422 31.2047 47.4491C31.2447 47.5442 31.2881 47.6376 31.3365 47.7277C31.3598 47.7727 31.3849 47.8161 31.4115 47.8611C31.4632 47.9479 31.52 48.0329 31.58 48.1147C31.6697 48.238 31.7684 48.3545 31.8752 48.4633C32.4585 49.0637 33.2535 49.4121 34.0903 49.434H34.092C34.0636 49.1505 34.0286 48.8753 33.9836 48.6084ZM30.2456 54.031C30.2456 55.0985 31.9586 56.2594 33.3347 57.1919C33.6233 57.387 33.9035 57.5772 34.1721 57.7673V54.6198C34.1721 54.1795 34.1771 53.7341 34.1821 53.2871C34.1871 52.8384 34.1921 52.3864 34.1921 51.9394H34.1804C33.3551 51.9399 32.5396 51.7612 31.7902 51.4156C31.6284 51.3406 31.4699 51.2588 31.3181 51.1704C31.1647 51.0803 31.0146 50.9853 30.8711 50.8835C30.7994 50.8318 30.7277 50.7784 30.6576 50.7251C30.5192 50.615 30.3857 50.5016 30.259 50.3815C30.2506 51.1287 30.2456 51.9594 30.2456 52.8868V54.031ZM28.3675 30.0787C28.5401 29.8282 28.608 29.5201 28.5567 29.2202C28.5054 28.9202 28.3389 28.6523 28.0927 28.4734C27.8466 28.2945 27.5403 28.2188 27.2392 28.2626C26.9381 28.3064 26.666 28.4661 26.481 28.7076C26.3227 28.9106 26.2369 29.1608 26.2374 29.4182C26.2374 29.6674 26.3171 29.9102 26.465 30.1108C26.6128 30.3115 26.821 30.4596 27.059 30.5334C27.2971 30.6072 27.5525 30.6029 27.788 30.5211C28.0234 30.4393 28.2265 30.2843 28.3675 30.0787ZM15.4389 21.7371C15.4389 21.5062 15.3704 21.2804 15.2421 21.0884C15.1138 20.8964 14.9315 20.7468 14.7181 20.6584C14.5048 20.57 14.27 20.5469 14.0435 20.592C13.817 20.637 13.609 20.7482 13.4457 20.9115C13.2824 21.0748 13.1712 21.2828 13.1262 21.5093C13.0811 21.7358 13.1042 21.9706 13.1926 22.1839C13.281 22.3973 13.4306 22.5796 13.6226 22.7079C13.8146 22.8362 14.0404 22.9047 14.2713 22.9047C14.5809 22.9044 14.8777 22.7812 15.0965 22.5624C15.3154 22.3435 15.4386 22.0467 15.4389 21.7371ZM3.50278 20.2259C3.7337 20.2259 3.95945 20.1574 4.15146 20.0291C4.34347 19.9009 4.49312 19.7185 4.58149 19.5051C4.66987 19.2918 4.69299 19.057 4.64793 18.8305C4.60288 18.6041 4.49168 18.396 4.32839 18.2327C4.16511 18.0694 3.95706 17.9582 3.73057 17.9132C3.50407 17.8681 3.26931 17.8912 3.05596 17.9796C2.84261 18.068 2.66025 18.2176 2.53195 18.4097C2.40366 18.6017 2.33519 18.8274 2.33519 19.0583C2.33553 19.3679 2.45865 19.6647 2.67754 19.8836C2.89644 20.1025 3.19321 20.2256 3.50278 20.2259Z" fill="url(#paint0_linear_560_272)"/>
<path d="M30.4831 38.7698C30.5415 39.0251 30.5882 39.2402 30.6232 39.412C30.6582 39.5888 30.6916 39.7556 30.7216 39.9141C30.735 39.9791 30.7483 40.0442 30.76 40.1059C30.8284 40.4679 30.8834 40.7814 30.9301 41.0633C36.6763 40.0092 42.6194 40.0242 49.0378 41.1034C49.0845 40.8115 49.1429 40.4862 49.2146 40.1059C49.2246 40.0559 49.2346 40.0058 49.2446 39.9541C49.2763 39.784 49.313 39.6055 49.3514 39.4137C49.3831 39.2502 49.4298 39.0451 49.4815 38.8099C42.7595 37.6724 36.5245 37.6607 30.4831 38.7698Z" fill="url(#paint1_linear_560_272)"/>
</g>
<defs>
<linearGradient id="paint0_linear_560_272" x1="54.5926" y1="15.5555" x2="13.7037" y2="65.037" gradientUnits="userSpaceOnUse">
<stop stop-color="#DF7D7D"/>
<stop offset="0.432292" stop-color="#B487EE"/>
<stop offset="1" stop-color="#5EA7D5"/>
</linearGradient>
<linearGradient id="paint1_linear_560_272" x1="54.5926" y1="15.5555" x2="13.7037" y2="65.037" gradientUnits="userSpaceOnUse">
<stop stop-color="#DF7D7D"/>
<stop offset="0.432292" stop-color="#B487EE"/>
<stop offset="1" stop-color="#5EA7D5"/>
</linearGradient>
<clipPath id="clip0_560_272">
<rect width="80" height="80" fill="white" transform="matrix(-1 0 0 1 80 0)"/>
</clipPath>
</defs>
</svg>
