<svg width="318" height="197" viewBox="0 0 318 197" fill="none" xmlns="http://www.w3.org/2000/svg">
<path d="M317.536 10.4485C317.362 9.78663 317.143 9.13759 316.88 8.50598C316.701 8.09493 316.502 7.68389 316.29 7.29274C316.078 6.89496 315.839 6.51706 315.594 6.1458C314.372 4.33296 312.741 2.8332 310.833 1.76795C308.924 0.702711 306.791 0.101931 304.607 0.0142608C302.423 -0.0734094 300.249 0.354496 298.261 1.26333C296.273 2.17216 294.528 3.53637 293.165 5.24549C291.802 6.95461 290.861 8.9606 290.418 11.101C289.975 13.2415 290.042 15.4562 290.614 17.5658C291.186 19.6754 292.247 21.6207 293.711 23.2441C295.175 24.8675 297 26.1234 299.039 26.91C296.573 39.5794 282.213 53.588 268.012 61.6298C265.823 62.8642 263.529 63.9024 261.157 64.7325C264.091 56.014 265.68 46.8999 265.871 37.7032C268.969 36.6129 271.581 34.4626 273.247 31.6324C274.912 28.8023 275.524 25.4744 274.973 22.237C274.422 18.9996 272.745 16.0611 270.237 13.9409C267.729 11.8207 264.553 10.6552 261.269 10.6505C257.985 10.6458 254.805 11.8022 252.291 13.9152C249.777 16.0283 248.092 18.962 247.532 22.1978C246.972 25.4336 247.574 28.7632 249.231 31.5981C250.889 34.4331 253.495 36.5908 256.589 37.6899C256.393 47.6832 254.331 57.5518 250.51 66.7877C244.523 81.2537 234.459 93.333 221.909 100.102L221.154 100.513C215.054 103.808 211.918 105.499 206.389 105.976C206.628 103.775 207.099 101.209 207.907 97.1716C208.14 96.0114 208.61 93.9827 209.167 91.6358C211.56 81.4526 213.138 73.8483 213.974 68.1136C217.039 66.9532 219.596 64.7485 221.195 61.8877C222.795 59.027 223.333 55.6937 222.716 52.4749C222.099 49.2561 220.366 46.3582 217.822 44.2917C215.278 42.2252 212.087 41.1225 208.81 41.1779C205.533 41.2333 202.381 42.4432 199.908 44.5945C197.436 46.7458 195.802 49.7005 195.294 52.9383C194.786 56.1762 195.437 59.4894 197.132 62.2944C198.826 65.0995 201.457 67.2166 204.559 68.2727C203.32 75.9168 201.112 85.3177 200.131 89.5077C199.534 92.0402 199.063 94.0424 198.805 95.3485C197.995 99.01 197.4 102.716 197.021 106.447C190.319 107.255 185.108 109.616 181.177 113.587C173.857 120.986 172.843 132.216 172.803 143.759C172.79 145.86 172.81 147.968 172.836 150.07C172.856 151.814 172.869 153.551 172.869 155.268V182.078C172.869 182.271 172.856 182.464 172.83 182.655C172.811 182.846 172.776 183.034 172.724 183.219C172.479 184.249 171.854 185.149 170.973 185.738C170.967 185.744 170.954 185.751 170.947 185.758C170.94 185.758 170.94 185.764 170.934 185.764C170.861 185.811 170.794 185.857 170.721 185.904C170.674 185.933 170.626 185.959 170.576 185.983C170.155 186.234 169.714 186.447 169.256 186.62C168.996 186.717 168.73 186.802 168.461 186.871C168.162 186.958 167.857 187.024 167.539 187.084C167.221 187.15 166.889 187.196 166.545 187.236C166.509 187.237 166.473 187.241 166.439 187.249C165.293 187.368 164.143 187.425 162.991 187.422V187.415H162.971V173.725C162.97 173.561 163.004 173.399 163.07 173.249C163.136 173.099 163.233 172.965 163.354 172.854C163.475 172.744 163.619 172.661 163.774 172.61C163.93 172.559 164.095 172.541 164.257 172.558C165.159 172.644 166.167 172.757 167.334 172.883C167.453 172.897 167.575 172.887 167.691 172.854C167.807 172.821 167.915 172.765 168.01 172.69C168.104 172.615 168.182 172.522 168.24 172.416C168.299 172.31 168.335 172.194 168.348 172.074L168.686 169.018L169.031 165.955C169.036 165.924 169.039 165.893 169.038 165.862V165.855C169.036 165.798 169.032 165.74 169.024 165.683C168.999 165.575 168.956 165.472 168.898 165.378C168.869 165.331 168.836 165.286 168.799 165.245C168.764 165.203 168.724 165.165 168.68 165.133C168.542 165.03 168.38 164.965 168.209 164.947C163.813 164.496 161.34 164.258 158.987 164.251C156.633 164.258 154.16 164.496 149.765 164.947C149.537 164.967 149.326 165.074 149.175 165.245C149.138 165.286 149.104 165.331 149.075 165.378C149.017 165.472 148.975 165.575 148.95 165.683C148.942 165.742 148.937 165.802 148.936 165.862C148.935 165.893 148.938 165.924 148.943 165.955L149.288 169.018L149.626 172.074C149.639 172.194 149.675 172.31 149.733 172.416C149.791 172.522 149.87 172.615 149.964 172.69C150.059 172.765 150.167 172.821 150.283 172.854C150.399 172.887 150.52 172.897 150.64 172.883C151.807 172.757 152.815 172.644 153.716 172.558C153.879 172.541 154.044 172.559 154.2 172.61C154.355 172.661 154.498 172.744 154.62 172.854C154.741 172.965 154.838 173.099 154.904 173.249C154.97 173.399 155.003 173.561 155.002 173.725V187.415H154.983V187.422C153.831 187.425 152.68 187.368 151.535 187.249C151.499 187.248 151.464 187.244 151.429 187.236C151.084 187.196 150.753 187.15 150.435 187.084C150.116 187.024 149.811 186.958 149.513 186.871C149.244 186.802 148.978 186.717 148.717 186.62C148.259 186.449 147.817 186.236 147.398 185.983C147.348 185.959 147.299 185.933 147.252 185.904C147.179 185.857 147.113 185.811 147.04 185.764C147.027 185.758 147.014 185.744 147 185.738C146.12 185.149 145.495 184.249 145.25 183.219C145.198 183.034 145.163 182.846 145.144 182.655C145.117 182.462 145.104 182.267 145.104 182.072V155.268C145.104 153.551 145.118 151.814 145.137 150.07C145.164 147.968 145.184 145.86 145.171 143.759C145.131 132.216 144.116 120.986 136.797 113.587C132.866 109.616 127.655 107.255 120.952 106.447C120.574 102.716 119.979 99.01 119.169 95.3485C118.91 94.0424 118.44 92.0469 117.843 89.5143C116.862 85.3243 114.654 75.9168 113.414 68.2727C116.518 67.2166 119.15 65.0989 120.846 62.2928C122.542 59.4866 123.194 56.172 122.686 52.9328C122.178 49.6935 120.543 46.7374 118.07 44.585C115.596 42.4327 112.442 41.2222 109.164 41.1668C105.886 41.1114 102.693 42.2146 100.148 44.2821C97.6032 46.3496 95.8695 49.2489 95.2524 52.4691C94.6353 55.6893 95.1744 59.0241 96.7746 61.8859C98.3748 64.7478 100.934 66.9531 104 68.1136C104.835 73.8483 106.413 81.4526 108.807 91.6358C109.364 93.9894 109.834 96.0114 110.066 97.1716C110.875 101.209 111.346 103.775 111.585 105.976C106.055 105.499 102.919 103.808 96.8202 100.513L96.0644 100.102C83.5143 93.333 73.4505 81.2537 67.4638 66.7877C63.6426 57.5518 61.5808 47.6832 61.3844 37.6899C64.4795 36.5907 67.0865 34.4328 68.7444 31.5974C70.4023 28.762 71.0045 25.4318 70.4445 22.1953C69.8845 18.9589 68.1984 16.0246 65.6841 13.9111C63.1699 11.7977 59.9895 10.6411 56.705 10.6457C53.4204 10.6504 50.2433 11.8161 47.7351 13.9368C45.227 16.0574 43.5492 18.9965 42.9985 22.2345C42.4477 25.4726 43.0594 28.801 44.7254 31.6317C46.3915 34.4623 49.0045 36.6129 52.1028 37.7032C52.2937 46.8999 53.8831 56.014 56.8165 64.7325C54.4445 63.9025 52.1505 62.8642 49.9614 61.6298C35.7606 53.588 21.4007 39.5794 18.9344 26.91C20.9743 26.1237 22.8004 24.8679 24.2646 23.2445C25.7289 21.621 26.7902 19.6755 27.3625 17.5655C27.9349 15.4555 28.0023 13.2404 27.5592 11.0995C27.1161 8.95867 26.1751 6.95226 24.8122 5.2428C23.4493 3.53335 21.703 2.16892 19.7146 1.26003C17.7263 0.351135 15.5518 -0.0766685 13.3674 0.0112664C11.1829 0.0992014 9.04983 0.700404 7.14097 1.76618C5.2321 2.83195 3.60109 4.33233 2.38004 6.1458C2.13474 6.51706 1.89607 6.89496 1.68392 7.29274C1.47176 7.68389 1.27287 8.09493 1.09387 8.50598C0.830673 9.13761 0.611368 9.78665 0.437528 10.4485C-0.441364 13.8726 0.0140892 17.5027 1.71161 20.6036C3.40914 23.7044 6.22182 26.0441 9.57989 27.1487C12.0196 43.8091 29.2701 60.5757 45.3869 69.7048C46.9139 70.5688 48.485 71.3522 50.094 72.0517C51.3868 72.6218 52.7061 73.1323 54.0453 73.5964C54.9536 73.908 55.8685 74.1997 56.7966 74.4583C58.2552 74.8759 59.7402 75.2339 61.2319 75.5256H61.2385C61.4109 75.8903 61.5965 76.2483 61.7755 76.6129C61.9545 76.9709 62.1402 77.3223 62.3258 77.6803C69.4196 91.1717 79.563 101.746 91.6622 108.276L92.4114 108.681C99.2068 112.354 103.642 114.747 111.657 115.291C111.638 115.688 111.618 116.113 111.598 116.55C111.538 117.909 111.472 119.428 111.406 121.165C111.173 126.979 110.935 135.279 110.935 148.379V152.927C110.935 162.096 119.998 168.235 127.284 173.175C129.505 174.679 131.606 176.105 133.237 177.444C133.661 178.795 134.004 180.17 134.265 181.561C134.548 183.047 134.911 184.516 135.352 185.963C135.674 187.055 136.208 188.074 136.923 188.96C137.513 189.656 138.103 190.286 138.693 190.863C138.886 191.055 139.085 191.24 139.277 191.419C140.352 192.422 141.535 193.302 142.804 194.045C143.129 194.237 143.453 194.409 143.785 194.575C144.238 194.805 144.703 195.011 145.177 195.192C145.336 195.258 145.495 195.318 145.655 195.371C146.763 195.768 147.906 196.063 149.069 196.253C149.215 196.279 149.361 196.306 149.506 196.325C149.719 196.359 149.924 196.392 150.136 196.412C150.534 196.465 150.932 196.504 151.336 196.544C151.867 196.591 152.404 196.624 152.941 196.644C153.086 196.65 153.232 196.657 153.372 196.664C154.446 196.703 155.546 196.71 156.68 196.71H157.76L158.636 196.703H159.338L160.213 196.71C161.732 196.71 163.19 196.717 164.602 196.664C164.741 196.657 164.887 196.65 165.033 196.644C165.577 196.624 166.114 196.584 166.638 196.544C167.042 196.504 167.44 196.465 167.838 196.412C168.05 196.385 168.262 196.359 168.467 196.325C168.613 196.306 168.759 196.279 168.905 196.253C170.068 196.063 171.21 195.768 172.319 195.371C172.478 195.318 172.637 195.258 172.797 195.192C173.271 195.01 173.735 194.804 174.189 194.575C174.52 194.409 174.845 194.237 175.17 194.045C176.439 193.302 177.622 192.422 178.697 191.419C178.889 191.24 179.088 191.055 179.28 190.863C179.877 190.286 180.46 189.656 181.051 188.96C181.766 188.074 182.3 187.055 182.622 185.963C183.063 184.516 183.426 183.047 183.709 181.561C183.97 180.17 184.313 178.795 184.737 177.444C186.368 176.105 188.469 174.679 190.69 173.175C197.976 168.235 207.039 162.096 207.039 152.927V148.379C207.039 135.279 206.8 126.979 206.568 121.165C206.502 119.428 206.436 117.909 206.376 116.55C206.356 116.113 206.336 115.688 206.316 115.291C214.332 114.747 218.767 112.354 225.569 108.681L226.312 108.276C238.411 101.746 248.554 91.1717 255.648 77.6803C255.834 77.3223 256.019 76.9709 256.198 76.6129C256.377 76.2483 256.563 75.8903 256.735 75.5256H256.742C258.234 75.2339 259.712 74.8826 261.177 74.4583C262.105 74.1997 263.02 73.908 263.928 73.5964C265.268 73.1323 266.587 72.6218 267.88 72.0517C269.487 71.3495 271.058 70.5662 272.587 69.7048C288.704 60.5757 305.954 43.8091 308.394 27.1487C311.752 26.0442 314.565 23.7045 316.262 20.6036C317.96 17.5027 318.415 13.8726 317.536 10.4485V10.4485ZM13.9224 18.5632C13.0045 18.5632 12.1072 18.2911 11.3441 17.7811C10.5809 17.2712 9.98607 16.5464 9.63481 15.6984C9.28356 14.8504 9.19166 13.9173 9.37072 13.0171C9.54979 12.1168 9.99179 11.2899 10.6408 10.6409C11.2898 9.99188 12.1168 9.54989 13.017 9.37082C13.9172 9.19176 14.8503 9.28366 15.6983 9.63491C16.5463 9.98616 17.2711 10.581 17.781 11.3442C18.291 12.1073 18.5631 13.0046 18.5631 13.9224C18.5618 15.1528 18.0724 16.3325 17.2024 17.2025C16.3324 18.0725 15.1528 18.5619 13.9224 18.5632V18.5632ZM56.7237 29.2105C55.8059 29.2105 54.9086 28.9384 54.1454 28.4284C53.3823 27.9185 52.7874 27.1937 52.4362 26.3457C52.0849 25.4977 51.993 24.5646 52.1721 23.6644C52.3512 22.7641 52.7931 21.9372 53.4422 21.2882C54.0912 20.6392 54.9181 20.1972 55.8183 20.0181C56.7186 19.8391 57.6517 19.931 58.4997 20.2822C59.3477 20.6335 60.0724 21.2283 60.5824 21.9915C61.0923 22.7546 61.3645 23.6519 61.3645 24.5697C61.3632 25.8001 60.8738 26.9798 60.0038 27.8498C59.1337 28.7198 57.9541 29.2092 56.7237 29.2105V29.2105ZM108.926 59.7403C107.696 59.739 106.516 59.2496 105.646 58.3796C104.776 57.5096 104.287 56.3299 104.285 55.0995C104.29 53.8703 104.781 52.6928 105.65 51.8235C106.519 50.9543 107.697 50.4638 108.926 50.4587C110.157 50.4587 111.337 50.9477 112.208 51.818C113.078 52.6883 113.567 53.8687 113.567 55.0995C113.567 56.3303 113.078 57.5107 112.208 58.3811C111.337 59.2514 110.157 59.7403 108.926 59.7403V59.7403ZM124.188 116.59C126.452 117.252 128.518 118.464 130.201 120.117C132.461 122.398 133.84 125.587 134.669 129.299C134.822 129.975 134.954 130.665 135.074 131.374C135.253 132.435 135.392 133.529 135.504 134.656H135.498C132.172 134.566 129.013 133.182 126.694 130.797C126.269 130.365 125.877 129.902 125.52 129.412C125.281 129.087 125.056 128.749 124.851 128.404C124.744 128.225 124.645 128.053 124.552 127.874C124.36 127.516 124.188 127.145 124.028 126.767C123.359 125.149 123.028 123.412 123.055 121.662C123.083 119.912 123.468 118.186 124.188 116.59V116.59ZM135.862 149.971C135.843 151.747 135.823 153.517 135.823 155.268V167.778C134.755 167.022 133.642 166.266 132.495 165.491C127.025 161.785 120.216 157.17 120.216 152.927V148.379C120.216 144.693 120.236 141.385 120.269 138.422C120.521 138.66 120.787 138.899 121.052 139.124C121.582 139.575 122.132 140.006 122.703 140.417C123.275 140.827 123.868 141.208 124.479 141.557C125.083 141.909 125.712 142.234 126.355 142.532C129.333 143.909 132.575 144.619 135.856 144.614H135.902C135.902 146.391 135.882 148.187 135.862 149.971ZM182.9 131.374C183.02 130.665 183.152 129.975 183.305 129.299C184.133 125.587 185.512 122.404 187.773 120.117C189.456 118.464 191.522 117.252 193.786 116.59C194.506 118.186 194.891 119.912 194.918 121.662C194.946 123.412 194.615 125.149 193.945 126.767C193.786 127.145 193.614 127.516 193.422 127.874C193.329 128.053 193.229 128.225 193.123 128.404C192.918 128.749 192.692 129.087 192.454 129.412C192.097 129.902 191.705 130.365 191.28 130.797C188.962 133.184 185.802 134.569 182.476 134.656H182.469C182.582 133.529 182.721 132.435 182.9 131.374ZM197.757 152.927C197.757 157.17 190.949 161.785 185.479 165.491C184.332 166.266 183.218 167.022 182.151 167.778V155.268C182.151 153.517 182.131 151.747 182.111 149.971C182.091 148.187 182.072 146.391 182.072 144.614H182.118C185.398 144.616 188.64 143.906 191.618 142.532C192.261 142.234 192.891 141.909 193.494 141.557C194.104 141.199 194.701 140.822 195.271 140.417C195.556 140.212 195.841 140 196.12 139.787C196.67 139.35 197.2 138.899 197.704 138.422C197.737 141.392 197.757 144.693 197.757 148.379V152.927ZM205.222 57.7249C204.536 56.729 204.266 55.5044 204.47 54.3124C204.674 53.1203 205.336 52.0551 206.314 51.3441C207.293 50.6331 208.51 50.3325 209.707 50.5064C210.904 50.6804 211.985 51.3152 212.721 52.2753C213.35 53.082 213.691 54.0764 213.689 55.0995C213.689 56.0902 213.372 57.0549 212.784 57.8525C212.197 58.6501 211.369 59.2386 210.423 59.5321C209.477 59.8255 208.461 59.8084 207.526 59.4832C206.59 59.158 205.783 58.5418 205.222 57.7249ZM256.609 24.5697C256.609 23.6519 256.881 22.7546 257.391 21.9915C257.901 21.2283 258.626 20.6335 259.474 20.2822C260.322 19.931 261.255 19.8391 262.155 20.0181C263.056 20.1972 263.883 20.6392 264.532 21.2882C265.181 21.9372 265.623 22.7641 265.802 23.6644C265.981 24.5646 265.889 25.4977 265.538 26.3457C265.186 27.1937 264.592 27.9185 263.828 28.4284C263.065 28.9384 262.168 29.2105 261.25 29.2105C260.02 29.2092 258.84 28.7198 257.97 27.8498C257.1 26.9798 256.611 25.8001 256.609 24.5697ZM304.051 18.5632C303.134 18.5632 302.236 18.2911 301.473 17.7811C300.71 17.2712 300.115 16.5464 299.764 15.6984C299.413 14.8504 299.321 13.9173 299.5 13.0171C299.679 12.1168 300.121 11.2899 300.77 10.6409C301.419 9.99188 302.246 9.54989 303.146 9.37082C304.046 9.19176 304.979 9.28366 305.827 9.63491C306.675 9.98616 307.4 10.581 307.91 11.3442C308.42 12.1073 308.692 13.0046 308.692 13.9224C308.691 15.1528 308.201 16.3325 307.331 17.2025C306.461 18.0725 305.282 18.5619 304.051 18.5632V18.5632Z" fill="#4582C3"/>
<path d="M197.412 92.2693C197.18 93.2836 196.994 94.1389 196.855 94.8217C196.716 95.5245 196.583 96.1874 196.464 96.8173C196.411 97.0758 196.358 97.3344 196.311 97.5797C196.039 99.0183 195.821 100.265 195.635 101.385C172.796 97.1952 149.174 97.2548 123.663 101.544C123.477 100.384 123.245 99.0912 122.96 97.5797C122.92 97.3808 122.881 97.1819 122.841 96.9764C122.715 96.3001 122.569 95.5908 122.417 94.8284C122.291 94.1786 122.105 93.3632 121.899 92.4284C148.617 87.9072 173.399 87.8606 197.412 92.2693Z" fill="#4481C2"/>
</svg>
