<svg width="207" height="40" viewBox="0 0 207 40" fill="none" xmlns="http://www.w3.org/2000/svg">
<g filter="url(#filter0_b_503_50)">
<rect width="207" height="40" rx="15" fill="#242424"/>
<rect x="1" y="1" width="205" height="38" rx="14" stroke="url(#paint0_linear_503_50)" stroke-width="2"/>
</g>
<path d="M156 26L163 20L156 14M161.91 20L146 20" stroke="#F9F9F9" stroke-width="2" stroke-linecap="round" stroke-linejoin="round"/>
<path d="M54.2645 23.872H49.8165L49.0805 26H46.7285L50.7445 14.816H53.3525L57.3685 26H55.0005L54.2645 23.872ZM53.6565 22.08L52.0405 17.408L50.4245 22.08H53.6565ZM61.1096 18.416C61.3976 18.0107 61.7923 17.6747 62.2936 17.408C62.8056 17.1307 63.387 16.992 64.0376 16.992C64.795 16.992 65.4776 17.1787 66.0856 17.552C66.7043 17.9253 67.1896 18.4587 67.5416 19.152C67.9043 19.8347 68.0856 20.6293 68.0856 21.536C68.0856 22.4427 67.9043 23.248 67.5416 23.952C67.1896 24.6453 66.7043 25.184 66.0856 25.568C65.4776 25.952 64.795 26.144 64.0376 26.144C63.387 26.144 62.811 26.0107 62.3096 25.744C61.819 25.4773 61.419 25.1413 61.1096 24.736V30.224H58.8696V17.136H61.1096V18.416ZM65.7976 21.536C65.7976 21.0027 65.6856 20.544 65.4616 20.16C65.2483 19.7653 64.9603 19.4667 64.5976 19.264C64.2456 19.0613 63.8616 18.96 63.4456 18.96C63.0403 18.96 62.6563 19.0667 62.2936 19.28C61.9416 19.4827 61.6536 19.7813 61.4296 20.176C61.2163 20.5707 61.1096 21.0347 61.1096 21.568C61.1096 22.1013 61.2163 22.5653 61.4296 22.96C61.6536 23.3547 61.9416 23.6587 62.2936 23.872C62.6563 24.0747 63.0403 24.176 63.4456 24.176C63.8616 24.176 64.2456 24.0693 64.5976 23.856C64.9603 23.6427 65.2483 23.3387 65.4616 22.944C65.6856 22.5493 65.7976 22.08 65.7976 21.536ZM71.9534 18.416C72.2414 18.0107 72.636 17.6747 73.1374 17.408C73.6494 17.1307 74.2307 16.992 74.8814 16.992C75.6387 16.992 76.3214 17.1787 76.9294 17.552C77.548 17.9253 78.0334 18.4587 78.3854 19.152C78.748 19.8347 78.9294 20.6293 78.9294 21.536C78.9294 22.4427 78.748 23.248 78.3854 23.952C78.0334 24.6453 77.548 25.184 76.9294 25.568C76.3214 25.952 75.6387 26.144 74.8814 26.144C74.2307 26.144 73.6547 26.0107 73.1534 25.744C72.6627 25.4773 72.2627 25.1413 71.9534 24.736V30.224H69.7134V17.136H71.9534V18.416ZM76.6414 21.536C76.6414 21.0027 76.5294 20.544 76.3054 20.16C76.092 19.7653 75.804 19.4667 75.4414 19.264C75.0894 19.0613 74.7054 18.96 74.2894 18.96C73.884 18.96 73.5 19.0667 73.1374 19.28C72.7854 19.4827 72.4974 19.7813 72.2734 20.176C72.06 20.5707 71.9534 21.0347 71.9534 21.568C71.9534 22.1013 72.06 22.5653 72.2734 22.96C72.4974 23.3547 72.7854 23.6587 73.1374 23.872C73.5 24.0747 73.884 24.176 74.2894 24.176C74.7054 24.176 75.0894 24.0693 75.4414 23.856C75.804 23.6427 76.092 23.3387 76.3054 22.944C76.5294 22.5493 76.6414 22.08 76.6414 21.536ZM82.7971 14.16V26H80.5571V14.16H82.7971ZM93.4903 17.136L88.0023 30.192H85.6183L87.5383 25.776L83.9863 17.136H86.4983L88.7863 23.328L91.1063 17.136H93.4903ZM103.422 17.008C104.478 17.008 105.332 17.344 105.982 18.016C106.633 18.6773 106.958 19.6053 106.958 20.8V26H104.718V21.104C104.718 20.4 104.542 19.8613 104.19 19.488C103.838 19.104 103.358 18.912 102.75 18.912C102.132 18.912 101.641 19.104 101.278 19.488C100.926 19.8613 100.75 20.4 100.75 21.104V26H98.5103V17.136H100.75V18.24C101.049 17.856 101.428 17.5573 101.886 17.344C102.356 17.12 102.868 17.008 103.422 17.008ZM113.024 26.144C112.171 26.144 111.403 25.9573 110.72 25.584C110.038 25.2 109.499 24.6613 109.104 23.968C108.72 23.2747 108.528 22.4747 108.528 21.568C108.528 20.6613 108.726 19.8613 109.12 19.168C109.526 18.4747 110.075 17.9413 110.768 17.568C111.462 17.184 112.235 16.992 113.088 16.992C113.942 16.992 114.715 17.184 115.408 17.568C116.102 17.9413 116.646 18.4747 117.04 19.168C117.446 19.8613 117.648 20.6613 117.648 21.568C117.648 22.4747 117.44 23.2747 117.024 23.968C116.619 24.6613 116.064 25.2 115.36 25.584C114.667 25.9573 113.888 26.144 113.024 26.144ZM113.024 24.192C113.43 24.192 113.808 24.096 114.16 23.904C114.523 23.7013 114.811 23.4027 115.024 23.008C115.238 22.6133 115.344 22.1333 115.344 21.568C115.344 20.7253 115.12 20.08 114.672 19.632C114.235 19.1733 113.696 18.944 113.056 18.944C112.416 18.944 111.878 19.1733 111.44 19.632C111.014 20.08 110.8 20.7253 110.8 21.568C110.8 22.4107 111.008 23.0613 111.424 23.52C111.851 23.968 112.384 24.192 113.024 24.192ZM131.58 17.136L128.988 26H126.572L124.956 19.808L123.34 26H120.908L118.3 17.136H120.572L122.14 23.888L123.836 17.136H126.204L127.868 23.872L129.436 17.136H131.58Z" fill="#F9F9F9"/>
<defs>
<filter id="filter0_b_503_50" x="-100" y="-100" width="407" height="240" filterUnits="userSpaceOnUse" color-interpolation-filters="sRGB">
<feFlood flood-opacity="0" result="BackgroundImageFix"/>
<feGaussianBlur in="BackgroundImageFix" stdDeviation="50"/>
<feComposite in2="SourceAlpha" operator="in" result="effect1_backgroundBlur_503_50"/>
<feBlend mode="normal" in="SourceGraphic" in2="effect1_backgroundBlur_503_50" result="shape"/>
</filter>
<linearGradient id="paint0_linear_503_50" x1="256.754" y1="51" x2="-5.35678" y2="21.3422" gradientUnits="userSpaceOnUse">
<stop stop-color="#DF7D7D"/>
<stop offset="1" stop-color="#B487EE"/>
</linearGradient>
</defs>
</svg>
