<?xml version="1.0" standalone="no"?>
<!DOCTYPE svg PUBLIC "-//W3C//DTD SVG 20010904//EN"
 "http://www.w3.org/TR/2001/REC-SVG-20010904/DTD/svg10.dtd">
<svg version="1.0" xmlns="http://www.w3.org/2000/svg"
 width="900.000000pt" height="170.000000pt" viewBox="0 0 900.000000 170.000000"
 preserveAspectRatio="xMidYMid meet">

<g transform="translate(0.000000,170.000000) scale(0.100000,-0.100000)"
fill="#000000" stroke="none">
<path d="M564 1687 c-11 -13 -5 -23 25 -41 9 -6 12 -5 7 2 -3 6 -2 13 4 17 6
4 5 11 -4 21 -17 17 -18 17 -32 1z"/>
<path d="M536 1601 c3 -9 10 -31 14 -48 6 -26 5 -33 -7 -33 -8 0 -13 -6 -10
-12 2 -7 12 -11 22 -10 16 3 17 1 6 -12 -14 -17 -71 -22 -71 -6 0 5 8 13 18
19 16 9 16 10 -3 17 -11 4 -23 12 -27 18 -5 7 -13 4 -22 -9 -20 -27 -20 -46 0
-38 12 4 15 1 12 -13 -2 -14 -13 -20 -38 -22 -28 -3 -33 -1 -22 9 17 18 15 40
-3 33 -20 -8 -19 14 2 40 10 12 5 10 -10 -5 l-28 -25 29 -73 c16 -40 31 -68
33 -62 14 41 275 40 300 -1 7 -11 9 -10 9 1 0 8 -8 20 -17 28 -17 14 -17 14 3
10 18 -4 26 4 45 45 l23 49 -29 27 c-16 15 -22 18 -12 6 21 -26 22 -48 2 -40
-18 7 -20 -15 -2 -33 10 -10 5 -12 -23 -9 -25 2 -36 8 -38 22 -3 14 0 17 12
13 20 -8 20 11 0 38 -9 13 -17 16 -22 9 -4 -6 -16 -14 -27 -18 -19 -7 -19 -8
-2 -17 9 -6 17 -15 17 -20 0 -15 -63 -7 -68 9 -2 7 2 10 12 6 11 -4 16 -1 16
10 0 9 -6 16 -14 16 -14 0 -10 37 8 81 6 14 -1 16 -44 16 -43 0 -50 -2 -44
-16z m64 -11 c0 -8 -5 -22 -10 -30 -9 -13 -11 -13 -20 0 -16 25 -12 46 10 46
11 0 20 -7 20 -16z m115 -155 c22 -8 29 -13 15 -10 -128 30 -189 29 -300 -1
-14 -4 -23 -4 -19 -1 3 4 30 13 60 22 65 18 185 13 244 -10z m-210 -15 c3 -6
-4 -10 -17 -10 -18 0 -20 2 -8 10 19 12 18 12 25 0z m125 0 c0 -5 -20 -10 -44
-10 -25 0 -48 5 -51 10 -4 6 13 10 44 10 28 0 51 -4 51 -10z m50 0 c12 -8 11
-10 -7 -10 -13 0 -23 5 -23 10 0 13 11 13 30 0z m-235 -20 c-3 -5 -10 -10 -16
-10 -5 0 -9 5 -9 10 0 6 7 10 16 10 8 0 12 -4 9 -10z"/>
<path d="M493 1373 c9 -2 25 -2 35 0 9 3 1 5 -18 5 -19 0 -27 -2 -17 -5z"/>
<path d="M633 1373 c9 -2 25 -2 35 0 9 3 1 5 -18 5 -19 0 -27 -2 -17 -5z"/>
<path d="M448 1363 c7 -3 16 -2 19 1 4 3 -2 6 -13 5 -11 0 -14 -3 -6 -6z"/>
<path d="M124 1335 c-3 -8 -4 -142 -1 -297 3 -228 8 -295 21 -343 25 -83 66
-172 116 -246 51 -76 205 -231 274 -277 l49 -32 51 37 c200 143 335 328 386
528 18 73 20 107 18 360 l-3 280 -453 2 c-385 2 -454 0 -458 -12z m174 -39 c7
-4 12 -22 12 -41 0 -31 -2 -33 -37 -36 -21 -2 -54 -2 -73 1 -30 4 -36 9 -38
33 -2 19 3 33 14 42 19 13 101 14 122 1z m610 -124 l112 -46 0 -64 c0 -35 -4
-62 -8 -60 -5 2 -103 43 -219 91 l-211 89 -217 -91 c-119 -50 -219 -91 -221
-91 -3 0 -4 28 -2 62 l3 62 219 92 218 92 107 -45 c58 -25 157 -65 219 -91z
m80 129 c7 -1 12 -16 12 -40 0 -38 -1 -39 -37 -42 -21 -2 -54 -2 -73 1 -30 4
-35 9 -38 35 -6 48 21 58 136 46z m-366 -218 c25 -23 40 -29 86 -32 7 -1 10
-6 6 -12 -4 -7 -21 -9 -41 -6 -19 3 -46 1 -59 -5 -20 -9 -27 -9 -33 1 -7 10
-13 11 -31 1 -14 -8 -25 -8 -29 -2 -3 5 -16 13 -29 17 -31 9 -23 27 16 37 17
5 34 13 37 18 11 18 49 10 77 -17z m398 -205 c0 -57 -7 -131 -15 -166 -20 -84
-74 -199 -129 -275 -49 -69 -165 -185 -240 -240 -48 -37 -49 -37 -78 -19 -56
32 -162 127 -221 197 -126 150 -185 298 -194 488 l-6 117 442 0 441 0 0 -102z"/>
<path d="M567 1260 c-3 -8 -8 -22 -10 -30 -4 -9 -6 -6 -6 8 -1 12 -6 22 -12
22 -7 0 -8 -11 -4 -30 8 -36 -2 -40 -15 -5 l-9 25 -63 -27 c-35 -15 -65 -28
-67 -29 -2 -2 2 -17 9 -33 l12 -30 51 23 c29 13 51 28 50 35 -2 6 5 10 15 9
42 -3 62 3 62 19 0 15 2 14 15 -3 13 -18 14 -16 14 21 -1 22 -3 32 -6 22 -5
-18 -5 -18 -18 0 -11 15 -14 16 -18 3z m-57 -34 c0 -3 -4 -8 -10 -11 -5 -3
-10 -1 -10 4 0 6 5 11 10 11 6 0 10 -2 10 -4z m-33 -48 c-20 -13 -30 -9 -17 7
10 12 9 15 -6 15 -16 0 -17 2 -4 10 11 7 19 5 27 -7 10 -13 10 -18 0 -25z
m-37 -9 c0 -4 -7 -10 -16 -13 -12 -4 -15 -2 -10 9 3 8 0 15 -7 15 -8 0 -7 4 3
10 13 8 29 -3 30 -21z"/>
<path d="M625 1229 c-5 -16 -2 -26 11 -36 21 -15 32 -7 36 27 4 34 -37 42 -47
9z m32 -14 c-15 -16 -22 -11 -13 10 3 9 10 13 16 10 6 -4 5 -11 -3 -20z"/>
<path d="M697 1198 c-8 -28 1 -41 24 -35 11 3 19 0 19 -8 0 -17 27 -27 36 -14
3 6 12 2 21 -11 8 -12 21 -19 29 -16 8 3 14 0 14 -7 1 -16 30 23 30 41 0 7 -4
11 -9 8 -5 -3 -12 1 -15 10 -4 10 -14 14 -25 11 -12 -3 -22 1 -25 9 -3 8 -14
14 -25 14 -11 0 -23 5 -26 10 -11 18 -43 11 -48 -12z m53 -9 c0 -14 -17 -10
-23 5 -4 10 -1 13 9 9 7 -3 14 -9 14 -14z m21 -32 c-8 -8 -11 -7 -11 4 0 20
13 34 18 19 3 -7 -1 -17 -7 -23z m67 -9 c18 -18 15 -27 -8 -21 -11 3 -20 12
-20 19 0 17 12 18 28 2z"/>
<path d="M360 1177 c0 -10 -5 -15 -10 -12 -6 3 -19 4 -30 0 -16 -5 -18 -10 -9
-33 l9 -27 -19 25 c-19 23 -20 24 -39 7 -10 -9 -22 -14 -27 -10 -4 5 -5 -1 -1
-11 5 -15 4 -17 -7 -7 -10 8 -22 8 -46 0 -26 -9 -30 -15 -25 -33 10 -34 21
-40 49 -28 18 8 23 16 18 29 -6 16 -5 17 12 3 14 -11 19 -12 22 -2 3 6 9 10
14 6 16 -9 90 29 85 43 -4 11 -1 11 14 3 24 -13 26 3 5 40 -11 20 -14 21 -15
7z m-20 -52 c0 -5 -5 -3 -10 5 -5 8 -10 20 -10 25 0 6 5 3 10 -5 5 -8 10 -19
10 -25z m-53 -10 c0 -8 -4 -12 -9 -9 -4 3 -8 9 -8 15 0 5 4 9 8 9 5 0 9 -7 9
-15z m-77 -40 c0 -7 -7 -15 -15 -19 -8 -3 -15 -1 -15 3 0 5 6 12 13 14 6 3 3
6 -8 6 -16 1 -17 3 -5 10 17 11 30 5 30 -14z"/>
<path d="M871 1123 c-10 -21 -9 -28 1 -34 22 -14 31 -10 17 8 -12 15 -12 16 4
10 9 -3 17 -2 17 3 0 6 -5 10 -12 10 -6 0 -9 2 -6 5 3 3 12 3 21 -1 12 -4 15
-14 11 -37 l-5 -32 16 28 c20 35 38 25 29 -16 l-6 -32 26 28 c30 32 32 39 11
31 -8 -4 -15 -1 -15 5 0 9 -78 51 -94 51 -2 0 -8 -12 -15 -27z"/>
<path d="M562 845 c-19 -22 -23 -96 -6 -123 9 -13 14 -33 12 -45 -3 -19 -6
-16 -23 18 -11 22 -25 46 -32 53 -7 7 -13 16 -13 20 0 4 -13 8 -29 9 -26 2
-28 -1 -26 -25 4 -44 16 -72 31 -72 8 0 14 -7 14 -15 0 -9 9 -15 24 -15 32 0
48 -22 44 -62 l-3 -33 -24 38 c-12 20 -30 37 -40 37 -9 0 -22 9 -29 21 -7 11
-19 18 -27 15 -8 -3 -15 0 -18 7 -2 6 -18 12 -35 13 -30 2 -31 0 -30 -34 1
-25 7 -36 20 -40 10 -2 18 -13 18 -24 0 -17 5 -19 29 -16 22 3 28 1 24 -10 -8
-21 17 -32 57 -26 45 7 62 -11 58 -63 -3 -34 -8 -40 -45 -58 -59 -29 -61 -34
-6 -23 26 5 86 7 133 4 84 -5 85 -3 13 24 -31 12 -33 15 -33 61 0 55 9 64 65
64 32 0 40 3 39 18 -2 13 3 16 17 12 14 -5 21 0 28 18 5 13 18 26 28 29 13 4
19 14 18 34 0 25 -4 29 -29 29 -16 1 -33 -6 -39 -16 -6 -9 -16 -15 -23 -12 -7
2 -17 -5 -24 -16 -6 -11 -16 -20 -22 -18 -6 1 -18 -10 -25 -25 -20 -40 -45
-37 -41 4 2 27 8 33 36 40 17 5 32 13 32 18 0 6 7 10 15 10 9 0 19 8 22 18 4
9 10 19 14 22 4 3 9 19 10 35 4 27 1 30 -25 30 -15 1 -30 -5 -33 -12 -3 -7
-11 -13 -19 -13 -8 0 -14 -9 -14 -19 0 -10 -6 -21 -14 -24 -8 -3 -16 -16 -19
-29 -3 -18 -5 -16 -6 9 0 17 4 35 10 38 14 9 3 103 -15 121 -18 17 -27 17 -44
-1z"/>
<path d="M505 842 c5 -9 -1 -15 -14 -19 -12 -3 -21 -9 -21 -14 0 -17 31 -22
46 -7 12 12 12 16 -2 33 -8 11 -12 14 -9 7z"/>
<path d="M660 835 c-7 -8 -10 -22 -6 -30 7 -20 46 -20 46 0 0 8 -7 15 -16 15
-10 0 -14 6 -10 15 7 19 2 19 -14 0z"/>
<path d="M385 760 c4 -6 -1 -17 -11 -25 -18 -13 -18 -14 -1 -20 17 -7 47 9 47
26 0 5 -10 13 -21 20 -16 8 -20 8 -14 -1z"/>
<path d="M774 746 c-18 -14 -18 -16 -2 -32 9 -9 24 -14 32 -11 19 7 22 28 4
25 -7 -2 -12 5 -12 15 2 21 3 21 -22 3z"/>
<path d="M324 603 c-9 -3 -9 -10 0 -28 13 -29 36 -33 36 -6 0 21 -20 40 -36
34z"/>
<path d="M810 585 c0 -16 6 -25 15 -25 8 0 15 7 15 15 0 21 20 19 21 -2 0 -12
2 -13 6 -5 7 17 -15 42 -38 42 -14 0 -19 -7 -19 -25z"/>
<path d="M1406 1321 c-3 -5 5 -12 19 -15 17 -4 25 -14 26 -29 0 -12 4 -80 8
-151 7 -127 7 -128 38 -156 60 -53 174 -51 229 4 35 35 39 51 50 219 5 91 8
99 30 109 38 18 17 28 -57 28 -73 0 -89 -11 -39 -29 l30 -10 0 -123 c0 -105
-3 -128 -20 -155 -22 -37 -53 -48 -111 -40 -79 10 -99 54 -99 215 0 100 1 103
25 114 14 6 25 15 25 20 0 11 -147 10 -154 -1z"/>
<path d="M1847 1324 c-4 -4 8 -14 26 -23 l32 -16 3 -125 c4 -158 -1 -188 -33
-196 -49 -12 -24 -24 50 -24 80 0 94 8 45 27 l-30 11 0 132 c0 72 3 129 8 127
4 -3 59 -71 122 -151 84 -106 121 -145 137 -146 21 0 22 3 25 171 3 165 4 172
26 187 37 24 26 32 -47 32 -74 0 -102 -14 -50 -25 17 -4 32 -12 35 -19 3 -7 3
-68 2 -136 l-3 -124 -125 152 -124 152 -46 0 c-26 0 -50 -3 -53 -6z"/>
<path d="M2320 1322 c0 -5 11 -14 25 -20 l25 -12 0 -160 0 -160 -25 -6 c-51
-13 -23 -24 60 -24 84 0 112 12 55 24 l-30 6 0 165 0 165 25 6 c14 3 22 10 19
15 -7 11 -154 12 -154 1z"/>
<path d="M2490 1323 c0 -5 13 -15 29 -24 24 -14 38 -42 92 -188 79 -216 82
-217 150 -46 78 192 99 233 126 240 43 10 13 25 -52 25 -66 0 -95 -15 -50 -26
14 -3 25 -13 25 -23 1 -19 -92 -261 -100 -261 -7 0 -101 251 -100 267 0 6 9
15 20 18 11 4 18 11 15 16 -7 11 -155 12 -155 2z"/>
<path d="M2920 1321 c0 -5 11 -12 25 -15 l25 -6 0 -158 c0 -167 -4 -182 -47
-182 -13 0 -23 -4 -23 -10 0 -6 58 -10 154 -10 l153 0 13 45 c7 25 9 49 5 53
-4 4 -10 0 -13 -8 -3 -8 -18 -27 -33 -42 -28 -29 -57 -34 -118 -22 l-31 7 0
76 0 76 56 -3 c45 -3 57 -8 61 -23 10 -36 21 -19 25 37 4 64 -3 74 -26 39 -14
-21 -24 -25 -66 -25 l-50 0 0 75 0 75 61 0 c58 0 60 -1 70 -30 13 -35 29 -40
29 -7 0 12 3 32 6 45 l6 22 -141 0 c-77 0 -141 -4 -141 -9z"/>
<path d="M3265 1320 c-3 -5 2 -10 12 -10 38 0 43 -19 43 -175 0 -156 -5 -175
-42 -175 -10 0 -18 -4 -18 -10 0 -6 35 -10 85 -10 50 0 85 4 85 10 0 6 -9 10
-20 10 -26 0 -40 36 -40 101 0 48 1 49 30 49 25 0 36 -10 80 -75 28 -41 59
-79 70 -85 12 -6 42 -10 68 -8 l47 3 -36 17 c-34 15 -139 137 -139 161 0 5 11
18 24 28 35 28 51 81 34 116 -22 46 -70 63 -180 63 -54 0 -100 -4 -103 -10z
m204 -37 c33 -27 38 -82 11 -116 -18 -22 -29 -27 -66 -27 l-44 0 0 73 c0 41 3
77 7 80 13 13 71 7 92 -10z"/>
<path d="M3741 1316 c-28 -16 -50 -52 -51 -84 0 -42 28 -79 95 -120 70 -45 91
-76 75 -116 -11 -30 -22 -37 -60 -38 -43 -1 -75 18 -94 58 -21 44 -36 36 -26
-14 10 -55 15 -60 66 -68 61 -9 116 9 148 47 51 60 26 128 -64 174 -51 26 -90
67 -90 94 0 35 30 61 70 61 42 0 70 -20 70 -51 0 -26 16 -24 24 4 17 63 12 67
-66 67 -41 -1 -83 -6 -97 -14z"/>
<path d="M3970 1320 c0 -5 11 -12 24 -16 31 -7 36 -36 35 -178 -1 -133 -7
-160 -37 -164 -12 -2 -22 -8 -22 -13 0 -5 38 -9 85 -9 50 0 85 4 85 10 0 6 -8
10 -18 10 -38 0 -42 19 -42 177 l0 153 25 12 c44 20 27 28 -55 28 -46 0 -80
-4 -80 -10z"/>
<path d="M4180 1311 c0 -10 -3 -33 -6 -50 -9 -43 11 -40 32 4 16 35 18 36 68
33 l51 -3 -4 -160 c-4 -166 -6 -175 -48 -175 -13 0 -23 -4 -23 -10 0 -6 38
-10 95 -10 57 0 95 4 95 10 0 6 -8 10 -18 10 -38 0 -42 19 -42 182 l0 158 48
0 c53 0 72 -12 72 -48 0 -43 25 -17 30 31 l6 47 -178 0 c-167 0 -178 -1 -178
-19z"/>
<path d="M4570 1321 c0 -5 12 -13 28 -19 20 -7 40 -32 76 -98 41 -73 50 -100
54 -152 5 -66 -6 -92 -39 -92 -10 0 -21 -4 -24 -10 -4 -6 27 -10 84 -10 50 0
91 4 91 9 0 5 -10 11 -22 13 -20 3 -24 11 -30 67 -8 71 -6 77 65 193 26 43 51
72 69 79 46 19 32 29 -42 29 -68 0 -91 -12 -50 -25 11 -3 20 -11 20 -17 0 -15
-71 -148 -79 -148 -4 0 -24 35 -45 77 -33 68 -36 78 -22 88 9 7 13 15 9 18
-10 11 -143 8 -143 -2z"/>
<path d="M5199 1310 c-66 -35 -109 -106 -109 -181 0 -47 31 -118 66 -148 81
-72 202 -66 280 13 85 85 76 240 -18 308 -46 32 -166 37 -219 8z m151 -22 c58
-40 74 -71 78 -152 3 -55 0 -83 -13 -110 -57 -119 -227 -67 -254 76 -27 150
83 258 189 186z"/>
<path d="M5550 1322 c0 -4 10 -12 23 -17 21 -10 22 -15 25 -164 3 -160 -2
-181 -39 -181 -11 0 -19 -4 -19 -10 0 -6 37 -10 90 -10 89 0 119 12 60 24 -32
6 -30 -1 -34 126 -1 22 4 25 38 28 54 5 83 -4 89 -28 11 -43 27 -19 27 40 0
59 -13 79 -25 40 -5 -16 -16 -20 -51 -21 -24 -1 -52 -2 -61 -3 -12 -1 -17 6
-17 19 1 11 2 46 2 78 l2 57 58 0 c60 0 82 -11 82 -42 0 -10 6 -18 14 -18 9 0
15 15 18 45 l3 45 -142 0 c-79 0 -143 -3 -143 -8z"/>
<path d="M6010 1311 c0 -10 -3 -33 -6 -50 -9 -43 12 -40 33 4 17 35 19 36 68
33 l50 -3 -4 -160 c-4 -166 -6 -175 -48 -175 -13 0 -23 -4 -23 -10 0 -6 38
-10 95 -10 98 0 117 7 65 27 l-30 11 0 161 0 161 48 0 c53 0 72 -12 72 -48 0
-43 25 -17 30 31 l6 47 -178 0 c-167 0 -178 -1 -178 -19z"/>
<path d="M6521 1319 c-85 -34 -125 -100 -119 -199 7 -121 74 -185 193 -185
112 0 191 70 202 178 9 88 -30 167 -98 202 -31 17 -140 19 -178 4z m147 -37
c66 -48 91 -172 50 -252 -28 -55 -59 -72 -117 -67 -90 9 -136 73 -136 187 0
82 16 118 64 146 34 19 101 12 139 -14z"/>
<path d="M6855 1320 c-3 -5 2 -10 12 -10 38 0 43 -19 43 -175 0 -156 -5 -175
-42 -175 -10 0 -18 -4 -18 -10 0 -6 35 -10 85 -10 50 0 85 4 85 10 0 6 -9 10
-20 10 -27 0 -40 30 -40 94 0 56 0 56 30 56 26 0 36 -9 74 -69 25 -38 55 -76
67 -85 26 -18 124 -23 114 -6 -3 6 -14 10 -24 10 -20 0 -63 44 -114 114 l-35
50 34 31 c27 26 34 40 34 69 0 82 -42 106 -184 106 -52 0 -98 -4 -101 -10z
m204 -37 c33 -27 38 -82 11 -116 -18 -22 -29 -27 -66 -27 l-44 0 0 73 c0 41 3
77 7 80 13 13 71 7 92 -10z"/>
<path d="M7365 1313 c-126 -66 -154 -226 -56 -324 85 -85 226 -73 305 25 27
33 31 47 34 112 4 65 1 79 -22 119 -36 60 -85 85 -168 85 -37 -1 -75 -7 -93
-17z m153 -30 c51 -38 66 -70 70 -143 5 -81 -8 -119 -50 -155 -74 -62 -181
-10 -214 103 -23 78 -7 148 43 193 32 28 41 31 81 26 24 -3 56 -13 70 -24z"/>
<path d="M7690 1323 c0 -5 15 -15 33 -23 l32 -15 3 -95 c2 -52 0 -123 -3 -158
-6 -55 -9 -63 -31 -68 -48 -12 -23 -24 51 -24 43 0 75 4 75 10 0 6 -8 10 -19
10 -36 0 -42 22 -39 155 l3 127 120 -151 c91 -114 125 -151 143 -151 22 0 22
0 22 168 0 92 4 172 8 178 4 6 15 13 25 17 40 15 14 27 -58 27 -76 0 -100 -13
-45 -25 38 -8 42 -22 38 -165 l-3 -115 -125 153 -125 152 -52 0 c-29 0 -53 -3
-53 -7z"/>
<path d="M8176 1299 c-15 -74 -1 -92 27 -34 16 33 19 35 67 35 l50 0 0 -158
c0 -167 -4 -182 -47 -182 -13 0 -23 -4 -23 -10 0 -6 38 -10 95 -10 57 0 95 4
95 10 0 6 -8 10 -18 10 -38 0 -42 19 -42 183 l0 158 52 -3 c50 -3 53 -5 62
-35 11 -41 22 -42 30 -2 14 73 25 69 -168 69 l-173 0 -7 -31z"/>
<path d="M8675 1312 c-105 -49 -142 -171 -86 -280 24 -47 50 -71 98 -88 74
-26 152 -12 209 38 50 44 67 83 68 153 0 73 -23 125 -72 163 -47 36 -156 43
-217 14z m143 -21 c55 -28 85 -88 85 -170 0 -78 -20 -124 -63 -146 -67 -34
-144 -5 -187 70 -32 57 -32 158 0 206 40 60 98 74 165 40z"/>
<path d="M73 695 c-3 -9 -3 -18 -1 -21 3 -3 8 4 11 16 6 23 -1 27 -10 5z"/>
<path d="M1040 689 c-6 -11 -10 -25 -8 -30 2 -5 8 4 15 21 13 34 9 40 -7 9z"/>
<path d="M1083 688 c-1 -13 -9 -28 -18 -34 -8 -6 -15 -14 -15 -18 0 -3 -16
-26 -35 -52 -19 -25 -35 -53 -35 -62 1 -10 7 -4 14 13 7 17 32 52 55 80 22 27
41 55 41 62 0 7 5 13 11 13 5 0 7 5 4 10 -10 17 -21 11 -22 -12z"/>
<path d="M1410 701 c0 -5 9 -11 20 -14 20 -5 20 -12 18 -144 -3 -129 -4 -138
-23 -141 -11 -2 -24 -8 -29 -13 -6 -5 43 -9 121 -9 l131 0 12 36 c13 38 5 60
-11 32 -22 -40 -41 -49 -93 -46 l-51 3 -3 63 -3 62 46 0 c31 0 47 -5 51 -15
12 -32 24 -13 23 38 0 50 -1 51 -16 30 -12 -18 -25 -23 -59 -23 l-44 0 0 60 0
60 50 0 c46 0 52 -3 61 -27 10 -26 12 -27 19 -8 5 11 9 30 9 43 1 22 -1 22
-114 22 -63 0 -115 -4 -115 -9z"/>
<path d="M1690 700 c0 -5 6 -10 14 -10 44 0 54 -55 39 -214 -5 -55 -10 -70
-25 -74 -38 -10 -15 -22 42 -22 63 0 75 8 38 25 -22 9 -23 17 -26 119 -3 130
-9 132 115 -30 116 -150 123 -150 123 5 0 142 7 182 31 188 33 9 11 19 -45 22
-30 1 -57 -3 -61 -9 -3 -5 1 -10 9 -10 36 0 46 -28 46 -131 0 -54 -3 -99 -7
-99 -5 1 -53 57 -108 125 l-99 125 -43 0 c-24 0 -43 -4 -43 -10z"/>
<path d="M2195 696 c-61 -27 -95 -85 -95 -159 0 -118 106 -186 244 -157 l53
11 -5 49 c-4 40 -1 51 12 56 35 13 13 24 -49 24 -62 0 -91 -15 -42 -22 19 -3
22 -10 25 -50 3 -40 0 -47 -18 -53 -26 -8 -77 3 -108 23 -70 46 -79 189 -15
248 50 47 173 25 173 -31 0 -30 18 -14 23 22 4 24 2 40 -6 45 -20 13 -160 8
-192 -6z"/>
<path d="M2460 701 c0 -5 9 -11 20 -14 19 -5 20 -14 20 -142 0 -128 -1 -137
-20 -142 -43 -11 -17 -23 50 -23 66 0 98 15 48 22 -22 3 -23 6 -26 141 -2 132
-2 139 18 144 41 11 18 23 -45 23 -36 0 -65 -4 -65 -9z"/>
<path d="M2620 702 c0 -4 10 -12 23 -17 21 -10 22 -15 22 -140 0 -125 -1 -130
-22 -140 -39 -17 -25 -25 42 -25 37 0 65 4 65 10 0 6 -9 10 -20 10 -29 0 -31
12 -28 129 l3 103 99 -126 c133 -169 136 -169 136 19 0 134 1 146 20 157 33
21 23 28 -40 28 -61 0 -80 -13 -35 -24 25 -6 25 -7 25 -119 l-1 -112 -29 35
c-16 19 -62 76 -102 127 -71 90 -74 92 -115 93 -24 0 -43 -3 -43 -8z"/>
<path d="M3020 701 c0 -5 9 -11 20 -14 20 -5 20 -12 18 -144 l-3 -138 -27 -3
c-16 -2 -28 -8 -28 -13 0 -5 56 -9 128 -9 l129 0 11 37 c15 49 7 55 -24 15
-23 -28 -31 -32 -75 -32 -55 0 -54 -1 -64 78 l-6 52 51 0 c36 0 52 -4 56 -15
12 -31 24 -13 24 35 0 50 -13 67 -23 30 -4 -17 -14 -20 -57 -20 l-53 0 7 46
c3 26 6 53 6 61 0 11 13 13 53 11 45 -3 52 -6 55 -25 4 -27 22 -31 22 -5 0 9
3 27 6 40 6 22 6 22 -110 22 -64 0 -116 -4 -116 -9z"/>
<path d="M3310 701 c0 -5 9 -11 20 -14 20 -5 20 -12 18 -144 -3 -129 -4 -138
-23 -141 -11 -2 -24 -8 -30 -13 -6 -6 41 -9 125 -7 l134 3 8 34 c9 32 0 60
-10 32 -13 -37 -43 -52 -95 -49 l-52 3 -3 63 -3 62 51 0 c38 0 50 -4 50 -15 0
-8 4 -15 9 -15 12 0 19 90 8 97 -5 3 -11 -4 -14 -16 -4 -18 -13 -21 -54 -21
l-49 0 0 60 0 60 50 0 c44 0 52 -3 62 -25 14 -32 28 -22 28 21 l0 34 -115 0
c-63 0 -115 -4 -115 -9z"/>
<path d="M3600 698 c0 -3 10 -8 23 -10 21 -3 22 -7 25 -123 3 -141 -1 -165
-28 -165 -11 0 -20 -4 -20 -10 0 -6 30 -10 70 -10 40 0 70 4 70 10 0 6 -9 10
-19 10 -10 0 -22 7 -25 16 -8 20 -8 99 0 106 15 15 49 -10 85 -63 22 -32 48
-63 59 -69 23 -13 230 -13 230 -1 0 5 -10 11 -22 13 -22 3 -23 6 -26 141 -2
132 -2 139 18 144 37 10 9 23 -50 23 -62 0 -87 -14 -45 -24 l26 -7 -3 -136 -3
-137 -27 -7 c-34 -9 -57 7 -113 79 l-44 55 30 28 c51 48 36 121 -29 138 -41
11 -182 10 -182 -1z m153 -19 c30 -16 37 -28 37 -70 0 -45 -15 -59 -62 -59
l-38 0 0 63 c0 81 12 93 63 66z"/>
<path d="M4090 701 c0 -5 11 -12 24 -15 13 -3 25 -11 27 -18 3 -7 2 -69 -1
-138 -5 -120 -6 -125 -27 -128 -49 -7 -20 -22 42 -22 37 0 65 4 65 10 0 6 -6
10 -14 10 -30 0 -37 27 -34 131 l3 104 100 -127 c60 -77 107 -128 118 -128 15
0 17 13 17 140 0 127 2 142 20 160 11 11 20 22 20 23 0 2 -27 5 -60 6 -60 2
-81 -11 -36 -23 18 -4 25 -15 30 -43 8 -53 8 -183 -1 -183 -5 0 -53 56 -108
125 -100 124 -100 125 -142 125 -24 0 -43 -4 -43 -9z"/>
<path d="M4600 699 c-63 -25 -100 -85 -100 -161 0 -121 103 -188 244 -158 l53
11 -5 54 c-4 46 -2 55 12 55 9 0 16 5 16 10 0 6 -28 10 -65 10 -62 0 -91 -15
-42 -22 19 -3 22 -10 25 -50 3 -44 1 -48 -22 -54 -58 -14 -119 19 -147 79 -24
53 -24 101 0 154 24 51 45 63 110 63 53 0 91 -23 91 -55 0 -8 4 -15 9 -15 13
0 20 74 7 82 -16 11 -157 8 -186 -3z"/>
<path d="M4999 681 c-16 -17 -29 -40 -29 -54 0 -33 39 -79 95 -112 64 -37 74
-92 21 -116 -35 -16 -81 4 -96 42 -23 54 -42 22 -21 -34 12 -32 70 -43 126
-25 29 10 45 23 60 51 18 34 19 39 5 64 -8 15 -42 45 -75 68 -49 33 -61 46
-63 72 -7 66 88 83 104 18 10 -39 24 -30 24 15 l0 40 -61 0 c-54 0 -64 -3 -90
-29z"/>
<path d="M5294 685 c-51 -30 -74 -76 -74 -145 0 -116 88 -187 200 -160 140 34
178 227 60 308 -47 32 -130 31 -186 -3z m137 -11 c59 -30 85 -135 54 -211 -20
-47 -41 -62 -90 -63 -51 0 -82 21 -106 74 -61 135 27 260 142 200z"/>
<path d="M5695 687 c-56 -31 -88 -95 -81 -160 10 -96 72 -150 171 -151 75 -1
99 9 118 49 20 43 10 45 -28 5 -50 -52 -137 -38 -183 30 -21 30 -23 44 -20
104 3 62 7 71 36 97 58 52 172 35 172 -24 0 -9 4 -17 9 -17 9 0 20 77 12 86
-2 2 -41 4 -85 4 -65 0 -89 -5 -121 -23z"/>
<path d="M5950 701 c0 -5 8 -11 18 -14 24 -6 35 -101 26 -207 -6 -59 -11 -74
-26 -78 -41 -10 -14 -22 52 -22 66 0 98 15 48 22 -22 3 -23 6 -26 141 -2 132
-2 139 18 144 41 11 18 23 -45 23 -36 0 -65 -4 -65 -9z"/>
<path d="M6130 701 c0 -5 9 -11 20 -14 20 -5 20 -12 18 -144 l-3 -138 -27 -3
c-16 -2 -28 -8 -28 -13 0 -5 54 -9 126 -9 l125 0 15 36 c20 48 9 56 -22 16
-22 -28 -31 -32 -73 -32 -26 0 -52 5 -59 12 -7 7 -12 36 -12 65 l0 53 50 0
c36 0 52 -4 56 -15 12 -31 24 -13 24 35 0 50 -13 67 -23 30 -4 -17 -14 -20
-57 -20 l-51 0 3 58 3 57 55 0 c49 0 55 -2 58 -22 4 -27 22 -31 22 -5 0 9 3
27 6 40 6 22 6 22 -110 22 -64 0 -116 -4 -116 -9z"/>
<path d="M6400 665 c0 -25 2 -45 5 -45 2 0 11 14 20 30 14 26 21 30 59 30 l44
0 -5 -127 c-5 -150 -6 -153 -33 -153 -11 0 -20 -4 -20 -10 0 -6 33 -10 80 -10
47 0 80 4 80 10 0 6 -8 10 -18 10 -37 0 -42 20 -42 152 l0 128 46 0 c41 0 46
-3 55 -30 14 -39 26 -31 31 20 l4 40 -153 0 -153 0 0 -45z"/>
<path d="M6736 701 c-3 -5 4 -11 17 -15 33 -8 109 -145 115 -208 5 -52 -8 -78
-39 -78 -11 0 -19 -4 -19 -10 0 -6 32 -10 75 -10 43 0 75 4 75 10 0 6 -9 10
-19 10 -23 0 -31 19 -31 74 0 33 11 60 48 122 26 43 58 84 70 90 14 7 19 14
13 18 -14 9 -101 4 -107 -6 -3 -4 2 -8 10 -8 8 0 18 -4 21 -10 6 -10 -53 -130
-64 -130 -4 0 -21 29 -39 65 -27 54 -30 67 -17 71 8 4 12 10 9 15 -7 12 -111
12 -118 0z"/>
<path d="M111 683 c7 -12 15 -20 18 -17 3 2 -3 12 -13 22 -17 16 -18 16 -5 -5z"/>
<path d="M40 680 c-9 -6 -10 -10 -3 -10 6 0 15 5 18 10 8 12 4 12 -15 0z"/>
<path d="M1152 666 c7 -8 15 -12 17 -11 5 6 -10 25 -20 25 -5 0 -4 -6 3 -14z"/>
<path d="M4 655 c-9 -24 14 -69 54 -106 l36 -34 -37 42 c-37 43 -54 84 -42
102 3 6 4 11 0 11 -3 0 -8 -7 -11 -15z"/>
<path d="M80 655 c0 -4 18 -28 41 -52 22 -24 47 -58 54 -76 8 -18 14 -25 15
-16 0 16 -36 69 -84 123 -14 16 -26 26 -26 21z"/>
<path d="M1111 567 c-29 -35 -30 -38 -7 -17 24 22 52 60 44 60 -2 0 -18 -19
-37 -43z"/>
<path d="M1002 515 c-12 -13 -18 -27 -13 -29 4 -3 13 6 19 19 7 14 16 25 22
25 30 0 -6 -47 -83 -112 -67 -54 -126 -120 -213 -235 -30 -39 -63 -75 -75 -78
-11 -4 -18 -9 -16 -12 13 -12 51 24 108 100 87 116 303 326 324 315 8 -5 15
-7 15 -4 0 5 -54 36 -63 36 -2 0 -13 -11 -25 -25z"/>
<path d="M95 509 c-16 -10 -25 -19 -20 -19 6 0 16 4 24 9 9 6 27 -5 60 -38 25
-25 70 -66 99 -90 30 -24 96 -95 148 -157 52 -63 97 -114 100 -114 7 0 -130
165 -185 223 -25 27 -73 70 -105 95 -48 37 -57 48 -44 55 13 9 13 13 -5 34
-24 27 -32 28 -72 2z m65 -9 c9 -16 8 -20 -5 -20 -8 0 -15 2 -15 4 0 2 -3 11
-6 20 -9 23 13 20 26 -4z"/>
<path d="M1107 480 c3 -11 7 -20 9 -20 2 0 4 9 4 20 0 11 -4 20 -9 20 -5 0 -7
-9 -4 -20z"/>
<path d="M50 479 c0 -22 62 -99 113 -140 23 -18 67 -56 97 -83 30 -28 42 -36
26 -18 -17 17 -25 32 -19 32 6 0 9 9 6 21 -5 18 -3 20 18 15 20 -6 21 -5 6 4
-22 14 -37 5 -37 -22 0 -21 0 -21 -21 -2 -11 10 -16 20 -10 22 6 2 11 10 11
17 0 7 6 16 13 18 7 3 5 6 -5 6 -10 1 -18 -6 -18 -15 0 -9 -5 -12 -12 -8 -7 4
-8 3 -4 -4 4 -7 3 -12 -2 -12 -16 0 -135 124 -148 155 -7 16 -13 23 -14 14z"/>
<path d="M1051 394 c-29 -30 -58 -54 -63 -54 -7 0 -6 5 1 13 8 11 6 18 -9 32
-11 10 -20 13 -20 7 0 -6 5 -14 10 -17 6 -3 10 -11 10 -17 0 -6 -9 -3 -20 7
-11 10 -20 13 -20 7 0 -6 9 -17 20 -25 18 -13 17 -16 -31 -63 -28 -27 -66 -74
-86 -104 -20 -30 -52 -73 -72 -95 l-36 -40 34 30 c18 17 49 54 69 84 45 71
101 130 178 191 34 28 69 61 78 75 22 34 19 32 -43 -31z"/>
<path d="M994 429 c-3 -6 1 -18 10 -27 13 -14 18 -14 28 -3 10 11 10 12 1 7
-7 -4 -13 -2 -13 4 0 6 -5 8 -12 4 -8 -5 -9 -2 -5 9 7 19 2 23 -9 6z"/>
<path d="M917 331 c3 -12 9 -21 14 -21 14 0 11 16 -5 29 -12 10 -13 8 -9 -8z"/>
<path d="M895 310 c10 -11 19 -20 21 -20 1 0 0 9 -3 20 -3 11 -12 20 -21 20
-13 0 -12 -3 3 -20z"/>
<path d="M847 293 c-4 -6 2 -18 12 -27 15 -14 21 -15 27 -4 4 7 3 9 -1 5 -5
-4 -14 2 -21 14 -6 12 -14 17 -17 12z"/>
<path d="M314 258 l-19 -23 23 19 c21 18 27 26 19 26 -2 0 -12 -10 -23 -22z"/>
<path d="M806 241 c-9 -14 19 -32 38 -25 15 6 15 8 -1 20 -21 16 -30 17 -37 5z"/>
<path d="M344 218 c-14 -17 -15 -20 -2 -9 9 7 22 10 27 6 7 -3 8 0 5 9 -8 20
-7 20 -30 -6z"/>
<path d="M325 176 c10 -14 19 -26 22 -26 7 0 -17 39 -28 46 -6 3 -3 -5 6 -20z"/>
<path d="M776 191 c-3 -4 7 -14 22 -20 27 -13 27 -13 8 8 -22 24 -23 24 -30
12z"/>
<path d="M370 175 c-7 -9 -10 -18 -6 -22 3 -3 6 -1 6 6 0 7 5 9 10 6 6 -3 10
-1 10 5 0 6 5 8 12 4 7 -4 8 -3 4 4 -10 16 -21 15 -36 -3z"/>
<path d="M740 139 c0 -5 9 -9 21 -9 13 0 18 -4 13 -12 -4 -7 -3 -8 5 -4 6 4 9
11 6 15 -7 13 -45 21 -45 10z"/>
<path d="M371 111 c12 -16 35 -39 53 -52 21 -15 15 -6 -19 29 -27 29 -51 52
-53 52 -1 0 7 -13 19 -29z"/>
<path d="M540 45 c0 -14 4 -25 9 -25 5 0 8 8 7 18 -2 9 2 20 8 24 7 5 4 8 -6
8 -13 0 -18 -8 -18 -25z"/>
<path d="M608 45 c2 -14 6 -25 8 -25 2 0 4 11 4 25 0 14 -4 25 -9 25 -4 0 -6
-11 -3 -25z"/>
<path d="M704 34 c-18 -14 -18 -15 4 -4 12 6 22 13 22 15 0 8 -5 6 -26 -11z"/>
<path d="M467 29 c7 -7 15 -10 18 -7 3 3 -2 9 -12 12 -14 6 -15 5 -6 -5z"/>
<path d="M548 3 c12 -2 32 -2 45 0 12 2 2 4 -23 4 -25 0 -35 -2 -22 -4z"/>
</g>
</svg>
