<?xml version="1.0" encoding="utf-8"?>
<!-- Generator: Adobe Illustrator 24.2.1, SVG Export Plug-In . SVG Version: 6.00 Build 0)  -->
<svg version="1.1" id="layer" xmlns="http://www.w3.org/2000/svg" xmlns:xlink="http://www.w3.org/1999/xlink" x="0px" y="0px"
	 viewBox="0 0 652 309.4" style="enable-background:new 0 0 652 309.4;" xml:space="preserve">
<style type="text/css">
	.st0{fill:#202025;}
</style>
<path class="st0" d="M524.6,127.2h-33.8l-64.5,97.3l-64.9-97.3H328v182.2h45.3l-0.2-91.9l40.7,63v0.2H439v-0.2l40.4-62.5v91.4h45.3
	V127.2H524.6z M192.1,268.7V168h28.1c29.4,0,52.3,21.7,52.3,49.9c0,28.9-22.8,51-52.3,51h-28.1V268.7z M146.9,127.2v182.2h73.5
	c57,0,98.3-37.5,98.3-91.7c0-53.4-41.3-90.6-98.3-90.6h-73.5V127.2z M45.3,167.1h90.6v-40H0v182.2h45.3V245h78.2v-39.4H45.3
	C45.3,205.6,45.3,167.1,45.3,167.1z M548,0.5l38.7,53.2c0.3,0.4,0.9,0.5,1.3,0.4l62.5-20.3c1.1-0.3,2,0.9,1.3,1.8L613.1,89
	c-0.3,0.4-0.3,1,0,1.4l38.7,53.2c0.7,1-0.2,2.2-1.3,1.8L588,125.1c-0.4-0.1-1,0-1.3,0.4L548,178.5c-0.7,0.9-2.2,0.4-2.2-0.7v-65.7
	c0-0.5-0.3-1-0.8-1.1l-62.6-20.3c-1.1-0.3-1.1-1.8,0-2.3l62.6-20.3c0.4-0.1,0.8-0.7,0.8-1.1V1.3C545.8,0.1,547.3-0.5,548,0.5"/>
</svg>
