<?xml version="1.0" standalone="no"?>
<!DOCTYPE svg PUBLIC "-//W3C//DTD SVG 20010904//EN"
 "http://www.w3.org/TR/2001/REC-SVG-20010904/DTD/svg10.dtd">
<svg version="1.0" xmlns="http://www.w3.org/2000/svg"
 width="1228.000000pt" height="1230.000000pt" viewBox="0 0 1228.000000 1230.000000"
 preserveAspectRatio="xMidYMid meet">

<g transform="translate(0.000000,1230.000000) scale(0.100000,-0.100000)"
fill="#000000" stroke="none">
<path d="M0 6150 l0 -6150 6140 0 6140 0 0 6150 0 6150 -6140 0 -6140 0 0
-6150z m8995 4960 c3 -5 37 -10 74 -10 37 0 71 -4 77 -9 5 -5 29 -11 54 -14
25 -3 65 -10 90 -16 25 -5 59 -13 75 -16 17 -4 39 -10 50 -15 11 -4 47 -16 80
-25 97 -28 365 -143 385 -165 3 -3 26 -16 52 -29 26 -13 56 -32 67 -42 11 -11
27 -19 36 -19 8 0 15 -3 15 -8 0 -4 18 -18 40 -32 22 -14 40 -28 40 -32 0 -4
9 -9 19 -13 11 -3 37 -21 58 -40 21 -19 41 -35 45 -35 11 0 277 -267 310 -310
15 -19 38 -48 52 -64 14 -16 28 -37 31 -47 4 -11 9 -19 13 -19 4 0 18 -18 32
-40 14 -22 28 -40 32 -40 5 0 8 -7 8 -15 0 -9 8 -25 19 -36 10 -11 29 -41 42
-67 13 -26 26 -49 29 -52 17 -15 122 -254 146 -330 9 -30 21 -63 25 -72 5 -10
9 -29 9 -42 0 -14 4 -27 9 -30 5 -3 11 -18 14 -33 4 -16 11 -50 17 -78 6 -27
14 -70 17 -95 3 -25 9 -49 14 -54 5 -6 9 -40 9 -77 0 -37 5 -71 10 -74 13 -8
14 -437 1 -450 -5 -6 -12 -39 -14 -75 -6 -65 -16 -131 -37 -225 -6 -27 -13
-62 -17 -78 -3 -15 -9 -30 -14 -33 -5 -3 -9 -18 -9 -34 0 -16 -4 -31 -9 -34
-4 -3 -11 -20 -14 -38 -8 -49 -137 -351 -158 -368 -3 -3 -12 -20 -20 -37 -8
-18 -17 -33 -21 -33 -5 0 -8 -6 -8 -13 0 -7 -9 -23 -20 -35 -11 -12 -20 -28
-20 -37 0 -8 -4 -15 -8 -15 -4 0 -15 -12 -24 -27 -9 -16 -24 -37 -32 -48 -9
-11 -39 -51 -68 -89 -29 -38 -85 -101 -123 -140 -39 -39 -121 -130 -184 -201
-165 -189 -181 -209 -181 -218 0 -4 -11 -19 -25 -33 -14 -14 -25 -29 -25 -34
0 -5 -11 -20 -25 -34 -14 -14 -25 -30 -25 -36 0 -5 -4 -10 -10 -10 -5 0 -10
-5 -10 -10 0 -6 -18 -35 -40 -65 -22 -30 -47 -70 -57 -89 -9 -20 -20 -36 -25
-36 -4 0 -8 -5 -8 -11 0 -6 -13 -30 -30 -54 -16 -24 -30 -48 -30 -54 0 -6 -3
-11 -7 -11 -5 0 -13 -10 -19 -23 -23 -46 -59 -112 -65 -117 -3 -3 -29 -52 -59
-110 -29 -58 -59 -114 -66 -125 -8 -11 -14 -27 -14 -37 0 -10 -4 -18 -10 -18
-5 0 -10 -9 -10 -20 0 -11 -4 -20 -10 -20 -5 0 -10 -9 -10 -20 0 -11 -4 -20
-10 -20 -5 0 -10 -9 -10 -20 0 -11 -4 -20 -10 -20 -5 0 -10 -9 -10 -19 0 -11
-4 -23 -10 -26 -5 -3 -10 -15 -10 -26 0 -10 -4 -19 -10 -19 -5 0 -10 -9 -10
-20 0 -11 -4 -20 -10 -20 -5 0 -10 -9 -10 -20 0 -11 -4 -20 -10 -20 -5 0 -10
-7 -10 -15 0 -8 -17 -52 -39 -97 -21 -46 -49 -108 -61 -138 -12 -30 -33 -77
-46 -104 -13 -28 -24 -54 -24 -58 0 -5 -9 -28 -20 -50 -11 -23 -20 -48 -20
-55 0 -7 -4 -13 -10 -13 -5 0 -10 -7 -10 -15 0 -8 -4 -23 -9 -33 -5 -9 -14
-30 -21 -47 -7 -16 -16 -38 -21 -47 -5 -10 -9 -25 -9 -33 0 -8 -4 -15 -10 -15
-5 0 -10 -7 -10 -15 0 -8 -4 -24 -10 -35 -5 -11 -14 -29 -20 -40 -5 -11 -10
-27 -10 -35 0 -8 -4 -15 -10 -15 -5 0 -10 -7 -10 -15 0 -8 -4 -23 -9 -33 -5
-9 -13 -28 -19 -42 -6 -14 -27 -63 -47 -110 -20 -47 -46 -107 -57 -135 -11
-27 -29 -69 -39 -93 -10 -23 -28 -62 -39 -87 -33 -75 -56 -125 -114 -247 -31
-65 -56 -120 -56 -123 0 -5 -95 -197 -151 -305 -19 -36 -37 -66 -41 -68 -5 -2
-8 -12 -8 -22 0 -10 -3 -20 -7 -22 -7 -3 -37 -55 -67 -115 -6 -13 -14 -23 -18
-23 -5 0 -8 -7 -8 -15 0 -8 -4 -15 -10 -15 -5 0 -10 -5 -10 -11 0 -11 -107
-198 -120 -209 -3 -3 -11 -17 -19 -32 -8 -16 -18 -28 -23 -28 -4 0 -8 -5 -8
-10 0 -6 -9 -20 -20 -32 -11 -12 -20 -28 -20 -35 0 -7 -4 -13 -8 -13 -5 0 -15
-12 -23 -27 -8 -16 -24 -38 -36 -51 -13 -13 -23 -27 -23 -31 0 -4 -8 -17 -17
-29 -10 -11 -40 -51 -68 -87 -27 -37 -64 -81 -80 -98 -17 -18 -41 -48 -55 -67
-29 -42 -340 -354 -390 -391 -19 -15 -48 -39 -65 -54 -16 -15 -64 -52 -105
-83 -41 -32 -84 -65 -94 -75 -11 -9 -24 -17 -29 -17 -5 0 -17 -8 -26 -18 -9
-9 -28 -23 -43 -31 -16 -8 -28 -18 -28 -23 0 -4 -5 -8 -11 -8 -6 0 -29 -13
-52 -29 -72 -48 -189 -117 -262 -152 -38 -19 -71 -37 -73 -41 -2 -5 -12 -8
-23 -8 -10 0 -19 -4 -19 -10 0 -5 -9 -10 -20 -10 -11 0 -20 -4 -20 -10 0 -5
-9 -10 -20 -10 -11 0 -20 -4 -20 -10 0 -5 -7 -10 -15 -10 -8 0 -24 -4 -35 -10
-11 -5 -29 -14 -40 -20 -11 -5 -27 -10 -35 -10 -8 0 -15 -4 -15 -10 0 -5 -9
-10 -19 -10 -11 0 -23 -4 -26 -10 -3 -5 -17 -10 -30 -10 -13 0 -27 -4 -30 -10
-3 -5 -15 -10 -26 -10 -10 0 -19 -4 -19 -10 0 -5 -9 -10 -21 -10 -11 0 -68
-16 -127 -36 -59 -20 -136 -43 -172 -51 -36 -8 -83 -19 -105 -24 -38 -10 -69
-16 -187 -39 -65 -13 -173 -28 -298 -41 -122 -14 -617 -14 -735 -1 -191 22
-329 43 -405 62 -25 6 -65 15 -90 20 -79 14 -172 39 -290 76 -111 35 -129 41
-187 65 -16 7 -39 16 -53 22 -14 5 -33 13 -42 18 -10 5 -25 9 -33 9 -8 0 -15
5 -15 10 0 6 -7 10 -15 10 -8 0 -23 4 -33 9 -9 5 -66 33 -127 62 -60 30 -111
57 -113 61 -2 5 -10 8 -19 8 -8 0 -48 20 -89 45 -40 25 -78 45 -84 45 -5 0
-10 5 -10 10 0 6 -5 10 -11 10 -6 0 -30 13 -54 30 -24 16 -47 30 -52 30 -5 0
-15 9 -23 20 -8 11 -21 20 -30 20 -9 0 -22 9 -30 20 -8 11 -19 20 -25 20 -5 0
-22 10 -37 23 -15 13 -39 32 -53 43 -43 30 -138 107 -155 124 -8 8 -32 28 -52
43 -50 37 -338 325 -368 368 -13 19 -31 41 -40 49 -16 16 -92 110 -124 155
-11 14 -30 38 -43 53 -13 15 -23 32 -23 37 0 6 -9 17 -20 25 -11 8 -20 21 -20
30 0 9 -9 22 -20 30 -11 8 -20 18 -20 23 0 4 -18 35 -40 67 -22 32 -40 61 -40
65 0 3 -20 39 -45 79 -25 41 -45 81 -45 89 0 9 -3 17 -8 19 -10 4 -132 254
-163 336 -5 12 -13 33 -19 47 -5 14 -14 35 -19 48 -4 12 -13 33 -19 47 -19 47
-92 285 -103 335 -5 28 -14 69 -20 93 -5 23 -14 63 -20 90 -24 108 -42 230
-61 397 -13 127 -13 619 1 745 20 184 50 365 80 485 5 22 16 69 24 105 8 36
31 113 51 172 20 59 36 116 36 127 0 12 5 21 10 21 6 0 10 9 10 19 0 11 5 23
10 26 5 3 10 17 10 30 0 13 5 27 10 30 6 3 10 15 10 26 0 10 5 19 10 19 6 0
10 7 10 15 0 8 5 24 10 35 6 11 15 29 20 40 6 11 10 27 10 35 0 8 5 15 10 15
6 0 10 9 10 20 0 11 5 20 10 20 6 0 10 9 10 20 0 11 5 20 10 20 6 0 10 9 10
19 0 11 4 21 8 23 4 2 24 37 44 78 20 41 59 112 87 158 28 46 51 88 51 93 0 5
4 9 8 9 5 0 15 12 23 28 8 15 22 36 32 46 9 11 17 25 17 31 0 6 9 17 20 25 11
8 20 19 20 25 0 6 8 20 18 31 9 10 42 53 74 94 31 41 68 89 83 105 15 17 39
46 54 65 37 50 349 361 391 390 19 14 49 38 67 55 17 16 61 53 98 80 37 28 72
55 78 60 7 6 29 21 49 35 21 14 38 28 38 33 0 4 6 7 13 7 7 0 22 8 33 18 10 9
31 23 47 31 15 8 27 18 27 23 0 4 7 8 15 8 8 0 15 4 15 8 0 5 12 15 28 23 15
8 29 16 32 20 3 3 42 27 88 54 46 27 85 52 88 57 3 4 14 8 25 8 10 0 19 5 19
10 0 6 7 10 15 10 8 0 15 3 15 8 0 4 10 12 23 18 60 30 112 60 115 67 2 4 12
7 22 7 10 0 20 3 22 8 2 4 23 18 48 31 86 45 320 161 326 161 3 0 58 25 122
56 111 53 138 66 247 114 25 11 64 29 87 39 24 10 66 28 93 39 28 11 88 37
135 57 47 20 96 41 110 47 14 6 33 14 42 19 10 5 25 9 33 9 8 0 15 5 15 10 0
6 7 10 15 10 8 0 25 5 38 12 47 24 57 28 72 28 8 0 15 5 15 10 0 6 7 10 15 10
14 0 36 9 150 60 108 48 135 60 143 60 5 0 26 9 48 19 82 40 157 71 170 71 8
0 14 5 14 10 0 6 6 10 13 10 8 0 41 14 75 30 34 17 69 30 77 30 8 0 15 3 15 8
0 4 15 13 33 20 17 8 49 22 70 33 22 10 45 19 53 19 8 0 14 5 14 10 0 6 9 10
20 10 11 0 20 5 20 10 0 6 9 10 20 10 11 0 20 5 20 10 0 6 9 10 20 10 11 0 20
5 20 10 0 6 8 10 18 10 10 0 22 4 28 9 5 5 61 35 124 67 63 32 117 60 120 63
5 6 71 42 117 65 13 6 23 14 23 19 0 4 7 7 15 7 8 0 15 4 15 9 0 5 8 11 18 14
22 7 71 37 96 60 11 9 25 17 31 17 6 0 39 20 73 45 34 25 66 45 72 45 5 0 10
5 10 10 0 6 5 10 10 10 6 0 22 11 36 25 14 14 29 25 34 25 5 0 20 11 34 25 14
14 29 25 34 25 5 0 22 12 38 28 16 15 45 38 64 52 19 13 42 32 50 41 8 8 55
51 105 95 49 43 121 111 161 149 39 39 102 94 140 123 38 29 78 59 89 68 11 8
32 23 48 32 15 9 27 20 27 24 0 4 7 8 15 8 9 0 25 8 36 19 11 10 41 29 67 42
26 13 49 26 52 29 12 12 51 30 65 30 8 0 15 3 15 8 0 4 12 12 28 18 15 7 72
31 127 54 55 23 115 44 133 47 18 3 35 10 38 14 3 5 16 9 29 9 13 0 26 4 29 9
3 5 20 11 38 14 18 3 56 11 83 17 28 6 70 14 95 17 25 3 49 9 55 14 5 5 39 9
76 9 37 0 71 5 74 10 4 6 90 10 225 10 135 0 221 -4 225 -10z"/>
<path d="M8639 10536 c-3 -3 -44 -11 -90 -17 -46 -5 -104 -12 -129 -15 -25 -3
-49 -10 -54 -15 -6 -5 -22 -9 -37 -9 -15 0 -31 -4 -34 -10 -3 -5 -19 -10 -36
-10 -16 0 -29 -4 -29 -10 0 -5 -13 -10 -30 -10 -16 0 -30 -4 -30 -10 0 -5 -9
-10 -20 -10 -11 0 -35 -9 -55 -20 -20 -11 -42 -20 -50 -20 -8 0 -15 -4 -15
-10 0 -5 -9 -10 -20 -10 -11 0 -20 -4 -20 -10 0 -5 -8 -10 -17 -11 -10 0 -38
-13 -63 -29 -25 -16 -67 -42 -95 -58 -27 -16 -63 -42 -80 -56 -16 -14 -33 -26
-37 -26 -7 0 -66 -52 -178 -160 -37 -36 -98 -92 -135 -125 -37 -33 -81 -73
-99 -89 -17 -16 -47 -41 -66 -55 -19 -14 -45 -36 -58 -48 -13 -13 -27 -23 -31
-23 -4 0 -21 -12 -37 -26 -16 -14 -42 -32 -57 -40 -27 -14 -54 -35 -82 -61 -8
-7 -18 -13 -24 -13 -6 0 -11 -4 -11 -10 0 -5 -7 -10 -15 -10 -8 0 -15 -4 -15
-8 0 -5 -12 -15 -27 -23 -16 -8 -37 -22 -47 -31 -11 -10 -26 -18 -33 -18 -7 0
-13 -4 -13 -10 0 -5 -6 -10 -13 -10 -7 0 -23 -9 -35 -20 -12 -11 -24 -20 -27
-20 -3 0 -46 -25 -96 -55 -50 -30 -96 -55 -104 -55 -7 0 -15 -3 -17 -7 -4 -10
-57 -42 -80 -50 -10 -3 -18 -9 -18 -14 0 -5 -9 -9 -20 -9 -11 0 -20 -3 -20 -7
0 -5 -25 -19 -55 -33 -30 -14 -55 -28 -55 -32 0 -5 -6 -8 -13 -8 -18 0 -67
-24 -67 -32 0 -5 -9 -8 -20 -8 -11 0 -20 -4 -20 -10 0 -5 -9 -10 -20 -10 -11
0 -20 -4 -20 -10 0 -5 -6 -10 -14 -10 -12 0 -142 -59 -289 -131 -22 -11 -45
-19 -53 -19 -8 0 -14 -4 -14 -10 0 -5 -9 -10 -19 -10 -11 0 -23 -4 -26 -10 -3
-5 -15 -10 -26 -10 -10 0 -19 -4 -19 -10 0 -5 -9 -10 -20 -10 -11 0 -20 -4
-20 -10 0 -5 -7 -10 -15 -10 -8 0 -24 -4 -35 -10 -11 -5 -29 -14 -40 -20 -11
-5 -27 -10 -35 -10 -8 0 -15 -4 -15 -10 0 -5 -9 -10 -19 -10 -11 0 -23 -4 -26
-10 -3 -5 -15 -10 -26 -10 -10 0 -19 -4 -19 -10 0 -5 -7 -10 -17 -10 -9 0 -72
-25 -140 -55 -68 -30 -128 -55 -134 -55 -5 0 -17 -4 -27 -9 -23 -12 -111 -51
-142 -63 -14 -6 -33 -14 -42 -19 -10 -5 -25 -9 -33 -9 -8 0 -15 -4 -15 -10 0
-5 -7 -10 -15 -10 -8 0 -24 -4 -35 -10 -11 -5 -29 -14 -40 -20 -11 -5 -27 -10
-35 -10 -8 0 -15 -4 -15 -10 0 -5 -9 -10 -19 -10 -11 0 -23 -4 -26 -10 -3 -5
-15 -10 -26 -10 -10 0 -19 -4 -19 -10 0 -5 -6 -10 -13 -10 -16 0 -298 -123
-390 -170 -22 -11 -45 -20 -53 -20 -8 0 -14 -4 -14 -10 0 -5 -6 -10 -13 -10
-18 0 -67 -24 -67 -32 0 -5 -6 -8 -14 -8 -8 0 -43 -15 -78 -34 -35 -18 -119
-62 -188 -97 -69 -35 -126 -67 -128 -71 -2 -5 -10 -8 -18 -8 -8 0 -14 -3 -14
-7 0 -5 -10 -13 -23 -18 -48 -23 -113 -61 -131 -77 -11 -10 -26 -18 -33 -18
-7 0 -13 -4 -13 -10 0 -5 -7 -10 -15 -10 -8 0 -15 -4 -15 -10 0 -5 -6 -10 -13
-10 -7 0 -28 -13 -47 -30 -19 -16 -39 -29 -43 -30 -5 0 -19 -8 -32 -17 -12
-10 -33 -25 -45 -33 -12 -8 -28 -21 -36 -27 -7 -7 -17 -13 -22 -13 -5 0 -22
-12 -38 -28 -16 -15 -45 -38 -64 -52 -50 -35 -67 -50 -114 -95 -23 -22 -57
-52 -76 -67 -51 -38 -176 -163 -240 -238 -30 -36 -66 -76 -80 -90 -14 -14 -45
-52 -70 -85 -25 -33 -47 -62 -50 -65 -3 -3 -19 -25 -35 -50 -17 -25 -33 -49
-38 -55 -25 -33 -107 -167 -107 -175 0 -6 -3 -10 -7 -10 -5 0 -13 -10 -19 -23
-6 -12 -38 -76 -72 -142 -67 -131 -152 -327 -152 -351 0 -8 -5 -24 -12 -37
-24 -48 -28 -57 -28 -76 0 -11 -5 -23 -10 -26 -6 -3 -10 -19 -10 -35 0 -16 -4
-32 -10 -35 -5 -3 -10 -22 -10 -41 0 -19 -4 -34 -10 -34 -5 0 -10 -15 -10 -34
0 -19 -4 -38 -10 -41 -5 -3 -10 -24 -10 -45 0 -21 -4 -42 -10 -45 -5 -3 -10
-25 -10 -49 0 -23 -4 -46 -9 -51 -5 -6 -12 -37 -14 -70 -3 -33 -11 -114 -18
-180 -24 -223 -16 -514 22 -780 5 -38 12 -90 15 -115 3 -25 10 -49 15 -55 5
-5 9 -26 9 -46 0 -21 5 -41 10 -44 6 -3 10 -22 10 -41 0 -19 5 -34 10 -34 6 0
10 -15 10 -34 0 -19 5 -38 10 -41 6 -3 10 -17 10 -30 0 -13 5 -27 10 -30 6 -3
10 -17 10 -30 0 -13 5 -27 10 -30 6 -3 10 -15 10 -26 0 -10 4 -27 9 -37 5 -9
17 -39 26 -67 39 -115 180 -413 206 -435 3 -3 12 -20 20 -38 8 -17 17 -32 21
-32 5 0 8 -6 8 -13 0 -7 8 -22 17 -33 10 -11 27 -35 37 -54 11 -19 31 -51 46
-70 15 -19 33 -46 40 -60 7 -14 16 -27 19 -30 8 -6 48 -55 81 -100 81 -107
381 -407 490 -490 18 -14 39 -31 46 -38 7 -6 16 -12 20 -12 3 0 14 -8 23 -19
9 -10 30 -26 46 -35 17 -9 55 -34 85 -56 30 -22 61 -40 68 -40 6 0 12 -4 12
-10 0 -5 7 -10 15 -10 8 0 15 -4 15 -10 0 -5 7 -10 15 -10 8 0 15 -4 15 -8 0
-5 16 -14 35 -22 19 -8 35 -16 35 -19 0 -4 15 -12 33 -20 17 -8 34 -17 37 -20
13 -16 283 -138 365 -166 28 -9 58 -21 67 -26 10 -5 27 -9 37 -9 11 0 23 -4
26 -10 3 -5 17 -10 30 -10 13 0 27 -4 30 -10 3 -5 17 -10 30 -10 13 0 27 -4
30 -10 3 -5 21 -10 40 -10 19 0 37 -4 40 -10 3 -5 22 -10 41 -10 19 0 34 -4
34 -9 0 -5 19 -12 43 -15 23 -3 62 -8 87 -11 25 -3 54 -10 65 -15 11 -5 43
-11 70 -14 28 -2 104 -10 170 -17 220 -24 513 -16 780 22 39 5 90 12 115 15
25 3 49 10 55 15 5 5 26 9 46 9 21 0 41 4 44 10 3 5 22 10 41 10 19 0 34 5 34
10 0 6 15 10 34 10 19 0 38 5 41 10 3 6 19 10 36 10 16 0 29 5 29 10 0 6 11
10 25 10 14 0 34 5 45 10 11 6 29 15 40 20 11 6 26 10 34 10 42 0 503 218 514
243 2 4 8 7 14 7 5 0 29 14 53 30 24 17 48 30 54 30 6 0 11 4 11 9 0 5 9 13
20 16 11 3 26 12 32 18 7 7 33 25 58 42 25 16 47 32 50 35 3 3 32 25 65 50 33
25 71 56 85 70 14 14 54 50 90 80 76 65 201 190 239 240 14 19 44 53 66 76 45
47 60 64 95 114 14 19 37 48 52 64 16 16 28 34 28 40 0 6 10 23 23 36 32 37
67 88 67 98 0 5 9 17 20 27 11 10 20 24 20 32 0 7 5 13 10 13 6 0 10 7 10 15
0 8 5 15 10 15 6 0 10 7 10 15 0 8 5 15 10 15 6 0 10 6 10 13 0 7 9 23 20 35
11 12 20 28 20 37 0 8 4 15 8 15 4 0 19 22 33 50 13 27 27 50 32 50 4 0 7 6 7
14 0 8 3 16 8 18 4 1 36 59 71 128 35 69 79 153 97 188 19 35 34 70 34 78 0 8
5 14 10 14 6 0 10 9 10 20 0 11 5 20 10 20 6 0 10 9 10 20 0 11 5 20 10 20 6
0 10 6 10 14 0 8 9 31 20 53 47 92 170 374 170 390 0 7 5 13 10 13 6 0 10 7
10 15 0 8 4 23 9 33 5 9 19 40 31 67 12 28 26 58 31 67 5 10 9 25 9 33 0 8 5
15 10 15 6 0 10 7 10 15 0 8 4 23 9 33 5 9 13 28 19 42 5 14 20 48 32 75 12
28 26 59 31 70 4 11 33 80 63 153 31 74 56 140 56 148 0 8 5 14 10 14 6 0 10
9 10 19 0 11 5 23 10 26 6 3 10 15 10 26 0 10 5 19 10 19 6 0 10 7 10 15 0 15
4 25 28 72 7 13 12 30 12 38 0 8 5 15 10 15 6 0 10 9 10 20 0 11 5 20 10 20 6
0 10 9 10 19 0 11 5 23 10 26 6 3 10 15 10 26 0 10 5 19 10 19 6 0 10 7 10 15
0 8 4 23 9 33 32 58 141 297 141 308 0 8 5 14 10 14 6 0 10 9 10 20 0 11 5 20
10 20 6 0 10 9 10 20 0 11 5 20 10 20 6 0 10 9 10 20 0 11 5 20 10 20 6 0 10
9 10 19 0 11 3 21 8 23 4 2 18 26 32 53 14 28 27 52 30 55 5 5 43 74 64 117 6
13 14 23 19 23 4 0 7 6 7 14 0 8 25 55 55 105 30 50 55 93 55 96 0 3 9 15 20
27 11 12 20 28 20 35 0 7 5 13 10 13 6 0 10 6 10 13 0 7 8 22 18 33 9 10 23
31 31 47 8 15 18 27 23 27 4 0 8 7 8 15 0 8 5 15 10 15 6 0 10 4 10 10 0 9 19
35 46 64 6 7 18 25 27 41 9 17 27 43 41 59 14 16 26 33 26 37 0 4 10 18 23 31
12 13 34 39 48 58 14 19 39 49 55 67 16 18 56 62 89 98 33 37 89 98 125 135
107 113 134 144 160 180 13 19 30 41 38 49 7 8 27 37 43 65 17 28 43 71 59 96
16 25 29 53 29 63 1 9 6 17 11 17 6 0 10 9 10 20 0 11 5 20 10 20 6 0 10 7 10
15 0 8 9 30 20 50 11 20 20 44 20 55 0 11 5 20 10 20 6 0 10 14 10 30 0 17 5
30 10 30 6 0 10 13 10 29 0 17 5 33 10 36 6 3 10 19 10 34 0 15 4 31 9 37 5 5
12 29 15 54 3 25 11 83 18 130 7 47 12 146 12 220 0 74 -5 173 -12 220 -7 47
-15 105 -18 130 -3 25 -10 49 -15 55 -5 5 -9 21 -9 36 0 15 -4 31 -10 34 -5 3
-10 19 -10 35 0 16 -4 32 -10 35 -5 3 -10 17 -10 31 0 13 -4 24 -10 24 -5 0
-10 11 -10 24 0 14 -4 28 -10 31 -5 3 -10 15 -10 26 0 10 -4 19 -10 19 -5 0
-10 9 -10 20 0 11 -4 20 -10 20 -5 0 -10 9 -10 20 0 11 -4 20 -10 20 -5 0 -10
7 -10 15 0 16 -104 194 -130 223 -9 9 -26 32 -40 51 -55 78 -286 311 -309 311
-4 0 -17 9 -28 19 -50 47 -298 191 -329 191 -8 0 -14 5 -14 10 0 6 -9 10 -19
10 -11 0 -23 5 -26 10 -3 6 -17 10 -31 10 -13 0 -24 5 -24 10 0 6 -11 10 -24
10 -14 0 -28 5 -31 10 -3 6 -19 10 -35 10 -16 0 -32 5 -35 10 -3 6 -19 10 -34
10 -15 0 -31 4 -36 9 -6 5 -30 12 -55 15 -25 3 -76 10 -115 16 -84 13 -358 24
-366 16z m-2909 -3295 c36 -6 82 -14 103 -17 20 -4 40 -10 43 -15 3 -5 15 -9
26 -9 23 0 81 -17 110 -31 10 -5 27 -9 37 -9 11 0 23 -4 26 -10 3 -5 17 -10
31 -10 13 0 24 -4 24 -10 0 -5 7 -10 15 -10 8 0 23 -4 33 -9 9 -5 49 -24 87
-42 39 -19 72 -37 73 -41 2 -5 9 -8 15 -8 11 0 138 -77 164 -100 7 -5 15 -10
18 -10 28 0 355 -324 386 -382 7 -13 15 -25 18 -28 13 -10 81 -119 81 -129 0
-6 3 -11 8 -11 4 0 18 -25 32 -55 14 -30 28 -55 33 -55 4 0 7 -9 7 -20 0 -11
5 -20 10 -20 6 0 10 -6 10 -13 0 -7 9 -32 20 -55 11 -22 20 -47 20 -55 0 -7 4
-17 8 -22 5 -6 14 -30 21 -55 7 -25 17 -53 22 -62 5 -10 9 -29 9 -42 0 -14 4
-27 9 -30 4 -3 11 -25 14 -48 3 -24 14 -86 23 -138 14 -75 18 -145 17 -330 0
-211 -3 -250 -27 -380 -15 -80 -30 -160 -33 -178 -3 -18 -9 -35 -14 -38 -5 -3
-9 -18 -9 -34 0 -16 -4 -32 -10 -35 -5 -3 -10 -17 -10 -30 0 -13 -4 -27 -10
-30 -5 -3 -10 -17 -10 -31 0 -13 -4 -24 -10 -24 -5 0 -10 -11 -10 -24 0 -14
-4 -28 -10 -31 -5 -3 -10 -15 -10 -26 0 -10 -4 -19 -10 -19 -5 0 -10 -7 -10
-15 0 -8 -4 -23 -9 -33 -5 -9 -24 -48 -42 -87 -19 -38 -37 -71 -41 -73 -5 -2
-8 -11 -8 -19 0 -8 -20 -48 -45 -87 -25 -40 -45 -78 -45 -84 0 -7 -4 -12 -8
-12 -4 0 -15 -13 -25 -29 -19 -33 -105 -149 -125 -170 -7 -8 -21 -26 -30 -40
-22 -33 -119 -137 -201 -215 -35 -34 -83 -80 -107 -103 -24 -24 -48 -43 -53
-43 -4 0 -15 -7 -22 -16 -20 -24 -188 -147 -239 -175 -25 -13 -47 -26 -50 -29
-10 -10 -65 -41 -82 -47 -10 -3 -18 -8 -18 -12 0 -4 -16 -13 -35 -21 -19 -8
-35 -17 -35 -22 0 -4 -9 -8 -20 -8 -11 0 -20 -4 -20 -10 0 -5 -6 -10 -14 -10
-8 0 -34 -10 -58 -21 -23 -12 -54 -26 -68 -32 -14 -5 -34 -13 -45 -18 -11 -5
-67 -24 -125 -43 -140 -46 -241 -68 -440 -98 -99 -15 -465 -15 -560 0 -184 28
-283 52 -405 97 -108 39 -305 134 -305 147 0 4 -7 8 -15 8 -9 0 -25 9 -37 20
-12 11 -28 20 -35 20 -7 0 -13 3 -13 8 0 4 -18 18 -40 32 -22 14 -40 28 -40
32 0 4 -8 9 -18 12 -23 8 -231 211 -294 286 -54 66 -148 205 -148 220 0 5 -4
10 -10 10 -5 0 -10 9 -10 19 0 11 -3 21 -8 23 -7 3 -84 156 -103 206 -34 86
-41 110 -78 258 -28 107 -36 172 -58 428 -5 64 2 171 29 391 6 50 24 142 41
205 16 63 32 127 35 143 2 15 8 30 13 33 5 3 9 14 9 25 0 10 4 27 9 37 5 9 13
28 19 42 5 14 19 46 31 72 12 26 21 55 21 63 0 8 5 15 10 15 6 0 10 9 10 20 0
11 5 20 10 20 6 0 10 9 10 20 0 11 5 20 10 20 6 0 10 9 10 20 0 11 5 20 10 20
6 0 10 9 10 20 0 11 4 20 9 20 5 0 11 8 14 18 11 32 97 171 125 200 6 7 12 17
12 22 0 5 6 15 13 22 7 7 24 29 37 48 13 19 32 42 42 51 10 9 18 21 18 27 0 6
3 12 8 14 4 2 36 37 72 78 36 41 79 88 95 104 103 99 176 165 210 191 21 17
50 40 66 53 15 12 30 22 34 22 3 0 12 6 20 13 24 23 55 47 61 47 2 0 14 9 26
20 12 11 28 20 35 20 7 0 13 5 13 10 0 6 6 10 13 10 7 0 22 8 33 18 10 10 91
53 179 96 88 43 168 82 177 87 10 5 25 9 33 9 8 0 24 5 35 10 11 6 29 15 40
20 11 6 29 10 40 10 11 0 20 5 20 10 0 6 13 10 29 10 17 0 32 4 35 9 3 5 20
11 38 14 18 3 53 11 78 17 85 21 135 31 198 39 35 5 66 12 70 15 10 11 530 -1
602 -13z"/>
</g>
</svg>
