<?xml version="1.0" standalone="no"?>
<!DOCTYPE svg PUBLIC "-//W3C//DTD SVG 20010904//EN"
 "http://www.w3.org/TR/2001/REC-SVG-20010904/DTD/svg10.dtd">
<svg version="1.0" xmlns="http://www.w3.org/2000/svg"
 width="1000.000000pt" height="233.000000pt" viewBox="0 0 1000.000000 233.000000"
 preserveAspectRatio="xMidYMid meet">

<g transform="translate(0.000000,233.000000) scale(0.100000,-0.100000)"
fill="#000000" stroke="none">
<path d="M548 2218 c-2 -15 -11 -24 -25 -26 -22 -3 -29 -26 -24 -69 1 -7 -5
-13 -14 -13 -8 0 -15 -7 -15 -15 0 -19 -19 -20 -26 -1 -9 23 -56 13 -66 -14
-5 -13 -7 -28 -5 -34 2 -5 -8 -20 -21 -31 -24 -21 -24 -22 -7 -48 11 -17 13
-27 6 -27 -7 0 -21 -8 -32 -18 -19 -19 -19 -19 4 -44 13 -14 22 -29 20 -35 -5
-14 43 -44 60 -37 9 3 13 -2 13 -17 -2 -35 52 -33 86 3 16 16 33 26 39 23 22
-14 66 -98 61 -117 -7 -28 -80 -71 -132 -78 -42 -5 -45 -7 -45 -35 l0 -30 216
-3 c188 -2 218 0 230 14 18 22 0 48 -37 54 -41 7 -111 47 -124 69 -17 32 -12
86 11 115 22 28 39 34 39 14 1 -38 115 -63 115 -26 0 16 48 62 56 53 3 -2 15
5 29 15 24 18 24 19 6 39 -11 12 -27 21 -37 21 -10 0 -20 4 -23 9 -7 11 20 34
32 27 10 -6 42 35 42 52 0 6 -9 12 -20 15 -12 3 -20 14 -20 26 0 14 -6 21 -19
21 -15 0 -19 6 -18 28 2 26 0 27 -43 27 -34 0 -47 4 -52 18 -6 13 -14 16 -28
12 -18 -6 -20 -3 -15 17 7 33 -14 55 -55 55 -41 0 -70 -21 -70 -51 0 -17 -3
-16 -15 9 -28 54 -71 73 -77 33z m45 -1 c4 3 7 -1 7 -10 0 -9 5 -17 10 -17 6
0 10 -7 10 -15 0 -21 -30 -19 -46 3 -18 24 -19 58 -1 43 8 -6 17 -8 20 -4z
m97 -12 c0 -8 4 -15 9 -15 10 0 9 -49 -1 -65 -3 -5 0 -16 8 -23 9 -8 14 -9 14
-2 0 17 28 42 39 35 5 -3 12 -1 16 5 3 5 11 10 16 10 11 0 0 -53 -13 -58 -4
-2 -8 -10 -8 -18 0 -8 -4 -14 -10 -14 -9 0 -14 14 -11 33 1 4 -7 3 -18 -3 -34
-18 -48 -12 -49 21 -1 37 -12 53 -13 18 0 -22 -1 -23 -9 -4 -13 30 -12 64 3
80 16 19 27 19 27 0z m56 -2 c9 -22 6 -43 -9 -61 -8 -11 -12 -11 -18 0 -5 7
-6 20 -3 30 2 9 0 20 -7 23 -8 6 -7 10 2 16 20 13 26 11 35 -8z m-176 -40 c0
-6 5 -13 11 -15 5 -2 7 -11 3 -21 -5 -15 -9 -15 -22 -5 -9 8 -13 8 -9 2 4 -7
0 -17 -8 -24 -12 -10 -15 -10 -15 3 0 8 -6 17 -14 20 -8 3 -12 15 -9 31 4 20
10 25 34 23 16 -1 29 -7 29 -14z m55 -23 c4 -6 10 -8 15 -5 12 7 20 -49 8 -60
-7 -7 -12 -6 -15 4 -4 10 -7 11 -13 1 -6 -9 -11 -7 -18 7 -18 33 4 83 23 53z
m275 -30 c0 -16 -40 -51 -51 -45 -5 4 -7 11 -3 16 3 6 -4 7 -20 3 -27 -6 -34
4 -16 22 14 14 90 17 90 4z m-379 -23 c15 -12 32 -67 20 -67 -12 1 -51 39 -51
50 0 6 -4 8 -10 5 -6 -3 -7 1 -4 9 7 19 23 20 45 3z m-70 -19 c34 -38 14 -54
-24 -20 -15 12 -18 13 -12 2 19 -35 27 -40 47 -29 27 15 45 -3 22 -22 -14 -11
-18 -11 -22 -1 -3 10 -7 10 -18 1 -10 -8 -14 -8 -14 0 0 6 -6 11 -12 11 -16 0
-35 39 -30 63 5 24 41 22 63 -5z m133 14 c2 -4 -4 -13 -15 -20 -16 -11 -19 -9
-19 8 0 19 24 28 34 12z m246 -22 c0 -9 -50 -23 -56 -17 -3 2 -2 11 1 19 6 15
55 13 55 -2z m-74 -48 c0 -20 -1 -31 -3 -24 -6 16 -23 15 -23 -2 0 -7 -7 -20
-17 -27 -15 -13 -16 -11 -9 16 7 29 7 29 -8 10 -15 -19 -15 -18 -9 15 7 41 41
76 57 60 6 -6 11 -27 12 -48z m159 22 c-7 -13 -23 -33 -35 -44 -13 -11 -18
-20 -12 -20 15 0 58 42 55 53 -2 4 2 7 7 7 6 0 10 -4 10 -10 0 -5 6 -10 14
-10 11 0 12 -5 3 -24 -7 -15 -17 -21 -29 -18 -10 2 -18 -1 -18 -7 0 -18 -52
-13 -66 7 -11 14 -9 21 9 41 12 13 16 21 10 17 -7 -4 -13 -5 -13 -2 0 2 -3 12
-6 20 -4 12 -2 15 9 10 8 -3 18 -1 21 4 3 5 16 7 30 5 22 -5 23 -7 11 -29z
m-252 10 c18 -7 21 -21 11 -48 -8 -21 -27 -20 -47 2 -18 19 -12 67 7 57 6 -3
19 -8 29 -11z m172 -24 c0 -22 -29 -18 -33 3 -3 14 1 18 15 15 10 -2 18 -10
18 -18z m-419 -51 c-1 -30 -16 -53 -16 -26 0 10 -7 17 -16 17 -8 0 -22 7 -31
16 -14 14 -14 16 2 28 27 20 63 -1 61 -35z m184 31 c0 -5 -9 -6 -20 -3 -11 3
-20 9 -20 13 0 5 9 6 20 3 11 -3 20 -9 20 -13z m-30 -34 c0 -12 5 -27 11 -33
14 -14 4 -47 -11 -38 -5 3 -11 16 -11 28 -1 17 -2 18 -6 4 -2 -9 -9 -15 -14
-12 -10 7 -12 78 -2 88 11 11 33 -14 33 -37z m100 -19 c14 -22 5 -36 -12 -19
-7 7 -16 12 -21 12 -5 0 -1 -7 8 -16 20 -21 14 -27 -19 -18 -14 3 -26 12 -26
20 0 8 -4 14 -10 14 -5 0 -10 9 -10 19 0 37 65 28 90 -12z m-205 23 c3 -5 17
-10 31 -10 13 0 24 -4 24 -10 0 -6 -17 -8 -41 -5 -48 6 -62 13 -54 26 8 12 32
12 40 -1z m365 -4 c0 -16 -14 -36 -26 -36 -8 0 -14 -4 -14 -8 0 -5 -13 -9 -30
-10 -16 0 -30 4 -30 9 0 5 6 9 14 9 8 0 17 4 20 9 3 4 -7 6 -22 4 -26 -4 -26
-4 -8 11 17 14 96 23 96 12z m-382 -48 c-2 -12 -8 -23 -14 -25 -17 -6 -27 29
-12 39 22 13 30 9 26 -14z m87 -12 c8 -8 15 -19 15 -25 0 -14 -17 -14 -25 -1
-3 6 -12 10 -18 10 -7 0 -1 -9 12 -19 15 -11 20 -21 13 -25 -15 -9 -66 44 -69
71 -2 19 1 21 27 13 17 -5 37 -15 45 -24z m355 20 c0 -8 -5 -18 -10 -21 -6 -4
-7 -12 -3 -18 4 -7 0 -6 -10 2 -24 19 -22 51 3 51 11 0 20 -6 20 -14z m-488
-14 c9 -9 5 -12 -17 -13 -26 0 -27 -2 -10 -9 16 -7 17 -9 3 -9 -9 -1 -24 -4
-34 -8 -11 -4 -15 -3 -10 5 3 6 -2 15 -11 21 -17 10 -17 10 0 11 9 0 17 4 17
9 0 13 48 7 62 -7z m401 -9 c-7 -20 -42 -53 -55 -53 -14 0 -9 19 10 29 13 8
10 9 -15 6 -21 -2 -33 1 -34 8 -1 20 -18 -27 -18 -52 -1 -23 0 -23 17 -8 29
27 34 7 7 -25 -29 -35 -33 -92 -9 -126 8 -12 32 -31 52 -42 24 -12 31 -19 19
-20 -19 0 -75 34 -89 55 -4 5 -8 26 -9 45 -1 25 -3 29 -6 11 -8 -39 6 -71 40
-91 l32 -20 -31 0 c-16 0 -36 6 -42 12 -10 10 -17 10 -33 0 -26 -17 -34 -10
-20 16 17 32 13 37 -9 9 -18 -23 -66 -44 -77 -34 -2 3 12 14 32 26 52 30 58
56 28 111 -14 25 -32 52 -39 60 -10 12 -10 20 -1 37 11 20 15 21 37 10 23 -11
48 -72 35 -85 -9 -9 -34 31 -36 58 -2 24 -2 24 -6 2 -5 -28 21 -72 43 -72 13
0 14 8 9 43 l-7 42 20 -25 20 -25 7 35 c3 20 5 42 3 50 -2 11 4 14 22 12 46
-5 85 -1 94 8 14 14 16 12 9 -7z m150 -7 c21 -16 22 -26 2 -26 -8 0 -15 -4
-15 -9 0 -12 -33 -9 -42 4 -4 5 -2 13 5 17 9 6 9 8 0 8 -7 0 -13 5 -13 10 0
14 42 12 63 -4z m-329 -12 c11 -29 6 -34 -14 -14 -24 24 -25 30 -6 30 8 0 17
-7 20 -16z m44 -23 c5 -30 -18 -24 -29 8 -7 18 -6 22 9 19 9 -2 19 -14 20 -27z
m-233 2 c4 -12 -1 -24 -15 -35 -25 -20 -40 -23 -40 -8 0 6 -7 10 -15 10 -12 0
-13 3 -3 19 6 10 18 17 25 14 7 -3 13 0 13 6 0 18 27 13 35 -6z m285 3 c0 -3
-4 -8 -10 -11 -5 -3 -10 -1 -10 4 0 6 5 11 10 11 6 0 10 -2 10 -4z m174 -13
c10 -24 -26 -44 -40 -22 -3 6 -20 17 -38 25 l-31 13 51 1 c39 0 53 -4 58 -17z
m-48 -28 c25 -24 17 -46 -14 -43 -35 4 -66 33 -58 54 7 19 49 12 72 -11z
m-367 -2 c-13 -15 -12 -15 9 -4 13 7 26 10 29 8 10 -10 -47 -50 -72 -52 -21 0
-24 3 -19 20 7 23 32 45 52 45 12 0 12 -2 1 -17z m3 -230 c26 -23 22 -31 -14
-30 -26 2 -34 7 -36 25 -4 27 22 30 50 5z m158 -2 c14 -28 13 -31 -12 -31 -22
0 -58 26 -58 42 0 17 59 8 70 -11z m154 -6 c16 -25 16 -25 -10 -25 -27 0 -64
24 -64 42 0 4 13 8 29 8 20 0 34 -8 45 -25z"/>
<path d="M785 1830 c3 -5 11 -10 16 -10 6 0 7 5 4 10 -3 6 -11 10 -16 10 -6 0
-7 -4 -4 -10z"/>
<path d="M202 1218 c4 -273 6 -298 27 -363 13 -38 34 -91 47 -116 l23 -46 -23
-11 c-27 -12 -76 -107 -76 -147 0 -73 73 -145 209 -208 l73 -34 -28 -20 c-24
-17 -28 -29 -32 -81 -4 -51 -1 -63 17 -81 20 -20 31 -21 209 -21 229 0 232 1
232 91 0 51 -4 63 -25 83 -14 13 -25 26 -25 29 0 3 30 19 66 36 132 62 204
133 204 202 0 48 -44 137 -74 150 l-25 12 23 46 c13 25 34 78 47 116 21 65 23
90 27 363 l4 292 -229 -2 -228 -3 223 -2 222 -3 0 -165 0 -165 -440 0 -440 0
0 165 0 165 218 3 217 2 -223 3 -224 2 4 -292z m212 -94 c13 -5 16 -22 16 -80
0 -71 -1 -74 -24 -74 -13 0 -38 -3 -55 -6 l-31 -6 0 69 c0 68 1 70 33 86 37
18 40 19 61 11z m103 -11 l43 -18 0 -69 0 -69 -37 7 c-21 3 -48 6 -60 6 -22 0
-23 4 -23 68 0 60 10 92 29 92 3 0 25 -8 48 -17z m317 11 c13 -5 16 -22 16
-80 0 -71 -1 -74 -24 -74 -13 0 -38 -3 -55 -6 l-31 -6 0 69 c0 68 1 70 33 86
37 18 40 19 61 11z m111 -11 l35 -17 0 -69 0 -70 -37 7 c-21 3 -48 6 -60 6
-22 0 -23 4 -23 68 0 93 16 108 85 75z m-585 -183 c41 -3 110 -3 152 -1 l77 3
4 82 3 81 2 -86 2 -87 -79 -3 c-43 -2 -117 -2 -165 0 l-86 3 2 87 2 86 5 -80
6 -80 75 -5z m-50 84 c0 -47 -4 -73 -10 -69 -5 3 -10 37 -10 76 0 39 4 69 10
69 6 0 10 -32 10 -76z m270 1 c0 -41 -3 -75 -7 -75 -5 0 -7 34 -5 75 2 41 5
75 8 75 2 0 4 -34 4 -75z m150 -3 c0 -90 -17 -88 -23 3 -4 56 -4 56 -3 -10 l1
-70 75 -5 c41 -3 110 -3 152 -1 l77 3 4 82 3 81 2 -86 2 -87 -79 -3 c-43 -2
-117 -2 -165 0 l-86 3 0 82 c0 75 2 82 20 83 18 2 20 -4 20 -75z m270 3 c0
-41 -3 -75 -7 -75 -5 0 -7 34 -5 75 2 41 5 75 8 75 2 0 4 -34 4 -75z m-485
-63 c14 -4 4 -8 -30 -12 -58 -8 -137 -1 -130 11 6 9 131 10 160 1z m420 0 c14
-4 4 -8 -30 -12 -58 -8 -137 -1 -130 11 6 9 131 10 160 1z m-176 -127 c16 -8
41 -29 56 -47 24 -28 27 -39 23 -84 -4 -44 -13 -63 -61 -127 -67 -89 -110
-127 -143 -127 -52 0 -18 65 62 121 42 29 56 49 33 49 -5 0 -7 -5 -4 -11 5 -7
-11 -9 -47 -7 -57 3 -69 23 -14 23 26 0 32 3 24 12 -5 6 -15 10 -21 8 -18 -7
-35 7 -40 35 l-4 25 -2 -27 c-1 -27 -51 -78 -76 -78 -23 0 -26 17 -5 23 11 3
20 12 20 20 0 13 -6 14 -32 6 -17 -5 -34 -6 -37 -4 -8 9 15 26 38 28 21 1 21
2 4 15 -11 8 -31 11 -50 8 -24 -3 -33 -1 -33 10 0 8 -7 14 -16 14 -10 0 -14 7
-12 23 2 12 10 22 18 22 9 0 14 -8 12 -20 -2 -16 -1 -17 7 -5 6 9 6 18 0 26
-12 15 18 34 71 45 19 4 53 14 75 23 51 19 118 20 154 1z m-427 -182 c24 -40
25 -53 6 -90 -13 -26 -30 -29 -47 -9 -19 23 4 59 32 50 22 -6 22 -6 2 10 -18
14 -21 14 -34 -4 -21 -30 -31 -24 -31 18 0 69 36 82 72 25z m696 25 c14 -14
16 -88 3 -88 -5 0 -15 9 -22 20 -13 17 -16 18 -34 4 -19 -14 -19 -15 4 -12 34
4 51 -26 28 -49 -16 -16 -18 -16 -36 2 -28 28 -28 55 -2 98 24 39 39 45 59 25z
m-719 -151 c28 -24 88 -62 135 -85 46 -23 92 -52 100 -64 9 -12 16 -42 16 -67
0 -41 -1 -43 -17 -29 -10 9 -56 32 -103 52 -139 59 -230 141 -230 208 0 16 8
43 17 61 l16 32 9 -32 c5 -18 29 -50 57 -76z m770 72 c6 -18 11 -47 11 -66 0
-62 -111 -155 -250 -209 -25 -9 -57 -26 -72 -36 l-28 -19 0 46 c0 59 22 81
125 130 88 42 185 128 185 163 0 32 16 27 29 -9z m-648 -73 c64 -69 197 -176
220 -176 24 0 144 97 214 172 69 75 68 75 96 25 15 -27 -2 -42 -102 -92 -106
-54 -129 -80 -129 -147 0 -27 5 -58 10 -69 10 -18 6 -19 -92 -19 -79 0 -99 3
-90 12 7 7 12 39 12 73 0 54 -3 64 -27 87 -16 14 -59 42 -98 61 -38 19 -81 44
-94 54 -24 20 -24 20 -5 51 10 18 20 32 22 32 3 0 31 -29 63 -64z m98 -245
c34 -26 25 -55 -19 -59 -19 -2 -44 4 -55 12 -20 14 -20 15 4 40 29 31 38 32
70 7z m312 -7 c24 -25 24 -26 5 -40 -40 -29 -105 -9 -91 28 5 13 38 35 56 37
3 1 16 -11 30 -25z m-191 -59 c102 0 193 4 203 9 15 7 17 3 17 -37 0 -76 -4
-77 -220 -77 -216 0 -220 1 -220 77 0 40 2 44 18 37 9 -5 100 -9 202 -9z"/>
<path d="M661 664 c0 -11 3 -14 6 -6 3 7 2 16 -1 19 -3 4 -6 -2 -5 -13z"/>
<path d="M678 513 c6 -2 18 -2 25 0 6 3 1 5 -13 5 -14 0 -19 -2 -12 -5z"/>
<path d="M658 493 c7 -3 16 -2 19 1 4 3 -2 6 -13 5 -11 0 -14 -3 -6 -6z"/>
<path d="M246 508 c-8 -41 0 -47 27 -20 12 12 16 22 9 22 -6 0 -12 -4 -12 -10
0 -5 -4 -10 -9 -10 -4 0 -6 11 -3 25 2 14 2 25 -1 25 -2 0 -7 -14 -11 -32z"/>
<path d="M287 466 c-16 -24 -7 -46 17 -46 6 0 4 5 -4 11 -11 7 -12 12 -3 15 7
3 9 13 6 21 -5 13 -2 15 11 10 10 -4 15 -3 11 3 -10 16 -22 12 -38 -14z"/>
<path d="M335 431 c-8 -17 -14 -31 -11 -31 2 0 13 -3 23 -6 15 -5 15 -4 3 5
-13 9 -13 14 -2 32 7 11 11 23 8 26 -2 3 -12 -9 -21 -26z"/>
<path d="M380 410 c-10 -19 -9 -25 6 -39 11 -9 13 -10 7 -2 -9 10 -9 20 -2 33
6 11 8 22 6 25 -3 2 -11 -5 -17 -17z"/>
<path d="M421 413 c-1 -6 -4 -20 -7 -30 -5 -17 -5 -17 6 0 6 10 9 23 6 30 -3
9 -5 9 -5 0z"/>
<path d="M453 369 c-6 -16 -7 -29 -2 -29 5 0 9 7 9 15 0 7 7 18 16 23 13 8 14
10 2 15 -9 3 -18 -5 -25 -24z"/>
<path d="M1009 482 c7 -13 10 -30 7 -38 -3 -9 -1 -12 4 -9 16 10 12 41 -7 56
-15 13 -15 12 -4 -9z"/>
<path d="M975 480 c-9 -14 4 -50 17 -50 6 0 6 6 -2 15 -7 8 -10 22 -6 30 6 17
0 20 -9 5z"/>
<path d="M947 433 c4 -27 4 -27 -11 -9 -9 11 -18 17 -21 14 -3 -2 6 -15 20
-28 l25 -23 0 36 c0 20 -4 37 -9 37 -4 0 -6 -12 -4 -27z"/>
<path d="M867 414 c-3 -3 -1 -19 5 -35 11 -32 21 -31 23 1 1 10 -3 18 -9 17
-6 -1 -10 4 -8 11 2 13 -1 15 -11 6z"/>
<path d="M852 360 c0 -14 2 -19 5 -12 2 6 2 18 0 25 -3 6 -5 1 -5 -13z"/>
<path d="M515 160 c4 -14 12 -29 17 -35 7 -7 8 -2 3 15 -4 14 -12 30 -17 35
-7 7 -8 2 -3 -15z"/>
<path d="M560 151 c0 -31 14 -42 23 -18 4 10 6 10 6 0 1 -7 5 -13 10 -13 16 0
-5 55 -22 58 -13 3 -17 -4 -17 -27z m30 9 c0 -5 -4 -10 -10 -10 -5 0 -10 5
-10 10 0 6 5 10 10 10 6 0 10 -4 10 -10z"/>
<path d="M630 148 c0 -25 3 -29 10 -18 9 13 11 13 20 0 7 -11 8 -7 6 15 -5 44
-36 47 -36 3z m30 18 c0 -3 -4 -8 -10 -11 -5 -3 -10 -1 -10 4 0 6 5 11 10 11
6 0 10 -2 10 -4z"/>
<path d="M694 166 c-3 -8 -4 -23 -1 -33 3 -12 5 -8 6 10 1 17 7 27 16 27 10 0
15 -10 15 -27 1 -25 2 -26 11 -10 8 13 7 22 -1 33 -16 18 -39 18 -46 0z"/>
<path d="M768 149 c3 -22 7 -27 13 -18 6 10 9 11 9 2 0 -7 4 -13 8 -13 12 0 9
43 -3 52 -21 16 -31 7 -27 -23z"/>
<path d="M496 133 c-6 -14 -5 -15 5 -6 7 7 10 15 7 18 -3 3 -9 -2 -12 -12z"/>
<path d="M1440 1494 c-74 -32 -110 -86 -110 -166 0 -71 31 -124 90 -156 38
-20 56 -23 114 -20 73 4 96 19 96 62 -1 19 -2 18 -17 -6 -22 -35 -64 -52 -110
-45 -51 9 -83 34 -111 88 -46 88 -11 203 73 234 38 15 49 16 87 4 26 -9 47
-23 54 -37 10 -20 12 -21 18 -7 12 32 6 42 -33 53 -52 16 -109 14 -151 -4z"/>
<path d="M3653 1503 c-41 -8 -73 -49 -73 -91 0 -46 24 -72 90 -98 64 -24 90
-51 90 -90 0 -36 -29 -64 -65 -64 -48 0 -97 22 -117 53 -18 29 -19 29 -14 7 3
-14 6 -34 6 -46 0 -20 5 -21 91 -20 87 1 92 2 115 29 49 57 22 118 -68 157
-95 40 -119 81 -79 131 15 19 28 23 62 23 36 -1 48 -7 69 -33 l27 -31 -1 35
c-1 28 -5 35 -21 35 -11 0 -36 2 -55 4 -19 2 -45 2 -57 -1z"/>
<path d="M4097 1494 c-14 -14 -7 -35 11 -32 9 2 17 10 17 17 0 16 -18 25 -28
15z"/>
<path d="M636 1481 c-4 -5 -2 -12 3 -15 5 -4 12 -2 15 3 4 5 2 12 -3 15 -5 4
-12 2 -15 -3z"/>
<path d="M506 1443 c2 -6 -4 -17 -12 -23 -20 -17 -18 -49 6 -88 21 -34 49 -40
58 -13 3 8 0 11 -7 7 -15 -10 -14 16 2 39 10 12 16 14 21 7 4 -7 13 -12 19
-12 7 1 1 10 -12 20 l-23 20 25 0 c14 0 28 -3 30 -7 7 -13 -19 -64 -28 -56 -4
5 -5 2 -1 -4 10 -18 47 -17 40 1 -7 19 11 29 37 21 12 -4 18 -12 15 -21 -4 -9
2 -14 16 -14 17 0 18 2 8 15 -11 14 -7 19 13 16 4 0 7 6 7 14 0 8 5 15 10 15
6 0 10 -7 10 -15 0 -8 5 -15 11 -15 6 0 9 -6 6 -12 -2 -7 -10 -12 -17 -10 -11
3 -11 0 0 -12 7 -9 18 -16 25 -16 21 0 48 51 51 99 2 25 0 41 -4 34 -5 -8 -13
-9 -22 -3 -11 7 -12 10 -2 10 7 0 10 5 6 11 -4 6 -9 7 -13 2 -5 -8 -77 -33
-94 -33 -3 0 -8 8 -10 18 -3 9 -5 -2 -6 -25 -1 -36 -4 -43 -21 -43 -17 0 -20
7 -21 43 -1 23 -3 34 -6 23 -4 -14 -11 -17 -34 -12 -17 3 -28 2 -24 -3 3 -5
-11 -15 -30 -21 -19 -6 -35 -16 -35 -22 0 -6 6 -6 15 2 24 20 33 7 18 -30 -11
-30 -13 -31 -9 -7 2 21 0 25 -9 17 -9 -8 -14 -6 -19 6 -12 31 -6 45 27 59 26
11 28 14 10 15 -12 0 -23 3 -26 8 -2 4 -2 2 -1 -5z m285 -23 c10 -6 19 -19 19
-29 0 -17 -3 -16 -44 3 -29 13 -41 23 -33 28 17 11 35 10 58 -2z m-69 -36
c-22 -15 -42 -12 -42 7 0 5 15 9 32 9 32 0 32 0 10 -16z m64 -11 c11 -11 13
-18 5 -21 -6 -2 -11 -10 -11 -18 0 -8 -4 -14 -10 -14 -5 0 -7 6 -4 14 3 8 1
17 -5 21 -13 8 -15 35 -2 35 5 0 17 -8 27 -17z"/>
<path d="M2893 1370 c-23 -21 -28 -30 -17 -34 10 -4 14 -25 14 -80 0 -41 3
-81 6 -90 8 -20 63 -21 89 -3 16 13 15 14 -15 9 -43 -6 -50 7 -50 96 l0 72 40
0 c22 0 40 5 40 10 0 6 -19 10 -41 10 -36 0 -41 2 -36 20 3 11 4 20 4 20 -1 0
-16 -14 -34 -30z"/>
<path d="M2357 1350 c-22 -14 -25 -19 -13 -23 14 -5 16 -30 16 -155 0 -102 -4
-152 -12 -160 -9 -9 -1 -12 38 -11 40 0 45 2 26 9 -21 9 -23 15 -20 77 l3 68
32 -3 c18 -2 48 4 68 14 112 53 63 218 -55 184 -45 -13 -48 -13 -52 3 -2 11
-9 10 -31 -3z m136 -34 c31 -29 43 -69 31 -105 -11 -32 -49 -46 -97 -37 l-37
7 0 70 c0 63 2 71 23 79 36 14 53 11 80 -14z"/>
<path d="M1732 1340 c-90 -55 -48 -190 60 -190 55 0 108 51 108 105 0 29 -8
45 -34 71 -40 40 -83 45 -134 14z m99 -19 c55 -55 32 -161 -35 -161 -38 0 -76
52 -76 106 0 80 57 109 111 55z"/>
<path d="M1955 1345 c-25 -11 -27 -14 -12 -20 14 -6 17 -20 17 -81 0 -59 -3
-75 -17 -83 -14 -8 -5 -10 37 -10 42 0 51 2 38 10 -15 8 -18 24 -18 83 0 68 2
74 23 80 51 13 66 8 76 -31 13 -46 4 -114 -17 -130 -13 -11 -7 -13 39 -12 30
1 46 3 37 6 -15 4 -18 17 -18 83 0 72 2 78 23 84 59 16 77 -5 77 -89 0 -50 -4
-66 -17 -74 -14 -8 -5 -10 37 -10 30 1 47 3 38 6 -20 5 -28 39 -27 111 1 79
-24 97 -99 71 -25 -8 -35 -7 -56 6 -26 17 -34 16 -98 -10 -13 -5 -18 -2 -18 9
0 19 -5 19 -45 1z"/>
<path d="M2615 1343 c-24 -14 -26 -18 -12 -21 14 -3 17 -14 17 -66 0 -98 29
-123 105 -92 31 13 36 13 44 -1 6 -12 15 -14 37 -8 21 6 24 9 12 12 -16 4 -18
17 -18 94 0 95 -4 101 -55 79 -16 -7 -16 -9 -4 -9 22 -1 29 -22 29 -81 0 -52
-11 -67 -58 -76 -25 -5 -33 -2 -47 20 -14 22 -16 39 -11 96 4 39 4 70 -1 70
-4 -1 -21 -8 -38 -17z"/>
<path d="M3091 1346 c-56 -31 -70 -128 -25 -173 22 -21 32 -25 66 -20 52 7 70
24 20 19 -44 -4 -72 19 -75 64 -2 27 1 29 67 44 l69 15 -31 33 c-32 35 -53 39
-91 18z m57 -18 c22 -22 12 -36 -29 -43 -49 -8 -53 -6 -40 29 11 28 47 36 69
14z"/>
<path d="M3259 1340 c-20 -16 -21 -19 -6 -20 15 0 17 -10 17 -75 0 -60 -3 -76
-17 -84 -14 -8 -2 -10 47 -9 36 0 53 3 38 5 -22 3 -28 11 -33 43 -7 42 1 97
17 118 13 16 48 16 48 0 0 -8 6 -6 17 5 13 13 14 20 5 29 -9 9 -18 8 -39 -2
-16 -8 -31 -16 -35 -18 -5 -2 -8 3 -8 12 0 22 -23 20 -51 -4z"/>
<path d="M3874 1326 c-29 -29 -34 -41 -34 -80 0 -36 6 -52 25 -71 28 -29 84
-33 125 -11 23 13 21 14 -22 9 -42 -5 -50 -2 -72 22 -34 36 -36 103 -6 130 18
17 26 17 63 8 27 -8 45 -8 52 -2 15 15 -14 29 -58 29 -31 0 -46 -7 -73 -34z"/>
<path d="M4077 1341 c-22 -15 -25 -20 -13 -24 23 -9 22 -129 0 -151 -14 -15
-11 -16 38 -15 43 0 49 2 30 10 -23 9 -24 12 -20 104 1 52 1 95 -2 94 -3 0
-18 -9 -33 -18z"/>
<path d="M4231 1334 c-49 -41 -54 -121 -11 -164 24 -24 74 -26 110 -5 l25 15
-27 -6 c-47 -10 -78 3 -94 42 -8 20 -12 39 -9 43 3 3 36 13 72 21 l66 15 -31
33 c-36 39 -61 40 -101 6z m73 -13 c20 -22 15 -27 -37 -36 -32 -6 -37 -5 -37
12 0 42 45 57 74 24z"/>
<path d="M4424 1348 c-20 -9 -21 -12 -8 -37 18 -33 8 -130 -15 -148 -13 -10
-6 -12 39 -12 42 0 51 2 38 10 -25 14 -26 154 -2 163 26 10 69 7 82 -6 19 -19
15 -128 -5 -150 -15 -17 -14 -18 33 -18 38 1 45 3 32 11 -15 8 -18 24 -18 89
0 74 -2 81 -25 96 -25 16 -33 15 -97 -11 -13 -5 -18 -2 -18 9 0 18 -6 19 -36
4z"/>
<path d="M4718 1344 c-68 -36 -78 -148 -17 -179 36 -19 89 -19 114 -1 18 13
15 14 -26 9 -42 -5 -48 -3 -72 27 -34 39 -36 91 -6 121 21 21 32 21 97 3 16
-5 22 -2 22 9 0 30 -66 36 -112 11z"/>
<path d="M4917 1340 c-14 -11 -31 -36 -37 -56 -31 -92 49 -165 130 -119 24 14
24 14 -13 8 -31 -5 -42 -1 -62 17 -14 14 -25 35 -25 50 0 24 5 27 65 39 36 7
65 17 65 21 0 14 -61 60 -79 60 -10 0 -30 -9 -44 -20z m67 -16 c24 -24 20 -32
-25 -39 -49 -8 -56 -3 -41 30 13 29 43 33 66 9z"/>
<path d="M558 1296 c-34 -9 -49 -10 -52 -2 -2 6 -5 3 -5 -6 -1 -9 5 -23 13
-31 11 -11 12 -17 3 -26 -8 -8 -8 -14 2 -23 10 -11 11 -10 6 3 -7 19 5 29 49
40 30 8 29 8 -8 6 -22 -1 -41 3 -43 9 -5 16 48 28 57 14 5 -8 9 -7 13 4 4 10
23 16 54 19 l48 3 -45 2 c-25 0 -66 -5 -92 -12z"/>
<path d="M707 1284 c4 -11 8 -12 13 -4 10 16 50 3 50 -17 0 -11 -7 -14 -22
-10 -13 3 -40 9 -60 12 -21 4 -35 11 -32 16 3 5 0 9 -5 9 -6 0 -11 -4 -11 -9
0 -5 -8 -12 -17 -14 -10 -3 -2 -5 17 -6 58 -2 114 -19 128 -38 13 -17 14 -17
10 2 -3 11 2 34 10 50 13 26 13 28 1 18 -10 -8 -20 -9 -29 -3 -8 6 -25 10 -37
10 -16 0 -21 -4 -16 -16z"/>
<path d="M554 1225 c-16 -13 -17 -16 -4 -25 8 -5 31 -9 50 -8 33 1 33 1 5 5
-88 11 -62 33 40 33 70 0 116 -13 85 -24 -8 -3 -28 -7 -45 -9 -28 -4 -28 -4 6
-6 19 0 44 5 55 13 18 14 18 15 -9 25 -43 16 -159 14 -183 -4z"/>
<path d="M3995 835 c-50 -18 -75 -48 -75 -90 0 -46 25 -72 111 -114 69 -33 74
-38 77 -71 4 -41 -16 -60 -65 -60 -45 0 -92 25 -103 55 -11 28 -34 35 -26 8 3
-10 8 -34 11 -53 l6 -35 70 -3 c82 -3 132 16 154 59 33 62 8 107 -82 150 -82
38 -103 55 -103 84 0 55 90 76 135 30 14 -13 25 -29 25 -35 0 -5 5 -10 10 -10
6 0 10 20 10 45 0 43 -1 45 -29 45 -16 0 -41 2 -57 5 -16 3 -47 -2 -69 -10z"/>
<path d="M4516 810 c-17 -44 -13 -50 17 -22 18 17 36 22 75 22 l53 0 -3 -152
-3 -151 -35 -13 c-43 -16 -37 -17 77 -18 58 -1 92 3 90 9 -2 6 -12 12 -23 14
-10 2 -22 8 -26 15 -4 6 -8 75 -8 154 l0 142 55 0 c43 0 59 -4 72 -20 20 -22
34 -26 29 -7 -3 6 -7 23 -10 37 l-5 25 -170 0 -171 0 -14 -35z"/>
<path d="M5815 838 c-109 -38 -163 -153 -120 -255 30 -72 93 -113 170 -113 84
0 152 42 186 115 68 147 -81 307 -236 253z m106 -41 c48 -32 79 -98 79 -169 0
-50 -4 -62 -31 -93 -27 -30 -37 -35 -76 -35 -56 0 -96 27 -125 83 -29 58 -30
146 -2 184 42 56 99 67 155 30z"/>
<path d="M6776 810 c-17 -44 -13 -50 17 -22 18 17 36 22 75 22 l53 0 -3 -152
-3 -151 -35 -13 c-43 -16 -37 -17 77 -18 58 -1 92 3 90 9 -2 6 -12 12 -23 14
-10 2 -22 8 -26 15 -4 6 -8 75 -8 154 l0 142 55 0 c43 0 58 -5 75 -22 26 -28
32 -21 20 23 l-10 34 -170 0 -170 0 -14 -35z"/>
<path d="M7322 839 c-48 -14 -119 -89 -128 -134 -24 -129 57 -235 180 -235
177 0 267 199 146 320 -53 53 -124 70 -198 49z m104 -38 c44 -27 74 -82 81
-145 10 -98 -33 -156 -115 -156 -40 0 -50 5 -83 40 -72 75 -76 197 -8 254 37
31 81 34 125 7z"/>
<path d="M8196 836 c-78 -29 -126 -97 -126 -180 0 -111 75 -186 187 -186 92 0
169 59 192 148 38 139 -114 269 -253 218z m122 -43 c35 -26 64 -86 70 -144 9
-91 -36 -149 -116 -149 -38 0 -50 5 -82 38 -78 78 -80 216 -2 265 33 22 94 17
130 -10z"/>
<path d="M9030 816 c-15 -44 -12 -49 16 -27 19 15 41 21 74 21 l47 0 7 -46 c8
-59 8 -125 0 -202 -6 -57 -9 -61 -35 -67 -58 -13 -27 -23 66 -21 58 0 94 5 92
11 -2 6 -13 11 -24 13 -29 4 -33 27 -33 180 l0 132 59 0 c50 0 61 -3 74 -22
19 -30 27 -21 19 20 l-7 33 -172 2 -173 2 -10 -29z"/>
<path d="M9575 838 c-109 -38 -163 -153 -120 -255 30 -72 93 -113 170 -113 84
0 152 42 186 115 68 147 -81 307 -236 253z m106 -41 c48 -32 79 -98 79 -169 0
-50 -4 -62 -31 -93 -27 -30 -37 -35 -76 -35 -56 0 -96 26 -125 83 -30 58 -31
145 -2 184 42 56 99 68 155 30z"/>
<path d="M1310 831 c0 -5 10 -11 22 -13 29 -4 38 -53 31 -163 -10 -147 31
-191 173 -183 117 6 139 39 150 222 7 111 8 118 31 127 39 14 27 19 -52 19
-43 0 -75 -4 -75 -10 0 -5 8 -10 19 -10 37 0 46 -27 45 -134 -2 -151 -25 -186
-124 -186 -41 0 -56 5 -75 25 -24 23 -25 30 -25 148 0 127 6 147 42 147 10 0
18 5 18 10 0 6 -37 10 -90 10 -49 0 -90 -4 -90 -9z"/>
<path d="M1810 832 c0 -4 10 -12 22 -17 32 -15 39 -56 32 -188 -6 -112 -8
-119 -30 -129 -13 -6 -24 -14 -24 -18 0 -9 147 -6 156 2 3 3 -10 11 -29 17
-43 15 -47 29 -39 150 l7 95 129 -137 c71 -75 135 -137 142 -137 11 0 14 39
16 173 3 170 3 172 26 175 12 2 22 8 22 13 0 5 -35 9 -77 9 -74 -1 -77 -1 -47
-14 17 -8 34 -21 38 -31 3 -9 6 -62 6 -118 l-1 -102 -129 133 c-129 131 -130
132 -175 132 -25 0 -45 -3 -45 -8z"/>
<path d="M2310 831 c0 -5 13 -11 29 -14 37 -8 41 -24 41 -169 0 -105 -2 -120
-20 -138 -11 -11 -30 -20 -42 -20 -12 0 -18 -3 -14 -7 11 -11 196 -13 196 -2
0 5 -8 9 -18 9 -37 0 -42 19 -42 165 0 149 4 165 47 165 13 0 23 5 23 10 0 6
-40 10 -100 10 -55 0 -100 -4 -100 -9z"/>
<path d="M2560 830 c0 -5 8 -10 18 -10 29 0 44 -22 131 -198 l82 -164 86 172
c61 123 92 175 109 182 41 19 26 28 -46 28 -40 0 -70 -4 -70 -10 0 -5 9 -10
20 -10 11 0 23 -7 27 -15 5 -16 -94 -235 -107 -235 -10 0 -110 214 -110 234 0
9 8 16 20 16 11 0 20 5 20 10 0 6 -37 10 -90 10 -53 0 -90 -4 -90 -10z"/>
<path d="M3070 831 c0 -5 9 -11 20 -14 20 -5 20 -12 18 -159 -3 -148 -4 -153
-25 -163 -13 -5 -23 -13 -23 -16 0 -4 69 -6 153 -6 l152 2 14 43 c7 24 11 46
8 49 -3 2 -19 -10 -35 -29 -29 -31 -34 -33 -99 -33 l-68 0 -9 57 c-12 81 -7
88 58 88 52 0 86 -16 86 -41 0 -5 5 -9 10 -9 13 0 13 107 1 115 -5 3 -12 -3
-16 -14 -4 -14 -19 -20 -62 -25 -34 -4 -60 -3 -66 3 -10 10 -12 119 -4 128 10
9 79 15 111 9 27 -5 37 -13 42 -31 7 -29 24 -34 24 -7 0 9 3 27 6 40 l6 22
-151 0 c-83 0 -151 -4 -151 -9z"/>
<path d="M3480 833 c0 -4 10 -13 23 -18 21 -10 22 -14 22 -160 0 -146 -1 -150
-22 -160 -41 -18 -24 -24 62 -24 47 0 85 4 85 10 0 5 -6 9 -14 9 -31 0 -46 30
-46 91 0 74 20 89 57 43 88 -106 111 -128 147 -145 45 -20 86 -25 86 -9 0 6
-6 10 -14 10 -22 0 -66 40 -112 103 -24 32 -44 62 -44 66 0 5 11 13 25 19 30
14 54 63 47 97 -2 13 -15 34 -29 47 -22 21 -35 23 -149 26 -68 2 -124 0 -124
-5z m222 -43 c44 -54 3 -120 -73 -120 l-39 0 0 53 c0 28 3 63 7 76 5 21 10 23
47 18 25 -4 48 -14 58 -27z"/>
<path d="M4250 831 c0 -5 13 -11 29 -14 36 -7 41 -31 41 -178 0 -96 -2 -111
-20 -129 -11 -11 -30 -20 -42 -20 -12 0 -18 -3 -14 -7 11 -11 196 -13 196 -2
0 5 -8 9 -18 9 -37 0 -42 19 -42 165 0 149 4 165 47 165 13 0 23 5 23 10 0 6
-40 10 -100 10 -55 0 -100 -4 -100 -9z"/>
<path d="M4940 831 c0 -5 10 -11 22 -13 13 -2 49 -36 89 -82 61 -73 67 -85 73
-138 7 -69 -5 -108 -34 -108 -11 0 -20 -4 -20 -10 0 -6 35 -10 85 -10 47 0 85
4 85 9 0 5 -10 11 -22 13 -21 3 -23 9 -26 84 l-3 81 52 82 c34 54 58 81 70 81
11 0 19 5 19 10 0 6 -28 10 -65 10 -37 0 -65 -4 -65 -10 0 -5 9 -10 19 -10 34
0 32 -16 -10 -81 l-41 -63 -19 25 c-33 41 -79 107 -79 113 0 3 11 6 25 6 14 0
25 5 25 10 0 6 -37 10 -90 10 -49 0 -90 -4 -90 -9z"/>
<path d="M6150 830 c0 -5 7 -10 15 -10 25 0 35 -36 35 -133 0 -133 -8 -185
-31 -192 -43 -14 -13 -24 71 -24 93 0 114 9 58 25 -33 10 -33 10 -36 83 l-3
74 57 -5 c37 -3 61 -11 69 -21 20 -27 25 -20 25 33 0 53 -5 60 -25 33 -9 -12
-28 -17 -66 -18 l-54 0 -3 67 c-3 60 -1 67 18 73 35 11 101 -6 125 -31 30 -33
35 -30 35 16 l0 40 -145 0 c-90 0 -145 -4 -145 -10z"/>
<path d="M7650 833 c0 -4 10 -13 23 -18 21 -10 22 -14 22 -160 0 -146 -1 -150
-22 -160 -41 -18 -24 -24 62 -24 89 0 105 7 55 26 -29 11 -30 13 -30 82 0 64
2 71 20 71 12 0 34 -20 59 -52 52 -70 88 -104 133 -122 67 -29 109 -15 45 14
-17 8 -55 44 -84 80 -51 63 -64 90 -43 90 6 0 22 11 35 25 33 32 33 84 1 122
-24 28 -26 28 -150 31 -69 2 -126 0 -126 -5z m193 -24 c25 -11 47 -47 47 -75
0 -30 -47 -64 -90 -64 l-40 0 0 59 c0 33 3 66 6 75 7 19 43 21 77 5z"/>
<path d="M8520 830 c0 -5 6 -10 14 -10 8 0 22 -7 30 -16 23 -23 23 -275 0
-298 -8 -9 -20 -16 -25 -16 -5 0 -9 -4 -9 -9 0 -4 34 -8 75 -7 45 1 74 5 72
11 -2 6 -12 12 -23 14 -40 7 -44 20 -44 132 0 60 2 109 5 109 2 0 64 -61 136
-135 73 -74 136 -135 140 -135 5 0 9 67 9 149 0 154 8 201 35 201 8 0 15 5 15
10 0 6 -30 10 -72 9 -72 -1 -73 -1 -40 -15 l32 -14 0 -118 0 -117 -126 133
-126 132 -49 0 c-27 0 -49 -4 -49 -10z"/>
</g>
</svg>
